M48
; DRILL file {KiCad (5.1.0)-1} date 6/11/2019 5:48:04 PM
; FORMAT={-:-/ absolute / inch / decimal}
; #@! TF.CreationDate,2019-06-11T17:48:04-07:00
; #@! TF.GenerationSoftware,Kicad,Pcbnew,(5.1.0)-1
FMAT,2
INCH
T1C0.0157
T2C0.0315
T3C0.0320
T4C0.0394
T5C0.0400
T6C0.0410
T7C0.0591
T8C0.1024
T9C0.1201
T10C0.1220
%
G90
G05
T1
X3.2625Y-5.675
X3.2625Y-6.1625
X3.3375Y-5.55
X3.35Y-4.2
X3.375Y-5.0
X3.4Y-3.7
X3.4Y-5.7125
X3.4Y-6.075
X3.4125Y-5.075
X3.4125Y-5.575
X3.4375Y-6.8
X3.4375Y-6.85
X3.45Y-5.1125
X3.45Y-5.4125
X3.4875Y-5.6
X3.525Y-5.75
X3.5625Y-5.4125
X3.6Y-5.0375
X3.65Y-4.825
X3.65Y-4.925
X3.65Y-5.5625
X3.7Y-4.1
X3.7Y-4.925
X3.75Y-4.4125
X3.75Y-5.525
X3.7875Y-4.925
X3.825Y-5.15
X3.85Y-5.3625
X3.9Y-4.925
X3.9125Y-6.7125
X3.9375Y-4.1625
X3.95Y-4.0875
X3.975Y-4.1125
X4.0Y-4.925
X4.0125Y-4.3
X4.0225Y-4.08
X4.1Y-4.925
X4.1125Y-3.7125
X4.1125Y-6.0875
X4.1875Y-4.8875
X4.225Y-4.925
X4.2375Y-3.9625
X4.25Y-5.85
X4.35Y-3.725
X4.35Y-5.675
X4.4Y-5.025
X4.4Y-6.2875
X4.45Y-4.175
X4.5Y-5.5625
X4.6Y-4.25
X4.6Y-6.325
X4.6375Y-6.5125
X4.6875Y-6.475
X4.7Y-6.3625
X4.75Y-4.85
X4.75Y-6.125
X4.75Y-6.65
X4.7875Y-5.3875
X4.8Y-5.7875
X4.8Y-6.3875
X4.85Y-4.9625
X4.8625Y-6.5625
X4.8875Y-5.95
X4.9Y-3.5875
X4.9Y-4.25
X4.9125Y-6.4125
X4.95Y-3.575
X4.95Y-6.25
X5.0Y-4.4
X5.15Y-3.5
X5.15Y-3.6125
X5.2Y-6.4875
X5.225Y-6.65
X5.25Y-6.45
X5.3Y-6.4125
X5.35Y-5.3
X5.35Y-6.2125
X5.4Y-6.0
X5.5Y-4.825
X5.525Y-6.85
X5.55Y-5.425
X5.65Y-3.9
X5.65Y-4.4
X5.7Y-4.725
X5.925Y-4.55
X6.1125Y-6.5375
X6.8625Y-5.0625
T2
X6.4508Y-6.4
X6.5492Y-6.4
T3
X3.3Y-5.3
X3.3Y-5.9
X3.4Y-5.3
X3.4Y-5.9
X3.5Y-5.3
X3.5Y-5.9
X3.6Y-5.3
X3.6Y-5.9
X3.7Y-5.3
X3.7Y-5.9
X3.8Y-5.3
X3.8Y-5.9
X3.9Y-5.3
X3.9Y-5.9
X4.0Y-5.3
X4.0Y-5.9
X4.1Y-5.3
X4.1Y-5.9
X4.2Y-5.3
X4.2Y-5.9
X4.3Y-5.3
X4.3Y-5.9
X4.4Y-5.3
X4.4Y-5.9
X4.5Y-5.3
X4.5Y-5.9
X4.6Y-5.3
X4.6Y-5.9
X4.7Y-5.3
X4.7Y-5.9
X4.8Y-5.3
X4.8Y-5.9
X3.15Y-5.5
X3.15Y-5.7
X5.8Y-3.6
X6.0Y-3.6
X6.1Y-3.6
X6.3Y-3.6
X6.05Y-5.15
X6.15Y-5.05
X6.15Y-5.25
X5.35Y-3.25
X5.35Y-3.45
X6.0Y-5.4
X6.0Y-5.5
X6.0Y-5.6
X6.0Y-5.7
X6.0Y-5.8
X6.0Y-5.9
X6.0Y-6.0
X6.0Y-6.1
X6.3Y-5.4
X6.3Y-5.5
X6.3Y-5.6
X6.3Y-5.7
X6.3Y-5.8
X6.3Y-5.9
X6.3Y-6.0
X6.3Y-6.1
X5.5Y-3.6
X5.7Y-3.6
X5.1Y-5.6
X5.1Y-5.9
X5.2Y-5.6
X5.2Y-5.9
X5.3Y-5.6
X5.3Y-5.9
X5.4Y-5.6
X5.4Y-5.9
X5.5Y-5.6
X5.5Y-5.9
X5.6Y-5.6
X5.6Y-5.9
X5.7Y-5.6
X5.7Y-5.9
X5.8Y-5.6
X5.8Y-5.9
X5.35Y-4.2
X5.35Y-4.5
X5.5Y-4.1
X5.7Y-4.1
X6.1Y-4.1
X6.3Y-4.1
X5.4Y-5.5
X5.5Y-5.5
X5.6Y-5.5
X5.7Y-5.5
X5.8Y-5.5
X3.3Y-3.2
X3.3Y-3.8
X3.4Y-3.2
X3.4Y-3.8
X3.5Y-3.2
X3.5Y-3.8
X3.6Y-3.2
X3.6Y-3.8
X3.7Y-3.2
X3.7Y-3.8
X3.8Y-3.2
X3.8Y-3.8
X3.9Y-3.2
X3.9Y-3.8
X4.0Y-3.2
X4.0Y-3.8
X4.1Y-3.2
X4.1Y-3.8
X4.2Y-3.2
X4.2Y-3.8
X4.3Y-3.2
X4.3Y-3.8
X4.4Y-3.2
X4.4Y-3.8
X4.5Y-3.2
X4.5Y-3.8
X4.6Y-3.2
X4.6Y-3.8
X4.7Y-3.2
X4.7Y-3.8
X4.8Y-3.2
X4.8Y-3.8
X4.9Y-3.2
X4.9Y-3.8
X5.0Y-3.2
X5.0Y-3.8
X5.1Y-3.2
X5.1Y-3.8
X5.2Y-3.2
X5.2Y-3.8
X3.15Y-6.2
X3.15Y-6.4
X4.7Y-6.7
X4.8Y-6.7
X4.9Y-6.7
X5.0Y-6.7
X5.1Y-6.7
X5.5Y-6.15
X5.5Y-6.45
X5.8Y-6.15
X5.8Y-6.45
X3.15Y-4.8
X3.15Y-5.0
X3.3Y-4.6
X3.3Y-5.2
X3.4Y-4.6
X3.4Y-5.2
X3.5Y-4.6
X3.5Y-5.2
X3.6Y-4.6
X3.6Y-5.2
X3.7Y-4.6
X3.7Y-5.2
X3.8Y-4.6
X3.8Y-5.2
X3.9Y-4.6
X3.9Y-5.2
X4.0Y-4.6
X4.0Y-5.2
X4.1Y-4.6
X4.1Y-5.2
X4.2Y-4.6
X4.2Y-5.2
X4.3Y-4.6
X4.3Y-5.2
X4.4Y-4.6
X4.4Y-5.2
X4.5Y-4.6
X4.5Y-5.2
X4.6Y-4.6
X4.6Y-5.2
X4.7Y-4.6
X4.7Y-5.2
X4.8Y-4.6
X4.8Y-5.2
X4.95Y-4.65
X4.95Y-4.85
X5.5Y-6.0
X5.7Y-6.0
X5.6Y-3.2
X5.6Y-3.5
X5.7Y-3.2
X5.7Y-3.5
X5.8Y-3.2
X5.8Y-3.5
X5.9Y-3.2
X5.9Y-3.5
X6.0Y-3.2
X6.0Y-3.5
X6.1Y-3.2
X6.1Y-3.5
X6.2Y-3.2
X6.2Y-3.5
X6.3Y-3.2
X6.3Y-3.5
X3.15Y-3.4
X3.15Y-3.6
X4.95Y-5.15
X4.95Y-5.35
X5.6Y-4.2
X5.6Y-4.5
X5.7Y-4.2
X5.7Y-4.5
X5.8Y-4.2
X5.8Y-4.5
X5.9Y-4.2
X5.9Y-4.5
X6.0Y-4.2
X6.0Y-4.5
X6.1Y-4.2
X6.1Y-4.5
X6.2Y-4.2
X6.2Y-4.5
X5.6Y-6.7
X5.7Y-6.7
X5.8Y-6.7
X5.9Y-6.7
X6.0Y-6.7
X6.1Y-6.7
X6.2Y-6.7
X6.3Y-6.7
X6.4Y-6.7
X5.45Y-4.25
X5.45Y-4.45
X3.3Y-3.9
X3.3Y-4.5
X3.4Y-3.9
X3.4Y-4.5
X3.5Y-3.9
X3.5Y-4.5
X3.6Y-3.9
X3.6Y-4.5
X3.7Y-3.9
X3.7Y-4.5
X3.8Y-3.9
X3.8Y-4.5
X3.9Y-3.9
X3.9Y-4.5
X4.0Y-3.9
X4.0Y-4.5
X4.1Y-3.9
X4.1Y-4.5
X4.2Y-3.9
X4.2Y-4.5
X4.3Y-3.9
X4.3Y-4.5
X4.4Y-3.9
X4.4Y-4.5
X4.5Y-3.9
X4.5Y-4.5
X4.6Y-3.9
X4.6Y-4.5
X3.3Y-6.0
X3.3Y-6.6
X3.4Y-6.0
X3.4Y-6.6
X3.5Y-6.0
X3.5Y-6.6
X3.6Y-6.0
X3.6Y-6.6
X3.7Y-6.0
X3.7Y-6.6
X3.8Y-6.0
X3.8Y-6.6
X3.9Y-6.0
X3.9Y-6.6
X4.0Y-6.0
X4.0Y-6.6
X4.1Y-6.0
X4.1Y-6.6
X4.2Y-6.0
X4.2Y-6.6
X4.3Y-6.0
X4.3Y-6.6
X4.4Y-6.0
X4.4Y-6.6
X4.5Y-6.0
X4.5Y-6.6
X4.6Y-6.0
X4.6Y-6.6
X4.7Y-6.0
X4.7Y-6.6
X4.8Y-6.0
X4.8Y-6.6
X4.9Y-6.0
X4.9Y-6.6
X5.0Y-6.0
X5.0Y-6.6
X5.1Y-6.0
X5.1Y-6.6
X5.2Y-6.0
X5.2Y-6.6
X5.4Y-5.0
X5.5Y-5.0
X5.6Y-5.0
X5.7Y-5.0
X5.8Y-5.0
X6.25Y-6.5
X6.35Y-6.5
X3.15Y-4.1
X3.15Y-4.3
X5.6Y-3.7
X5.6Y-4.0
X5.7Y-3.7
X5.7Y-4.0
X5.8Y-3.7
X5.8Y-4.0
X5.9Y-3.7
X5.9Y-4.0
X6.0Y-3.7
X6.0Y-4.0
X6.1Y-3.7
X6.1Y-4.0
X6.2Y-3.7
X6.2Y-4.0
X6.3Y-3.7
X6.3Y-4.0
X4.9Y-4.05
X4.9Y-4.35
X5.2Y-4.05
X5.2Y-4.35
X6.05Y-6.25
X6.25Y-6.25
X5.45Y-3.25
X5.45Y-3.45
X6.3Y-4.6
X6.3Y-4.9
X5.35Y-3.75
X5.35Y-3.95
X5.8Y-4.1
X6.0Y-4.1
X4.95Y-5.65
X4.95Y-5.85
X5.1Y-4.6
X5.1Y-4.9
X5.2Y-4.6
X5.2Y-4.9
X5.3Y-4.6
X5.3Y-4.9
X5.4Y-4.6
X5.4Y-4.9
X5.5Y-4.6
X5.5Y-4.9
X5.6Y-4.6
X5.6Y-4.9
X5.7Y-4.6
X5.7Y-4.9
X5.8Y-4.6
X5.8Y-4.9
X5.9Y-4.6
X5.9Y-4.9
X6.0Y-4.6
X6.0Y-4.9
X6.4Y-5.8
X6.4Y-6.1
X4.9Y-3.9
X5.1Y-3.9
X6.2Y-4.6
X6.2Y-4.9
X5.45Y-3.75
X5.45Y-3.95
X5.1Y-5.1
X5.1Y-5.4
X5.2Y-5.1
X5.2Y-5.4
X5.3Y-5.1
X5.3Y-5.4
X5.4Y-5.1
X5.4Y-5.4
X5.5Y-5.1
X5.5Y-5.4
X5.6Y-5.1
X5.6Y-5.4
X5.7Y-5.1
X5.7Y-5.4
X5.8Y-5.1
X5.8Y-5.4
X6.4Y-5.4
X6.4Y-5.7
T4
X6.8609Y-6.4615
X6.8609Y-6.6387
T5
X6.5Y-6.8
X6.6Y-6.8
X6.7Y-6.8
X6.8Y-6.8
X6.9Y-6.8
X3.1Y-6.9
X3.2Y-6.9
X3.3Y-6.9
X3.4Y-6.9
X3.5Y-6.9
X3.6Y-6.9
X3.7Y-6.9
X3.8Y-6.9
X3.9Y-6.9
X4.0Y-6.9
X4.1Y-6.9
X4.2Y-6.9
X4.3Y-6.9
X4.4Y-6.9
X4.5Y-6.9
X4.6Y-6.9
X4.7Y-6.9
X4.8Y-6.9
X4.9Y-6.9
X5.0Y-6.9
X5.1Y-6.9
X5.2Y-6.9
X5.3Y-6.9
X5.4Y-6.9
X5.5Y-6.9
X5.6Y-6.9
X5.7Y-6.9
X5.8Y-6.9
X5.9Y-6.9
X6.0Y-6.9
X6.1Y-6.9
X6.2Y-6.9
X6.3Y-6.9
X6.4Y-6.9
X6.5Y-6.9
X6.6Y-6.9
X6.7Y-6.9
X6.8Y-6.9
X6.9Y-6.9
X6.05Y-6.5
X6.15Y-6.5
X4.7Y-6.8
X4.8Y-6.8
X4.9Y-6.8
X5.0Y-6.8
X5.1Y-6.8
X5.2Y-6.8
X5.3Y-6.8
X5.4Y-6.8
X5.5Y-6.8
X5.6Y-6.8
X4.3Y-3.65
X4.4Y-3.65
X4.5Y-3.65
X4.3Y-4.05
X4.4Y-4.05
X4.5Y-4.05
T6
X6.5315Y-3.484
X6.5315Y-3.592
X6.5315Y-3.7
X6.5315Y-3.808
X6.5315Y-3.916
X6.6435Y-3.538
X6.6435Y-3.646
X6.6435Y-3.755
X6.6435Y-3.862
X6.5315Y-4.884
X6.5315Y-4.992
X6.5315Y-5.1
X6.5315Y-5.208
X6.5315Y-5.316
X6.6435Y-4.938
X6.6435Y-5.046
X6.6435Y-5.155
X6.6435Y-5.262
T7
X6.7625Y-6.4123
X6.7625Y-6.6879
T8
X6.6819Y-5.861
X6.8Y-6.05
T9
X6.5875Y-3.2081
X6.5875Y-4.1919
X6.5875Y-4.6081
X6.5875Y-5.5919
T10
X6.5559Y-6.05
T0
M30
