G04 #@! TF.FileFunction,Legend,Top*
%FSLAX46Y46*%
G04 Gerber Fmt 4.6, Leading zero omitted, Abs format (unit mm)*
G04 Created by KiCad (PCBNEW 4.0.7) date 02/07/19 14:19:16*
%MOMM*%
%LPD*%
G01*
G04 APERTURE LIST*
%ADD10C,0.100000*%
%ADD11C,0.304800*%
%ADD12C,0.203200*%
%ADD13C,0.254000*%
%ADD14C,0.152400*%
G04 APERTURE END LIST*
D10*
D11*
X84394523Y-78631143D02*
X84817856Y-78631143D01*
X84999285Y-79429429D02*
X84394523Y-79429429D01*
X84394523Y-77905429D01*
X84999285Y-77905429D01*
X86087857Y-79429429D02*
X86087857Y-78631143D01*
X86027380Y-78486000D01*
X85906428Y-78413429D01*
X85664523Y-78413429D01*
X85543571Y-78486000D01*
X86087857Y-79356857D02*
X85966904Y-79429429D01*
X85664523Y-79429429D01*
X85543571Y-79356857D01*
X85483095Y-79211714D01*
X85483095Y-79066571D01*
X85543571Y-78921429D01*
X85664523Y-78848857D01*
X85966904Y-78848857D01*
X86087857Y-78776286D01*
X86632143Y-79356857D02*
X86753095Y-79429429D01*
X86995000Y-79429429D01*
X87115952Y-79356857D01*
X87176428Y-79211714D01*
X87176428Y-79139143D01*
X87115952Y-78994000D01*
X86995000Y-78921429D01*
X86813571Y-78921429D01*
X86692619Y-78848857D01*
X86632143Y-78703714D01*
X86632143Y-78631143D01*
X86692619Y-78486000D01*
X86813571Y-78413429D01*
X86995000Y-78413429D01*
X87115952Y-78486000D01*
X87599762Y-78413429D02*
X87902143Y-79429429D01*
X88204523Y-78413429D02*
X87902143Y-79429429D01*
X87781190Y-79792286D01*
X87720714Y-79864857D01*
X87599762Y-79937429D01*
X89535000Y-77905429D02*
X90381666Y-77905429D01*
X89535000Y-79429429D01*
X90381666Y-79429429D01*
X91046905Y-78558571D02*
X90925952Y-78486000D01*
X90865476Y-78413429D01*
X90805000Y-78268286D01*
X90805000Y-78195714D01*
X90865476Y-78050571D01*
X90925952Y-77978000D01*
X91046905Y-77905429D01*
X91288809Y-77905429D01*
X91409762Y-77978000D01*
X91470238Y-78050571D01*
X91530714Y-78195714D01*
X91530714Y-78268286D01*
X91470238Y-78413429D01*
X91409762Y-78486000D01*
X91288809Y-78558571D01*
X91046905Y-78558571D01*
X90925952Y-78631143D01*
X90865476Y-78703714D01*
X90805000Y-78848857D01*
X90805000Y-79139143D01*
X90865476Y-79284286D01*
X90925952Y-79356857D01*
X91046905Y-79429429D01*
X91288809Y-79429429D01*
X91409762Y-79356857D01*
X91470238Y-79284286D01*
X91530714Y-79139143D01*
X91530714Y-78848857D01*
X91470238Y-78703714D01*
X91409762Y-78631143D01*
X91288809Y-78558571D01*
X92316905Y-77905429D02*
X92437857Y-77905429D01*
X92558809Y-77978000D01*
X92619286Y-78050571D01*
X92679762Y-78195714D01*
X92740238Y-78486000D01*
X92740238Y-78848857D01*
X92679762Y-79139143D01*
X92619286Y-79284286D01*
X92558809Y-79356857D01*
X92437857Y-79429429D01*
X92316905Y-79429429D01*
X92195952Y-79356857D01*
X92135476Y-79284286D01*
X92075000Y-79139143D01*
X92014524Y-78848857D01*
X92014524Y-78486000D01*
X92075000Y-78195714D01*
X92135476Y-78050571D01*
X92195952Y-77978000D01*
X92316905Y-77905429D01*
X94252143Y-78848857D02*
X95219762Y-78848857D01*
X96610714Y-77905429D02*
X97034048Y-79429429D01*
X97457381Y-77905429D01*
X98364523Y-79356857D02*
X98243571Y-79429429D01*
X98001666Y-79429429D01*
X97880714Y-79356857D01*
X97820238Y-79211714D01*
X97820238Y-78631143D01*
X97880714Y-78486000D01*
X98001666Y-78413429D01*
X98243571Y-78413429D01*
X98364523Y-78486000D01*
X98425000Y-78631143D01*
X98425000Y-78776286D01*
X97820238Y-78921429D01*
X98969285Y-79429429D02*
X98969285Y-78413429D01*
X98969285Y-78703714D02*
X99029761Y-78558571D01*
X99090237Y-78486000D01*
X99211190Y-78413429D01*
X99332142Y-78413429D01*
X99694999Y-79356857D02*
X99815951Y-79429429D01*
X100057856Y-79429429D01*
X100178808Y-79356857D01*
X100239284Y-79211714D01*
X100239284Y-79139143D01*
X100178808Y-78994000D01*
X100057856Y-78921429D01*
X99876427Y-78921429D01*
X99755475Y-78848857D01*
X99694999Y-78703714D01*
X99694999Y-78631143D01*
X99755475Y-78486000D01*
X99876427Y-78413429D01*
X100057856Y-78413429D01*
X100178808Y-78486000D01*
X100783570Y-79429429D02*
X100783570Y-78413429D01*
X100783570Y-77905429D02*
X100723094Y-77978000D01*
X100783570Y-78050571D01*
X100844046Y-77978000D01*
X100783570Y-77905429D01*
X100783570Y-78050571D01*
X101569761Y-79429429D02*
X101448808Y-79356857D01*
X101388332Y-79284286D01*
X101327856Y-79139143D01*
X101327856Y-78703714D01*
X101388332Y-78558571D01*
X101448808Y-78486000D01*
X101569761Y-78413429D01*
X101751189Y-78413429D01*
X101872141Y-78486000D01*
X101932618Y-78558571D01*
X101993094Y-78703714D01*
X101993094Y-79139143D01*
X101932618Y-79284286D01*
X101872141Y-79356857D01*
X101751189Y-79429429D01*
X101569761Y-79429429D01*
X102537380Y-78413429D02*
X102537380Y-79429429D01*
X102537380Y-78558571D02*
X102597856Y-78486000D01*
X102718809Y-78413429D01*
X102900237Y-78413429D01*
X103021189Y-78486000D01*
X103081666Y-78631143D01*
X103081666Y-79429429D01*
X105319285Y-79429429D02*
X104593571Y-79429429D01*
X104956428Y-79429429D02*
X104956428Y-77905429D01*
X104835476Y-78123143D01*
X104714523Y-78268286D01*
X104593571Y-78340857D01*
X105863571Y-79284286D02*
X105924047Y-79356857D01*
X105863571Y-79429429D01*
X105803095Y-79356857D01*
X105863571Y-79284286D01*
X105863571Y-79429429D01*
X106710238Y-77905429D02*
X106831190Y-77905429D01*
X106952142Y-77978000D01*
X107012619Y-78050571D01*
X107073095Y-78195714D01*
X107133571Y-78486000D01*
X107133571Y-78848857D01*
X107073095Y-79139143D01*
X107012619Y-79284286D01*
X106952142Y-79356857D01*
X106831190Y-79429429D01*
X106710238Y-79429429D01*
X106589285Y-79356857D01*
X106528809Y-79284286D01*
X106468333Y-79139143D01*
X106407857Y-78848857D01*
X106407857Y-78486000D01*
X106468333Y-78195714D01*
X106528809Y-78050571D01*
X106589285Y-77978000D01*
X106710238Y-77905429D01*
X108645476Y-78848857D02*
X109613095Y-78848857D01*
X111911190Y-79284286D02*
X111850714Y-79356857D01*
X111669285Y-79429429D01*
X111548333Y-79429429D01*
X111366905Y-79356857D01*
X111245952Y-79211714D01*
X111185476Y-79066571D01*
X111125000Y-78776286D01*
X111125000Y-78558571D01*
X111185476Y-78268286D01*
X111245952Y-78123143D01*
X111366905Y-77978000D01*
X111548333Y-77905429D01*
X111669285Y-77905429D01*
X111850714Y-77978000D01*
X111911190Y-78050571D01*
X112636905Y-79429429D02*
X112515952Y-79356857D01*
X112455476Y-79284286D01*
X112395000Y-79139143D01*
X112395000Y-78703714D01*
X112455476Y-78558571D01*
X112515952Y-78486000D01*
X112636905Y-78413429D01*
X112818333Y-78413429D01*
X112939285Y-78486000D01*
X112999762Y-78558571D01*
X113060238Y-78703714D01*
X113060238Y-79139143D01*
X112999762Y-79284286D01*
X112939285Y-79356857D01*
X112818333Y-79429429D01*
X112636905Y-79429429D01*
X113604524Y-78413429D02*
X113604524Y-79937429D01*
X113604524Y-78486000D02*
X113725476Y-78413429D01*
X113967381Y-78413429D01*
X114088333Y-78486000D01*
X114148810Y-78558571D01*
X114209286Y-78703714D01*
X114209286Y-79139143D01*
X114148810Y-79284286D01*
X114088333Y-79356857D01*
X113967381Y-79429429D01*
X113725476Y-79429429D01*
X113604524Y-79356857D01*
X114632620Y-78413429D02*
X114935001Y-79429429D01*
X115237381Y-78413429D02*
X114935001Y-79429429D01*
X114814048Y-79792286D01*
X114753572Y-79864857D01*
X114632620Y-79937429D01*
X115721191Y-79429429D02*
X115721191Y-78413429D01*
X115721191Y-78703714D02*
X115781667Y-78558571D01*
X115842143Y-78486000D01*
X115963096Y-78413429D01*
X116084048Y-78413429D01*
X116507381Y-79429429D02*
X116507381Y-78413429D01*
X116507381Y-77905429D02*
X116446905Y-77978000D01*
X116507381Y-78050571D01*
X116567857Y-77978000D01*
X116507381Y-77905429D01*
X116507381Y-78050571D01*
X117656429Y-78413429D02*
X117656429Y-79647143D01*
X117595952Y-79792286D01*
X117535476Y-79864857D01*
X117414524Y-79937429D01*
X117233095Y-79937429D01*
X117112143Y-79864857D01*
X117656429Y-79356857D02*
X117535476Y-79429429D01*
X117293572Y-79429429D01*
X117172619Y-79356857D01*
X117112143Y-79284286D01*
X117051667Y-79139143D01*
X117051667Y-78703714D01*
X117112143Y-78558571D01*
X117172619Y-78486000D01*
X117293572Y-78413429D01*
X117535476Y-78413429D01*
X117656429Y-78486000D01*
X118261191Y-79429429D02*
X118261191Y-77905429D01*
X118805477Y-79429429D02*
X118805477Y-78631143D01*
X118745000Y-78486000D01*
X118624048Y-78413429D01*
X118442620Y-78413429D01*
X118321667Y-78486000D01*
X118261191Y-78558571D01*
X119228810Y-78413429D02*
X119712620Y-78413429D01*
X119410239Y-77905429D02*
X119410239Y-79211714D01*
X119470715Y-79356857D01*
X119591668Y-79429429D01*
X119712620Y-79429429D01*
X121466429Y-80010000D02*
X121405953Y-79937429D01*
X121285001Y-79719714D01*
X121224524Y-79574571D01*
X121164048Y-79356857D01*
X121103572Y-78994000D01*
X121103572Y-78703714D01*
X121164048Y-78340857D01*
X121224524Y-78123143D01*
X121285001Y-77978000D01*
X121405953Y-77760286D01*
X121466429Y-77687714D01*
X122675953Y-79284286D02*
X122615477Y-79356857D01*
X122434048Y-79429429D01*
X122313096Y-79429429D01*
X122131668Y-79356857D01*
X122010715Y-79211714D01*
X121950239Y-79066571D01*
X121889763Y-78776286D01*
X121889763Y-78558571D01*
X121950239Y-78268286D01*
X122010715Y-78123143D01*
X122131668Y-77978000D01*
X122313096Y-77905429D01*
X122434048Y-77905429D01*
X122615477Y-77978000D01*
X122675953Y-78050571D01*
X123099287Y-80010000D02*
X123159763Y-79937429D01*
X123280715Y-79719714D01*
X123341191Y-79574571D01*
X123401668Y-79356857D01*
X123462144Y-78994000D01*
X123462144Y-78703714D01*
X123401668Y-78340857D01*
X123341191Y-78123143D01*
X123280715Y-77978000D01*
X123159763Y-77760286D01*
X123099287Y-77687714D01*
X124974049Y-78050571D02*
X125034525Y-77978000D01*
X125155477Y-77905429D01*
X125457858Y-77905429D01*
X125578811Y-77978000D01*
X125639287Y-78050571D01*
X125699763Y-78195714D01*
X125699763Y-78340857D01*
X125639287Y-78558571D01*
X124913573Y-79429429D01*
X125699763Y-79429429D01*
X126485954Y-77905429D02*
X126606906Y-77905429D01*
X126727858Y-77978000D01*
X126788335Y-78050571D01*
X126848811Y-78195714D01*
X126909287Y-78486000D01*
X126909287Y-78848857D01*
X126848811Y-79139143D01*
X126788335Y-79284286D01*
X126727858Y-79356857D01*
X126606906Y-79429429D01*
X126485954Y-79429429D01*
X126365001Y-79356857D01*
X126304525Y-79284286D01*
X126244049Y-79139143D01*
X126183573Y-78848857D01*
X126183573Y-78486000D01*
X126244049Y-78195714D01*
X126304525Y-78050571D01*
X126365001Y-77978000D01*
X126485954Y-77905429D01*
X128118811Y-79429429D02*
X127393097Y-79429429D01*
X127755954Y-79429429D02*
X127755954Y-77905429D01*
X127635002Y-78123143D01*
X127514049Y-78268286D01*
X127393097Y-78340857D01*
X128723573Y-79429429D02*
X128965478Y-79429429D01*
X129086430Y-79356857D01*
X129146906Y-79284286D01*
X129267859Y-79066571D01*
X129328335Y-78776286D01*
X129328335Y-78195714D01*
X129267859Y-78050571D01*
X129207383Y-77978000D01*
X129086430Y-77905429D01*
X128844526Y-77905429D01*
X128723573Y-77978000D01*
X128663097Y-78050571D01*
X128602621Y-78195714D01*
X128602621Y-78558571D01*
X128663097Y-78703714D01*
X128723573Y-78776286D01*
X128844526Y-78848857D01*
X129086430Y-78848857D01*
X129207383Y-78776286D01*
X129267859Y-78703714D01*
X129328335Y-78558571D01*
X130840240Y-79429429D02*
X130840240Y-77905429D01*
X131263573Y-78994000D01*
X131686907Y-77905429D01*
X131686907Y-79429429D01*
X132835955Y-79429429D02*
X132835955Y-78631143D01*
X132775478Y-78486000D01*
X132654526Y-78413429D01*
X132412621Y-78413429D01*
X132291669Y-78486000D01*
X132835955Y-79356857D02*
X132715002Y-79429429D01*
X132412621Y-79429429D01*
X132291669Y-79356857D01*
X132231193Y-79211714D01*
X132231193Y-79066571D01*
X132291669Y-78921429D01*
X132412621Y-78848857D01*
X132715002Y-78848857D01*
X132835955Y-78776286D01*
X133319765Y-79429429D02*
X133985003Y-78413429D01*
X133319765Y-78413429D02*
X133985003Y-79429429D01*
X135436431Y-79429429D02*
X135436431Y-77905429D01*
X135859764Y-78994000D01*
X136283098Y-77905429D01*
X136283098Y-79429429D01*
X137432146Y-79429429D02*
X137432146Y-78631143D01*
X137371669Y-78486000D01*
X137250717Y-78413429D01*
X137008812Y-78413429D01*
X136887860Y-78486000D01*
X137432146Y-79356857D02*
X137311193Y-79429429D01*
X137008812Y-79429429D01*
X136887860Y-79356857D01*
X136827384Y-79211714D01*
X136827384Y-79066571D01*
X136887860Y-78921429D01*
X137008812Y-78848857D01*
X137311193Y-78848857D01*
X137432146Y-78776286D01*
X138218337Y-79429429D02*
X138097384Y-79356857D01*
X138036908Y-79211714D01*
X138036908Y-77905429D01*
X138702146Y-79429429D02*
X138702146Y-78413429D01*
X138702146Y-77905429D02*
X138641670Y-77978000D01*
X138702146Y-78050571D01*
X138762622Y-77978000D01*
X138702146Y-77905429D01*
X138702146Y-78050571D01*
X139306908Y-78413429D02*
X139306908Y-79429429D01*
X139306908Y-78558571D02*
X139367384Y-78486000D01*
X139488337Y-78413429D01*
X139669765Y-78413429D01*
X139790717Y-78486000D01*
X139851194Y-78631143D01*
X139851194Y-79429429D01*
X140637385Y-79429429D02*
X140516432Y-79356857D01*
X140455956Y-79284286D01*
X140395480Y-79139143D01*
X140395480Y-78703714D01*
X140455956Y-78558571D01*
X140516432Y-78486000D01*
X140637385Y-78413429D01*
X140818813Y-78413429D01*
X140939765Y-78486000D01*
X141000242Y-78558571D01*
X141060718Y-78703714D01*
X141060718Y-79139143D01*
X141000242Y-79284286D01*
X140939765Y-79356857D01*
X140818813Y-79429429D01*
X140637385Y-79429429D01*
X141484052Y-78413429D02*
X141786433Y-79429429D01*
X142088813Y-78413429D01*
X144568337Y-79429429D02*
X144507861Y-79429429D01*
X144386909Y-79356857D01*
X144205480Y-79139143D01*
X143903099Y-78703714D01*
X143782147Y-78486000D01*
X143721671Y-78268286D01*
X143721671Y-78123143D01*
X143782147Y-77978000D01*
X143903099Y-77905429D01*
X143963575Y-77905429D01*
X144084528Y-77978000D01*
X144145004Y-78123143D01*
X144145004Y-78195714D01*
X144084528Y-78340857D01*
X144024051Y-78413429D01*
X143661194Y-78703714D01*
X143600718Y-78776286D01*
X143540242Y-78921429D01*
X143540242Y-79139143D01*
X143600718Y-79284286D01*
X143661194Y-79356857D01*
X143782147Y-79429429D01*
X143963575Y-79429429D01*
X144084528Y-79356857D01*
X144145004Y-79284286D01*
X144326432Y-78994000D01*
X144386909Y-78776286D01*
X144386909Y-78631143D01*
X146019766Y-79356857D02*
X146201194Y-79429429D01*
X146503575Y-79429429D01*
X146624528Y-79356857D01*
X146685004Y-79284286D01*
X146745480Y-79139143D01*
X146745480Y-78994000D01*
X146685004Y-78848857D01*
X146624528Y-78776286D01*
X146503575Y-78703714D01*
X146261671Y-78631143D01*
X146140718Y-78558571D01*
X146080242Y-78486000D01*
X146019766Y-78340857D01*
X146019766Y-78195714D01*
X146080242Y-78050571D01*
X146140718Y-77978000D01*
X146261671Y-77905429D01*
X146564051Y-77905429D01*
X146745480Y-77978000D01*
X147773575Y-79356857D02*
X147652623Y-79429429D01*
X147410718Y-79429429D01*
X147289766Y-79356857D01*
X147229290Y-79211714D01*
X147229290Y-78631143D01*
X147289766Y-78486000D01*
X147410718Y-78413429D01*
X147652623Y-78413429D01*
X147773575Y-78486000D01*
X147834052Y-78631143D01*
X147834052Y-78776286D01*
X147229290Y-78921429D01*
X148378337Y-79429429D02*
X148378337Y-78413429D01*
X148378337Y-78703714D02*
X148438813Y-78558571D01*
X148499289Y-78486000D01*
X148620242Y-78413429D01*
X148741194Y-78413429D01*
X149708813Y-78413429D02*
X149708813Y-79647143D01*
X149648336Y-79792286D01*
X149587860Y-79864857D01*
X149466908Y-79937429D01*
X149285479Y-79937429D01*
X149164527Y-79864857D01*
X149708813Y-79356857D02*
X149587860Y-79429429D01*
X149345956Y-79429429D01*
X149225003Y-79356857D01*
X149164527Y-79284286D01*
X149104051Y-79139143D01*
X149104051Y-78703714D01*
X149164527Y-78558571D01*
X149225003Y-78486000D01*
X149345956Y-78413429D01*
X149587860Y-78413429D01*
X149708813Y-78486000D01*
X150797384Y-79356857D02*
X150676432Y-79429429D01*
X150434527Y-79429429D01*
X150313575Y-79356857D01*
X150253099Y-79211714D01*
X150253099Y-78631143D01*
X150313575Y-78486000D01*
X150434527Y-78413429D01*
X150676432Y-78413429D01*
X150797384Y-78486000D01*
X150857861Y-78631143D01*
X150857861Y-78776286D01*
X150253099Y-78921429D01*
X151281194Y-78413429D02*
X151583575Y-79429429D01*
X151885955Y-78413429D02*
X151583575Y-79429429D01*
X151462622Y-79792286D01*
X151402146Y-79864857D01*
X151281194Y-79937429D01*
X153337384Y-79429429D02*
X153337384Y-77905429D01*
X154063098Y-79429429D02*
X153518813Y-78558571D01*
X154063098Y-77905429D02*
X153337384Y-78776286D01*
X154607384Y-79429429D02*
X154607384Y-78413429D01*
X154607384Y-77905429D02*
X154546908Y-77978000D01*
X154607384Y-78050571D01*
X154667860Y-77978000D01*
X154607384Y-77905429D01*
X154607384Y-78050571D01*
X155151670Y-79356857D02*
X155272622Y-79429429D01*
X155514527Y-79429429D01*
X155635479Y-79356857D01*
X155695955Y-79211714D01*
X155695955Y-79139143D01*
X155635479Y-78994000D01*
X155514527Y-78921429D01*
X155333098Y-78921429D01*
X155212146Y-78848857D01*
X155151670Y-78703714D01*
X155151670Y-78631143D01*
X155212146Y-78486000D01*
X155333098Y-78413429D01*
X155514527Y-78413429D01*
X155635479Y-78486000D01*
X156724050Y-79356857D02*
X156603098Y-79429429D01*
X156361193Y-79429429D01*
X156240241Y-79356857D01*
X156179765Y-79211714D01*
X156179765Y-78631143D01*
X156240241Y-78486000D01*
X156361193Y-78413429D01*
X156603098Y-78413429D01*
X156724050Y-78486000D01*
X156784527Y-78631143D01*
X156784527Y-78776286D01*
X156179765Y-78921429D01*
X157510241Y-79429429D02*
X157389288Y-79356857D01*
X157328812Y-79211714D01*
X157328812Y-77905429D01*
X158477859Y-79356857D02*
X158356907Y-79429429D01*
X158115002Y-79429429D01*
X157994050Y-79356857D01*
X157933574Y-79211714D01*
X157933574Y-78631143D01*
X157994050Y-78486000D01*
X158115002Y-78413429D01*
X158356907Y-78413429D01*
X158477859Y-78486000D01*
X158538336Y-78631143D01*
X158538336Y-78776286D01*
X157933574Y-78921429D01*
X158961669Y-78413429D02*
X159264050Y-79429429D01*
X159566430Y-78413429D01*
D12*
X152632834Y-170728519D02*
X152759834Y-169712519D01*
X153213405Y-170728519D01*
X153340405Y-169712519D01*
X153679072Y-169712519D02*
X153890739Y-170728519D01*
X154356405Y-169712519D01*
X155148643Y-170728519D02*
X154870453Y-170244710D01*
X154568072Y-170728519D02*
X154695072Y-169712519D01*
X155082119Y-169712519D01*
X155172833Y-169760900D01*
X155215166Y-169809281D01*
X155251452Y-169906043D01*
X155233309Y-170051186D01*
X155172833Y-170147948D01*
X155118404Y-170196329D01*
X155015595Y-170244710D01*
X154628548Y-170244710D01*
X155571976Y-170438233D02*
X156055785Y-170438233D01*
X155438929Y-170728519D02*
X155904596Y-169712519D01*
X156116262Y-170728519D01*
X156454929Y-170728519D02*
X156581929Y-169712519D01*
X156829880Y-170438233D01*
X157259262Y-169712519D01*
X157132262Y-170728519D01*
X152844500Y-171923529D02*
X152983596Y-171971910D01*
X153025929Y-172020290D01*
X153062215Y-172117052D01*
X153044072Y-172262195D01*
X152983596Y-172358957D01*
X152929167Y-172407338D01*
X152826358Y-172455719D01*
X152439311Y-172455719D01*
X152566311Y-171439719D01*
X152904977Y-171439719D01*
X152995691Y-171488100D01*
X153038024Y-171536481D01*
X153074310Y-171633243D01*
X153062215Y-171730005D01*
X153001739Y-171826767D01*
X152947310Y-171875148D01*
X152844500Y-171923529D01*
X152505834Y-171923529D01*
X153890739Y-172455719D02*
X153957262Y-171923529D01*
X153920977Y-171826767D01*
X153830262Y-171778386D01*
X153636739Y-171778386D01*
X153533930Y-171826767D01*
X153896786Y-172407338D02*
X153793977Y-172455719D01*
X153552073Y-172455719D01*
X153461358Y-172407338D01*
X153425073Y-172310576D01*
X153437168Y-172213814D01*
X153497644Y-172117052D01*
X153600454Y-172068671D01*
X153842358Y-172068671D01*
X153945167Y-172020290D01*
X154314072Y-171778386D02*
X154701120Y-171778386D01*
X154501549Y-171439719D02*
X154392692Y-172310576D01*
X154428977Y-172407338D01*
X154519692Y-172455719D01*
X154616454Y-172455719D01*
X154894643Y-171778386D02*
X155281691Y-171778386D01*
X155082120Y-171439719D02*
X154973263Y-172310576D01*
X155009548Y-172407338D01*
X155100263Y-172455719D01*
X155197025Y-172455719D01*
X155928785Y-172407338D02*
X155825976Y-172455719D01*
X155632453Y-172455719D01*
X155541738Y-172407338D01*
X155505453Y-172310576D01*
X155553833Y-171923529D01*
X155614310Y-171826767D01*
X155717119Y-171778386D01*
X155910642Y-171778386D01*
X156001357Y-171826767D01*
X156037642Y-171923529D01*
X156025547Y-172020290D01*
X155529643Y-172117052D01*
X156406548Y-172455719D02*
X156491214Y-171778386D01*
X156467024Y-171971910D02*
X156527500Y-171875148D01*
X156581929Y-171826767D01*
X156684738Y-171778386D01*
X156781499Y-171778386D01*
X157023404Y-171778386D02*
X157180643Y-172455719D01*
X157507213Y-171778386D02*
X157180643Y-172455719D01*
X157053642Y-172697624D01*
X156999214Y-172746005D01*
X156896404Y-172794386D01*
D13*
X155822953Y-168665071D02*
X156597048Y-168665071D01*
X153282953Y-168665071D02*
X154057048Y-168665071D01*
X153670000Y-169052119D02*
X153670000Y-168278024D01*
X166370000Y-171450000D02*
X166370000Y-173990000D01*
X173990000Y-172085000D02*
X174625000Y-171450000D01*
X174625000Y-171450000D02*
X175895000Y-171450000D01*
X175895000Y-171450000D02*
X176530000Y-172085000D01*
X176530000Y-172085000D02*
X176530000Y-173355000D01*
X176530000Y-173355000D02*
X175895000Y-173990000D01*
X175895000Y-173990000D02*
X174625000Y-173990000D01*
X174625000Y-173990000D02*
X173990000Y-173355000D01*
X163830000Y-173990000D02*
X163830000Y-171450000D01*
X163830000Y-171450000D02*
X166370000Y-171450000D01*
X166370000Y-172085000D02*
X167005000Y-171450000D01*
X167005000Y-171450000D02*
X168275000Y-171450000D01*
X168275000Y-171450000D02*
X168910000Y-172085000D01*
X168910000Y-172085000D02*
X169545000Y-171450000D01*
X169545000Y-171450000D02*
X170815000Y-171450000D01*
X170815000Y-171450000D02*
X171450000Y-172085000D01*
X171450000Y-172085000D02*
X172085000Y-171450000D01*
X172085000Y-171450000D02*
X173355000Y-171450000D01*
X173355000Y-171450000D02*
X173990000Y-172085000D01*
X173990000Y-173355000D02*
X173355000Y-173990000D01*
X173355000Y-173990000D02*
X172085000Y-173990000D01*
X172085000Y-173990000D02*
X171450000Y-173355000D01*
X171450000Y-173355000D02*
X170815000Y-173990000D01*
X170815000Y-173990000D02*
X169545000Y-173990000D01*
X169545000Y-173990000D02*
X168910000Y-173355000D01*
X168910000Y-173355000D02*
X168275000Y-173990000D01*
X168275000Y-173990000D02*
X167005000Y-173990000D01*
X167005000Y-173990000D02*
X166370000Y-173355000D01*
X166370000Y-173990000D02*
X163830000Y-173990000D01*
X81280000Y-89916000D02*
G75*
G03X82296000Y-88900000I0J1016000D01*
G01*
X82296000Y-88900000D02*
G75*
G03X81280000Y-87884000I-1016000J0D01*
G01*
X81280000Y-82550000D02*
X134620000Y-82550000D01*
X134620000Y-82550000D02*
X134620000Y-95250000D01*
X134620000Y-95250000D02*
X81280000Y-95250000D01*
X81280000Y-95250000D02*
X81280000Y-82550000D01*
X81280000Y-161036000D02*
G75*
G03X82296000Y-160020000I0J1016000D01*
G01*
X82296000Y-160020000D02*
G75*
G03X81280000Y-159004000I-1016000J0D01*
G01*
X81280000Y-153670000D02*
X134620000Y-153670000D01*
X134620000Y-153670000D02*
X134620000Y-166370000D01*
X134620000Y-166370000D02*
X81280000Y-166370000D01*
X81280000Y-166370000D02*
X81280000Y-153670000D01*
X80518000Y-156464000D02*
X79502000Y-156464000D01*
X81026000Y-163068000D02*
X81026000Y-156972000D01*
X78994000Y-163068000D02*
X78994000Y-156972000D01*
X81026000Y-156972000D02*
G75*
G03X80518000Y-156464000I-508000J0D01*
G01*
X79502000Y-156464000D02*
G75*
G03X78994000Y-156972000I0J-508000D01*
G01*
X80518000Y-163576000D02*
G75*
G03X81026000Y-163068000I0J508000D01*
G01*
X78994000Y-163068000D02*
G75*
G03X79502000Y-163576000I508000J0D01*
G01*
X80518000Y-163576000D02*
X79502000Y-163576000D01*
X79502000Y-110236000D02*
X80518000Y-110236000D01*
X78994000Y-103632000D02*
X78994000Y-109728000D01*
X81026000Y-103632000D02*
X81026000Y-109728000D01*
X78994000Y-109728000D02*
G75*
G03X79502000Y-110236000I508000J0D01*
G01*
X80518000Y-110236000D02*
G75*
G03X81026000Y-109728000I0J508000D01*
G01*
X79502000Y-103124000D02*
G75*
G03X78994000Y-103632000I0J-508000D01*
G01*
X81026000Y-103632000D02*
G75*
G03X80518000Y-103124000I-508000J0D01*
G01*
X79502000Y-103124000D02*
X80518000Y-103124000D01*
X80518000Y-85344000D02*
X79502000Y-85344000D01*
X81026000Y-91948000D02*
X81026000Y-85852000D01*
X78994000Y-91948000D02*
X78994000Y-85852000D01*
X81026000Y-85852000D02*
G75*
G03X80518000Y-85344000I-508000J0D01*
G01*
X79502000Y-85344000D02*
G75*
G03X78994000Y-85852000I0J-508000D01*
G01*
X80518000Y-92456000D02*
G75*
G03X81026000Y-91948000I0J508000D01*
G01*
X78994000Y-91948000D02*
G75*
G03X79502000Y-92456000I508000J0D01*
G01*
X80518000Y-92456000D02*
X79502000Y-92456000D01*
X79502000Y-145796000D02*
X80518000Y-145796000D01*
X78994000Y-139192000D02*
X78994000Y-145288000D01*
X81026000Y-139192000D02*
X81026000Y-145288000D01*
X78994000Y-145288000D02*
G75*
G03X79502000Y-145796000I508000J0D01*
G01*
X80518000Y-145796000D02*
G75*
G03X81026000Y-145288000I0J508000D01*
G01*
X79502000Y-138684000D02*
G75*
G03X78994000Y-139192000I0J-508000D01*
G01*
X81026000Y-139192000D02*
G75*
G03X80518000Y-138684000I-508000J0D01*
G01*
X79502000Y-138684000D02*
X80518000Y-138684000D01*
X79502000Y-128016000D02*
X80518000Y-128016000D01*
X78994000Y-121412000D02*
X78994000Y-127508000D01*
X81026000Y-121412000D02*
X81026000Y-127508000D01*
X78994000Y-127508000D02*
G75*
G03X79502000Y-128016000I508000J0D01*
G01*
X80518000Y-128016000D02*
G75*
G03X81026000Y-127508000I0J508000D01*
G01*
X79502000Y-120904000D02*
G75*
G03X78994000Y-121412000I0J-508000D01*
G01*
X81026000Y-121412000D02*
G75*
G03X80518000Y-120904000I-508000J0D01*
G01*
X79502000Y-120904000D02*
X80518000Y-120904000D01*
X152654000Y-158242000D02*
X152654000Y-159258000D01*
X159258000Y-157734000D02*
X153162000Y-157734000D01*
X159258000Y-159766000D02*
X153162000Y-159766000D01*
X153162000Y-157734000D02*
G75*
G03X152654000Y-158242000I0J-508000D01*
G01*
X152654000Y-159258000D02*
G75*
G03X153162000Y-159766000I508000J0D01*
G01*
X159766000Y-158242000D02*
G75*
G03X159258000Y-157734000I-508000J0D01*
G01*
X159258000Y-159766000D02*
G75*
G03X159766000Y-159258000I0J508000D01*
G01*
X159766000Y-158242000D02*
X159766000Y-159258000D01*
X135382000Y-101346000D02*
X136398000Y-101346000D01*
X134874000Y-94742000D02*
X134874000Y-100838000D01*
X136906000Y-94742000D02*
X136906000Y-100838000D01*
X134874000Y-100838000D02*
G75*
G03X135382000Y-101346000I508000J0D01*
G01*
X136398000Y-101346000D02*
G75*
G03X136906000Y-100838000I0J508000D01*
G01*
X135382000Y-94234000D02*
G75*
G03X134874000Y-94742000I0J-508000D01*
G01*
X136906000Y-94742000D02*
G75*
G03X136398000Y-94234000I-508000J0D01*
G01*
X135382000Y-94234000D02*
X136398000Y-94234000D01*
X135382000Y-88646000D02*
X136398000Y-88646000D01*
X134874000Y-82042000D02*
X134874000Y-88138000D01*
X136906000Y-82042000D02*
X136906000Y-88138000D01*
X134874000Y-88138000D02*
G75*
G03X135382000Y-88646000I508000J0D01*
G01*
X136398000Y-88646000D02*
G75*
G03X136906000Y-88138000I0J508000D01*
G01*
X135382000Y-81534000D02*
G75*
G03X134874000Y-82042000I0J-508000D01*
G01*
X136906000Y-82042000D02*
G75*
G03X136398000Y-81534000I-508000J0D01*
G01*
X135382000Y-81534000D02*
X136398000Y-81534000D01*
X125222000Y-124206000D02*
X126238000Y-124206000D01*
X124714000Y-117602000D02*
X124714000Y-123698000D01*
X126746000Y-117602000D02*
X126746000Y-123698000D01*
X124714000Y-123698000D02*
G75*
G03X125222000Y-124206000I508000J0D01*
G01*
X126238000Y-124206000D02*
G75*
G03X126746000Y-123698000I0J508000D01*
G01*
X125222000Y-117094000D02*
G75*
G03X124714000Y-117602000I0J-508000D01*
G01*
X126746000Y-117602000D02*
G75*
G03X126238000Y-117094000I-508000J0D01*
G01*
X125222000Y-117094000D02*
X126238000Y-117094000D01*
X125222000Y-149606000D02*
X126238000Y-149606000D01*
X124714000Y-143002000D02*
X124714000Y-149098000D01*
X126746000Y-143002000D02*
X126746000Y-149098000D01*
X124714000Y-149098000D02*
G75*
G03X125222000Y-149606000I508000J0D01*
G01*
X126238000Y-149606000D02*
G75*
G03X126746000Y-149098000I0J508000D01*
G01*
X125222000Y-142494000D02*
G75*
G03X124714000Y-143002000I0J-508000D01*
G01*
X126746000Y-143002000D02*
G75*
G03X126238000Y-142494000I-508000J0D01*
G01*
X125222000Y-142494000D02*
X126238000Y-142494000D01*
X125222000Y-136906000D02*
X126238000Y-136906000D01*
X124714000Y-130302000D02*
X124714000Y-136398000D01*
X126746000Y-130302000D02*
X126746000Y-136398000D01*
X124714000Y-136398000D02*
G75*
G03X125222000Y-136906000I508000J0D01*
G01*
X126238000Y-136906000D02*
G75*
G03X126746000Y-136398000I0J508000D01*
G01*
X125222000Y-129794000D02*
G75*
G03X124714000Y-130302000I0J-508000D01*
G01*
X126746000Y-130302000D02*
G75*
G03X126238000Y-129794000I-508000J0D01*
G01*
X125222000Y-129794000D02*
X126238000Y-129794000D01*
X137922000Y-114046000D02*
X138938000Y-114046000D01*
X137414000Y-107442000D02*
X137414000Y-113538000D01*
X139446000Y-107442000D02*
X139446000Y-113538000D01*
X137414000Y-113538000D02*
G75*
G03X137922000Y-114046000I508000J0D01*
G01*
X138938000Y-114046000D02*
G75*
G03X139446000Y-113538000I0J508000D01*
G01*
X137922000Y-106934000D02*
G75*
G03X137414000Y-107442000I0J-508000D01*
G01*
X139446000Y-107442000D02*
G75*
G03X138938000Y-106934000I-508000J0D01*
G01*
X137922000Y-106934000D02*
X138938000Y-106934000D01*
X145796000Y-152908000D02*
X145796000Y-151892000D01*
X139192000Y-153416000D02*
X145288000Y-153416000D01*
X139192000Y-151384000D02*
X145288000Y-151384000D01*
X145288000Y-153416000D02*
G75*
G03X145796000Y-152908000I0J508000D01*
G01*
X145796000Y-151892000D02*
G75*
G03X145288000Y-151384000I-508000J0D01*
G01*
X138684000Y-152908000D02*
G75*
G03X139192000Y-153416000I508000J0D01*
G01*
X139192000Y-151384000D02*
G75*
G03X138684000Y-151892000I0J-508000D01*
G01*
X138684000Y-152908000D02*
X138684000Y-151892000D01*
X130556000Y-99568000D02*
X130556000Y-98552000D01*
X123952000Y-100076000D02*
X130048000Y-100076000D01*
X123952000Y-98044000D02*
X130048000Y-98044000D01*
X130048000Y-100076000D02*
G75*
G03X130556000Y-99568000I0J508000D01*
G01*
X130556000Y-98552000D02*
G75*
G03X130048000Y-98044000I-508000J0D01*
G01*
X123444000Y-99568000D02*
G75*
G03X123952000Y-100076000I508000J0D01*
G01*
X123952000Y-98044000D02*
G75*
G03X123444000Y-98552000I0J-508000D01*
G01*
X123444000Y-99568000D02*
X123444000Y-98552000D01*
X168148000Y-161544000D02*
X167132000Y-161544000D01*
X168656000Y-168148000D02*
X168656000Y-162052000D01*
X166624000Y-168148000D02*
X166624000Y-162052000D01*
X168656000Y-162052000D02*
G75*
G03X168148000Y-161544000I-508000J0D01*
G01*
X167132000Y-161544000D02*
G75*
G03X166624000Y-162052000I0J-508000D01*
G01*
X168148000Y-168656000D02*
G75*
G03X168656000Y-168148000I0J508000D01*
G01*
X166624000Y-168148000D02*
G75*
G03X167132000Y-168656000I508000J0D01*
G01*
X168148000Y-168656000D02*
X167132000Y-168656000D01*
X138684000Y-103632000D02*
X138684000Y-104648000D01*
X145288000Y-103124000D02*
X139192000Y-103124000D01*
X145288000Y-105156000D02*
X139192000Y-105156000D01*
X139192000Y-103124000D02*
G75*
G03X138684000Y-103632000I0J-508000D01*
G01*
X138684000Y-104648000D02*
G75*
G03X139192000Y-105156000I508000J0D01*
G01*
X145796000Y-103632000D02*
G75*
G03X145288000Y-103124000I-508000J0D01*
G01*
X145288000Y-105156000D02*
G75*
G03X145796000Y-104648000I0J508000D01*
G01*
X145796000Y-103632000D02*
X145796000Y-104648000D01*
X138938000Y-94234000D02*
X137922000Y-94234000D01*
X139446000Y-100838000D02*
X139446000Y-94742000D01*
X137414000Y-100838000D02*
X137414000Y-94742000D01*
X139446000Y-94742000D02*
G75*
G03X138938000Y-94234000I-508000J0D01*
G01*
X137922000Y-94234000D02*
G75*
G03X137414000Y-94742000I0J-508000D01*
G01*
X138938000Y-101346000D02*
G75*
G03X139446000Y-100838000I0J508000D01*
G01*
X137414000Y-100838000D02*
G75*
G03X137922000Y-101346000I508000J0D01*
G01*
X138938000Y-101346000D02*
X137922000Y-101346000D01*
X146304000Y-103632000D02*
X146304000Y-104648000D01*
X152908000Y-103124000D02*
X146812000Y-103124000D01*
X152908000Y-105156000D02*
X146812000Y-105156000D01*
X146812000Y-103124000D02*
G75*
G03X146304000Y-103632000I0J-508000D01*
G01*
X146304000Y-104648000D02*
G75*
G03X146812000Y-105156000I508000J0D01*
G01*
X153416000Y-103632000D02*
G75*
G03X152908000Y-103124000I-508000J0D01*
G01*
X152908000Y-105156000D02*
G75*
G03X153416000Y-104648000I0J508000D01*
G01*
X153416000Y-103632000D02*
X153416000Y-104648000D01*
X161036000Y-104648000D02*
X161036000Y-103632000D01*
X154432000Y-105156000D02*
X160528000Y-105156000D01*
X154432000Y-103124000D02*
X160528000Y-103124000D01*
X160528000Y-105156000D02*
G75*
G03X161036000Y-104648000I0J508000D01*
G01*
X161036000Y-103632000D02*
G75*
G03X160528000Y-103124000I-508000J0D01*
G01*
X153924000Y-104648000D02*
G75*
G03X154432000Y-105156000I508000J0D01*
G01*
X154432000Y-103124000D02*
G75*
G03X153924000Y-103632000I0J-508000D01*
G01*
X153924000Y-104648000D02*
X153924000Y-103632000D01*
X138684000Y-90932000D02*
X138684000Y-91948000D01*
X145288000Y-90424000D02*
X139192000Y-90424000D01*
X145288000Y-92456000D02*
X139192000Y-92456000D01*
X139192000Y-90424000D02*
G75*
G03X138684000Y-90932000I0J-508000D01*
G01*
X138684000Y-91948000D02*
G75*
G03X139192000Y-92456000I508000J0D01*
G01*
X145796000Y-90932000D02*
G75*
G03X145288000Y-90424000I-508000J0D01*
G01*
X145288000Y-92456000D02*
G75*
G03X145796000Y-91948000I0J508000D01*
G01*
X145796000Y-90932000D02*
X145796000Y-91948000D01*
X138938000Y-81534000D02*
X137922000Y-81534000D01*
X139446000Y-88138000D02*
X139446000Y-82042000D01*
X137414000Y-88138000D02*
X137414000Y-82042000D01*
X139446000Y-82042000D02*
G75*
G03X138938000Y-81534000I-508000J0D01*
G01*
X137922000Y-81534000D02*
G75*
G03X137414000Y-82042000I0J-508000D01*
G01*
X138938000Y-88646000D02*
G75*
G03X139446000Y-88138000I0J508000D01*
G01*
X137414000Y-88138000D02*
G75*
G03X137922000Y-88646000I508000J0D01*
G01*
X138938000Y-88646000D02*
X137922000Y-88646000D01*
X146304000Y-90932000D02*
X146304000Y-91948000D01*
X152908000Y-90424000D02*
X146812000Y-90424000D01*
X152908000Y-92456000D02*
X146812000Y-92456000D01*
X146812000Y-90424000D02*
G75*
G03X146304000Y-90932000I0J-508000D01*
G01*
X146304000Y-91948000D02*
G75*
G03X146812000Y-92456000I508000J0D01*
G01*
X153416000Y-90932000D02*
G75*
G03X152908000Y-90424000I-508000J0D01*
G01*
X152908000Y-92456000D02*
G75*
G03X153416000Y-91948000I0J508000D01*
G01*
X153416000Y-90932000D02*
X153416000Y-91948000D01*
X161036000Y-91948000D02*
X161036000Y-90932000D01*
X154432000Y-92456000D02*
X160528000Y-92456000D01*
X154432000Y-90424000D02*
X160528000Y-90424000D01*
X160528000Y-92456000D02*
G75*
G03X161036000Y-91948000I0J508000D01*
G01*
X161036000Y-90932000D02*
G75*
G03X160528000Y-90424000I-508000J0D01*
G01*
X153924000Y-91948000D02*
G75*
G03X154432000Y-92456000I508000J0D01*
G01*
X154432000Y-90424000D02*
G75*
G03X153924000Y-90932000I0J-508000D01*
G01*
X153924000Y-91948000D02*
X153924000Y-90932000D01*
X165710000Y-162560000D02*
G75*
G03X165710000Y-162560000I-3150000J0D01*
G01*
X142875000Y-173990000D02*
X143510000Y-173355000D01*
X141605000Y-173990000D02*
X142875000Y-173990000D01*
X140970000Y-173355000D02*
X141605000Y-173990000D01*
X140970000Y-173355000D02*
X140335000Y-173990000D01*
X140335000Y-173990000D02*
X139065000Y-173990000D01*
X139065000Y-173990000D02*
X138430000Y-173355000D01*
X141605000Y-171450000D02*
X142875000Y-171450000D01*
X142875000Y-171450000D02*
X143510000Y-172085000D01*
X140970000Y-172085000D02*
X141605000Y-171450000D01*
X138430000Y-172085000D02*
X139065000Y-171450000D01*
X139065000Y-171450000D02*
X140335000Y-171450000D01*
X140335000Y-171450000D02*
X140970000Y-172085000D01*
X133985000Y-173990000D02*
X133350000Y-173355000D01*
X135255000Y-173990000D02*
X133985000Y-173990000D01*
X135890000Y-173355000D02*
X135255000Y-173990000D01*
X135890000Y-173355000D02*
X136525000Y-173990000D01*
X136525000Y-173990000D02*
X137795000Y-173990000D01*
X137795000Y-173990000D02*
X138430000Y-173355000D01*
X135255000Y-171450000D02*
X135890000Y-172085000D01*
X133985000Y-171450000D02*
X135255000Y-171450000D01*
X133350000Y-172085000D02*
X133985000Y-171450000D01*
X135890000Y-172085000D02*
X136525000Y-171450000D01*
X137795000Y-171450000D02*
X138430000Y-172085000D01*
X136525000Y-171450000D02*
X137795000Y-171450000D01*
X132715000Y-173990000D02*
X133350000Y-173355000D01*
X131445000Y-173990000D02*
X132715000Y-173990000D01*
X130810000Y-173355000D02*
X131445000Y-173990000D01*
X131445000Y-171450000D02*
X132715000Y-171450000D01*
X132715000Y-171450000D02*
X133350000Y-172085000D01*
X130810000Y-172085000D02*
X131445000Y-171450000D01*
X120650000Y-171450000D02*
X120650000Y-173990000D01*
X128270000Y-172085000D02*
X128905000Y-171450000D01*
X128905000Y-171450000D02*
X130175000Y-171450000D01*
X130175000Y-171450000D02*
X130810000Y-172085000D01*
X143510000Y-172085000D02*
X143510000Y-173355000D01*
X130810000Y-173355000D02*
X130175000Y-173990000D01*
X130175000Y-173990000D02*
X128905000Y-173990000D01*
X128905000Y-173990000D02*
X128270000Y-173355000D01*
X118110000Y-173990000D02*
X118110000Y-171450000D01*
X118110000Y-171450000D02*
X120650000Y-171450000D01*
X120650000Y-172085000D02*
X121285000Y-171450000D01*
X121285000Y-171450000D02*
X122555000Y-171450000D01*
X122555000Y-171450000D02*
X123190000Y-172085000D01*
X123190000Y-172085000D02*
X123825000Y-171450000D01*
X123825000Y-171450000D02*
X125095000Y-171450000D01*
X125095000Y-171450000D02*
X125730000Y-172085000D01*
X125730000Y-172085000D02*
X126365000Y-171450000D01*
X126365000Y-171450000D02*
X127635000Y-171450000D01*
X127635000Y-171450000D02*
X128270000Y-172085000D01*
X128270000Y-173355000D02*
X127635000Y-173990000D01*
X127635000Y-173990000D02*
X126365000Y-173990000D01*
X126365000Y-173990000D02*
X125730000Y-173355000D01*
X125730000Y-173355000D02*
X125095000Y-173990000D01*
X125095000Y-173990000D02*
X123825000Y-173990000D01*
X123825000Y-173990000D02*
X123190000Y-173355000D01*
X123190000Y-173355000D02*
X122555000Y-173990000D01*
X122555000Y-173990000D02*
X121285000Y-173990000D01*
X121285000Y-173990000D02*
X120650000Y-173355000D01*
X120650000Y-173990000D02*
X118110000Y-173990000D01*
X182816500Y-138049000D02*
X176847500Y-138049000D01*
X176847500Y-121031000D02*
X182816500Y-121031000D01*
X182816500Y-121031000D02*
X182816500Y-138049000D01*
X164147500Y-114046000D02*
X176847500Y-114046000D01*
X176847500Y-114046000D02*
X176847500Y-145034000D01*
X176847500Y-145034000D02*
X164147500Y-145034000D01*
X164147500Y-114046000D02*
X164147500Y-145034000D01*
X182816500Y-102489000D02*
X176847500Y-102489000D01*
X176847500Y-85471000D02*
X182816500Y-85471000D01*
X182816500Y-85471000D02*
X182816500Y-102489000D01*
X164147500Y-78486000D02*
X176847500Y-78486000D01*
X176847500Y-78486000D02*
X176847500Y-109474000D01*
X176847500Y-109474000D02*
X164147500Y-109474000D01*
X164147500Y-78486000D02*
X164147500Y-109474000D01*
X176921160Y-158170880D02*
X176921160Y-149169120D01*
X180418740Y-158170880D02*
X165920420Y-158170880D01*
X165920420Y-158170880D02*
X165920420Y-149169120D01*
X165920420Y-149169120D02*
X180418740Y-149169120D01*
X180418740Y-149169120D02*
X180418740Y-158170880D01*
X137160000Y-161290000D02*
G75*
G03X137160000Y-158750000I0J1270000D01*
G01*
X149225000Y-166370000D02*
G75*
G03X149860000Y-165735000I0J635000D01*
G01*
X149860000Y-154305000D02*
G75*
G03X149225000Y-153670000I-635000J0D01*
G01*
X137795000Y-153670000D02*
G75*
G03X137160000Y-154305000I0J-635000D01*
G01*
X137795000Y-153670000D02*
X149225000Y-153670000D01*
X149860000Y-165735000D02*
X149860000Y-154305000D01*
X149225000Y-166370000D02*
X137160000Y-166370000D01*
X137160000Y-154305000D02*
X137160000Y-166370000D01*
X121920000Y-107950000D02*
G75*
G03X121920000Y-105410000I0J1270000D01*
G01*
X133985000Y-113030000D02*
G75*
G03X134620000Y-112395000I0J635000D01*
G01*
X134620000Y-100965000D02*
G75*
G03X133985000Y-100330000I-635000J0D01*
G01*
X122555000Y-100330000D02*
G75*
G03X121920000Y-100965000I0J-635000D01*
G01*
X122555000Y-100330000D02*
X133985000Y-100330000D01*
X134620000Y-112395000D02*
X134620000Y-100965000D01*
X133985000Y-113030000D02*
X121920000Y-113030000D01*
X121920000Y-100965000D02*
X121920000Y-113030000D01*
X152709880Y-134109460D02*
X152709880Y-127510540D01*
X152709880Y-127510540D02*
X159710120Y-127510540D01*
X159710120Y-127510540D02*
X159710120Y-134109460D01*
X159710120Y-134109460D02*
X152709880Y-134109460D01*
X174117000Y-162869880D02*
X174117000Y-169870120D01*
X176616360Y-164619940D02*
X176616360Y-168120060D01*
X176616360Y-169870120D02*
X170367960Y-169870120D01*
X176616360Y-162869880D02*
X170367960Y-162869880D01*
X176616360Y-169120820D02*
X176616360Y-169870120D01*
X176616360Y-163619180D02*
X176616360Y-162869880D01*
X176616360Y-168120060D02*
X176616360Y-169120820D01*
X176616360Y-164619940D02*
X176616360Y-163619180D01*
X176616360Y-168120060D02*
X178117500Y-168120060D01*
X178117500Y-168120060D02*
X178117500Y-167871140D01*
X178117500Y-164619940D02*
X176616360Y-164619940D01*
X178117500Y-164619940D02*
X178117500Y-167871140D01*
X80518000Y-107696000D02*
G75*
G03X81534000Y-106680000I0J1016000D01*
G01*
X81534000Y-106680000D02*
G75*
G03X80518000Y-105664000I-1016000J0D01*
G01*
X80518000Y-100330000D02*
X120142000Y-100330000D01*
X120142000Y-100330000D02*
X120142000Y-113030000D01*
X120142000Y-113030000D02*
X80518000Y-113030000D01*
X80518000Y-113030000D02*
X80518000Y-100330000D01*
X81534000Y-143256000D02*
G75*
G03X82550000Y-142240000I0J1016000D01*
G01*
X82550000Y-142240000D02*
G75*
G03X81534000Y-141224000I-1016000J0D01*
G01*
X81534000Y-135890000D02*
X124206000Y-135890000D01*
X124206000Y-135890000D02*
X124206000Y-148590000D01*
X124206000Y-148590000D02*
X81534000Y-148590000D01*
X81534000Y-148590000D02*
X81534000Y-135890000D01*
X81534000Y-125476000D02*
G75*
G03X82550000Y-124460000I0J1016000D01*
G01*
X82550000Y-124460000D02*
G75*
G03X81534000Y-123444000I-1016000J0D01*
G01*
X81534000Y-118110000D02*
X124206000Y-118110000D01*
X124206000Y-118110000D02*
X124206000Y-130810000D01*
X124206000Y-130810000D02*
X81534000Y-130810000D01*
X81534000Y-130810000D02*
X81534000Y-118110000D01*
X157226000Y-156718000D02*
G75*
G03X156210000Y-155702000I-1016000J0D01*
G01*
X156210000Y-155702000D02*
G75*
G03X155194000Y-156718000I0J-1016000D01*
G01*
X153670000Y-156718000D02*
X153670000Y-135382000D01*
X153670000Y-135382000D02*
X158750000Y-135382000D01*
X158750000Y-135382000D02*
X158750000Y-156718000D01*
X158750000Y-156718000D02*
X153670000Y-156718000D01*
X140462000Y-98806000D02*
G75*
G03X141478000Y-97790000I0J1016000D01*
G01*
X141478000Y-97790000D02*
G75*
G03X140462000Y-96774000I-1016000J0D01*
G01*
X140462000Y-95250000D02*
X161798000Y-95250000D01*
X161798000Y-95250000D02*
X161798000Y-100330000D01*
X161798000Y-100330000D02*
X140462000Y-100330000D01*
X140462000Y-100330000D02*
X140462000Y-95250000D01*
X140462000Y-86106000D02*
G75*
G03X141478000Y-85090000I0J1016000D01*
G01*
X141478000Y-85090000D02*
G75*
G03X140462000Y-84074000I-1016000J0D01*
G01*
X140462000Y-82550000D02*
X161798000Y-82550000D01*
X161798000Y-82550000D02*
X161798000Y-87630000D01*
X161798000Y-87630000D02*
X140462000Y-87630000D01*
X140462000Y-87630000D02*
X140462000Y-82550000D01*
X127508000Y-121666000D02*
G75*
G03X128524000Y-120650000I0J1016000D01*
G01*
X128524000Y-120650000D02*
G75*
G03X127508000Y-119634000I-1016000J0D01*
G01*
X127508000Y-118110000D02*
X154432000Y-118110000D01*
X154432000Y-118110000D02*
X154432000Y-123190000D01*
X154432000Y-123190000D02*
X127508000Y-123190000D01*
X127508000Y-123190000D02*
X127508000Y-118110000D01*
X127762000Y-147066000D02*
G75*
G03X128778000Y-146050000I0J1016000D01*
G01*
X128778000Y-146050000D02*
G75*
G03X127762000Y-145034000I-1016000J0D01*
G01*
X127762000Y-143510000D02*
X149098000Y-143510000D01*
X149098000Y-143510000D02*
X149098000Y-148590000D01*
X149098000Y-148590000D02*
X127762000Y-148590000D01*
X127762000Y-148590000D02*
X127762000Y-143510000D01*
X127762000Y-134366000D02*
G75*
G03X128778000Y-133350000I0J1016000D01*
G01*
X128778000Y-133350000D02*
G75*
G03X127762000Y-132334000I-1016000J0D01*
G01*
X127762000Y-130810000D02*
X149098000Y-130810000D01*
X149098000Y-130810000D02*
X149098000Y-135890000D01*
X149098000Y-135890000D02*
X127762000Y-135890000D01*
X127762000Y-135890000D02*
X127762000Y-130810000D01*
X139700000Y-111506000D02*
G75*
G03X140716000Y-110490000I0J1016000D01*
G01*
X140716000Y-110490000D02*
G75*
G03X139700000Y-109474000I-1016000J0D01*
G01*
X160020000Y-107950000D02*
X139700000Y-107950000D01*
X139700000Y-107950000D02*
X139700000Y-113030000D01*
X139700000Y-113030000D02*
X160020000Y-113030000D01*
X160020000Y-113030000D02*
X160020000Y-107950000D01*
X153670000Y-161925000D02*
X153670000Y-163195000D01*
X153670000Y-163195000D02*
X156210000Y-163195000D01*
X156210000Y-163195000D02*
X156210000Y-161925000D01*
X157480000Y-167640000D02*
X157480000Y-161925000D01*
X157480000Y-161925000D02*
X152400000Y-161925000D01*
X152400000Y-161925000D02*
X152400000Y-167640000D01*
X157480000Y-167640000D02*
X152400000Y-167640000D01*
X158496000Y-118110000D02*
X158496000Y-123190000D01*
X156718000Y-117856000D02*
X158242000Y-117856000D01*
X156464000Y-123190000D02*
X156464000Y-118110000D01*
X158242000Y-123444000D02*
X156718000Y-123444000D01*
X158496000Y-118110000D02*
G75*
G03X158242000Y-117856000I-254000J0D01*
G01*
X156718000Y-117856000D02*
G75*
G03X156464000Y-118110000I0J-254000D01*
G01*
X158242000Y-123444000D02*
G75*
G03X158496000Y-123190000I0J254000D01*
G01*
X156464000Y-123190000D02*
G75*
G03X156718000Y-123444000I254000J0D01*
G01*
X157480000Y-117856000D02*
X157480000Y-116840000D01*
X157480000Y-124460000D02*
X157480000Y-123444000D01*
X161036000Y-118110000D02*
X161036000Y-123190000D01*
X159258000Y-117856000D02*
X160782000Y-117856000D01*
X159004000Y-123190000D02*
X159004000Y-118110000D01*
X160782000Y-123444000D02*
X159258000Y-123444000D01*
X161036000Y-118110000D02*
G75*
G03X160782000Y-117856000I-254000J0D01*
G01*
X159258000Y-117856000D02*
G75*
G03X159004000Y-118110000I0J-254000D01*
G01*
X160782000Y-123444000D02*
G75*
G03X161036000Y-123190000I0J254000D01*
G01*
X159004000Y-123190000D02*
G75*
G03X159258000Y-123444000I254000J0D01*
G01*
X160020000Y-117856000D02*
X160020000Y-116840000D01*
X160020000Y-124460000D02*
X160020000Y-123444000D01*
X172085000Y-173990000D02*
X173355000Y-173990000D01*
X173355000Y-173990000D02*
X173990000Y-174625000D01*
X171450000Y-174625000D02*
X172085000Y-173990000D01*
X173355000Y-176530000D02*
X173990000Y-175895000D01*
X172085000Y-176530000D02*
X173355000Y-176530000D01*
X171450000Y-175895000D02*
X172085000Y-176530000D01*
X167005000Y-173990000D02*
X168275000Y-173990000D01*
X168275000Y-173990000D02*
X168910000Y-174625000D01*
X166370000Y-174625000D02*
X167005000Y-173990000D01*
X168275000Y-176530000D02*
X168910000Y-175895000D01*
X167005000Y-176530000D02*
X168275000Y-176530000D01*
X166370000Y-175895000D02*
X167005000Y-176530000D01*
X170815000Y-173990000D02*
X171450000Y-174625000D01*
X169545000Y-173990000D02*
X170815000Y-173990000D01*
X168910000Y-174625000D02*
X169545000Y-173990000D01*
X169545000Y-176530000D02*
X168910000Y-175895000D01*
X170815000Y-176530000D02*
X169545000Y-176530000D01*
X171450000Y-175895000D02*
X170815000Y-176530000D01*
X161925000Y-173990000D02*
X163195000Y-173990000D01*
X163195000Y-173990000D02*
X163830000Y-174625000D01*
X161290000Y-174625000D02*
X161925000Y-173990000D01*
X163195000Y-176530000D02*
X163830000Y-175895000D01*
X161925000Y-176530000D02*
X163195000Y-176530000D01*
X161290000Y-175895000D02*
X161925000Y-176530000D01*
X165735000Y-173990000D02*
X166370000Y-174625000D01*
X164465000Y-173990000D02*
X165735000Y-173990000D01*
X163830000Y-174625000D02*
X164465000Y-173990000D01*
X164465000Y-176530000D02*
X163830000Y-175895000D01*
X165735000Y-176530000D02*
X164465000Y-176530000D01*
X166370000Y-175895000D02*
X165735000Y-176530000D01*
X156845000Y-173990000D02*
X158115000Y-173990000D01*
X158115000Y-173990000D02*
X158750000Y-174625000D01*
X156210000Y-174625000D02*
X156845000Y-173990000D01*
X158115000Y-176530000D02*
X158750000Y-175895000D01*
X156845000Y-176530000D02*
X158115000Y-176530000D01*
X156210000Y-175895000D02*
X156845000Y-176530000D01*
X160655000Y-173990000D02*
X161290000Y-174625000D01*
X159385000Y-173990000D02*
X160655000Y-173990000D01*
X158750000Y-174625000D02*
X159385000Y-173990000D01*
X159385000Y-176530000D02*
X158750000Y-175895000D01*
X160655000Y-176530000D02*
X159385000Y-176530000D01*
X161290000Y-175895000D02*
X160655000Y-176530000D01*
X151765000Y-173990000D02*
X153035000Y-173990000D01*
X153035000Y-173990000D02*
X153670000Y-174625000D01*
X151130000Y-174625000D02*
X151765000Y-173990000D01*
X153035000Y-176530000D02*
X153670000Y-175895000D01*
X151765000Y-176530000D02*
X153035000Y-176530000D01*
X151130000Y-175895000D02*
X151765000Y-176530000D01*
X155575000Y-173990000D02*
X156210000Y-174625000D01*
X154305000Y-173990000D02*
X155575000Y-173990000D01*
X153670000Y-174625000D02*
X154305000Y-173990000D01*
X154305000Y-176530000D02*
X153670000Y-175895000D01*
X155575000Y-176530000D02*
X154305000Y-176530000D01*
X156210000Y-175895000D02*
X155575000Y-176530000D01*
X146685000Y-173990000D02*
X147955000Y-173990000D01*
X147955000Y-173990000D02*
X148590000Y-174625000D01*
X146050000Y-174625000D02*
X146685000Y-173990000D01*
X147955000Y-176530000D02*
X148590000Y-175895000D01*
X146685000Y-176530000D02*
X147955000Y-176530000D01*
X146050000Y-175895000D02*
X146685000Y-176530000D01*
X150495000Y-173990000D02*
X151130000Y-174625000D01*
X149225000Y-173990000D02*
X150495000Y-173990000D01*
X148590000Y-174625000D02*
X149225000Y-173990000D01*
X149225000Y-176530000D02*
X148590000Y-175895000D01*
X150495000Y-176530000D02*
X149225000Y-176530000D01*
X151130000Y-175895000D02*
X150495000Y-176530000D01*
X141605000Y-173990000D02*
X142875000Y-173990000D01*
X142875000Y-173990000D02*
X143510000Y-174625000D01*
X140970000Y-174625000D02*
X141605000Y-173990000D01*
X142875000Y-176530000D02*
X143510000Y-175895000D01*
X141605000Y-176530000D02*
X142875000Y-176530000D01*
X140970000Y-175895000D02*
X141605000Y-176530000D01*
X145415000Y-173990000D02*
X146050000Y-174625000D01*
X144145000Y-173990000D02*
X145415000Y-173990000D01*
X143510000Y-174625000D02*
X144145000Y-173990000D01*
X144145000Y-176530000D02*
X143510000Y-175895000D01*
X145415000Y-176530000D02*
X144145000Y-176530000D01*
X146050000Y-175895000D02*
X145415000Y-176530000D01*
X136525000Y-173990000D02*
X137795000Y-173990000D01*
X137795000Y-173990000D02*
X138430000Y-174625000D01*
X135890000Y-174625000D02*
X136525000Y-173990000D01*
X137795000Y-176530000D02*
X138430000Y-175895000D01*
X136525000Y-176530000D02*
X137795000Y-176530000D01*
X135890000Y-175895000D02*
X136525000Y-176530000D01*
X140335000Y-173990000D02*
X140970000Y-174625000D01*
X139065000Y-173990000D02*
X140335000Y-173990000D01*
X138430000Y-174625000D02*
X139065000Y-173990000D01*
X139065000Y-176530000D02*
X138430000Y-175895000D01*
X140335000Y-176530000D02*
X139065000Y-176530000D01*
X140970000Y-175895000D02*
X140335000Y-176530000D01*
X131445000Y-173990000D02*
X132715000Y-173990000D01*
X132715000Y-173990000D02*
X133350000Y-174625000D01*
X130810000Y-174625000D02*
X131445000Y-173990000D01*
X132715000Y-176530000D02*
X133350000Y-175895000D01*
X131445000Y-176530000D02*
X132715000Y-176530000D01*
X130810000Y-175895000D02*
X131445000Y-176530000D01*
X135255000Y-173990000D02*
X135890000Y-174625000D01*
X133985000Y-173990000D02*
X135255000Y-173990000D01*
X133350000Y-174625000D02*
X133985000Y-173990000D01*
X133985000Y-176530000D02*
X133350000Y-175895000D01*
X135255000Y-176530000D02*
X133985000Y-176530000D01*
X135890000Y-175895000D02*
X135255000Y-176530000D01*
X126365000Y-173990000D02*
X127635000Y-173990000D01*
X127635000Y-173990000D02*
X128270000Y-174625000D01*
X125730000Y-174625000D02*
X126365000Y-173990000D01*
X127635000Y-176530000D02*
X128270000Y-175895000D01*
X126365000Y-176530000D02*
X127635000Y-176530000D01*
X125730000Y-175895000D02*
X126365000Y-176530000D01*
X130175000Y-173990000D02*
X130810000Y-174625000D01*
X128905000Y-173990000D02*
X130175000Y-173990000D01*
X128270000Y-174625000D02*
X128905000Y-173990000D01*
X128905000Y-176530000D02*
X128270000Y-175895000D01*
X130175000Y-176530000D02*
X128905000Y-176530000D01*
X130810000Y-175895000D02*
X130175000Y-176530000D01*
X121285000Y-173990000D02*
X122555000Y-173990000D01*
X122555000Y-173990000D02*
X123190000Y-174625000D01*
X120650000Y-174625000D02*
X121285000Y-173990000D01*
X122555000Y-176530000D02*
X123190000Y-175895000D01*
X121285000Y-176530000D02*
X122555000Y-176530000D01*
X120650000Y-175895000D02*
X121285000Y-176530000D01*
X125095000Y-173990000D02*
X125730000Y-174625000D01*
X123825000Y-173990000D02*
X125095000Y-173990000D01*
X123190000Y-174625000D02*
X123825000Y-173990000D01*
X123825000Y-176530000D02*
X123190000Y-175895000D01*
X125095000Y-176530000D02*
X123825000Y-176530000D01*
X125730000Y-175895000D02*
X125095000Y-176530000D01*
X116205000Y-173990000D02*
X117475000Y-173990000D01*
X117475000Y-173990000D02*
X118110000Y-174625000D01*
X115570000Y-174625000D02*
X116205000Y-173990000D01*
X117475000Y-176530000D02*
X118110000Y-175895000D01*
X116205000Y-176530000D02*
X117475000Y-176530000D01*
X115570000Y-175895000D02*
X116205000Y-176530000D01*
X120015000Y-173990000D02*
X120650000Y-174625000D01*
X118745000Y-173990000D02*
X120015000Y-173990000D01*
X118110000Y-174625000D02*
X118745000Y-173990000D01*
X118745000Y-176530000D02*
X118110000Y-175895000D01*
X120015000Y-176530000D02*
X118745000Y-176530000D01*
X120650000Y-175895000D02*
X120015000Y-176530000D01*
X111125000Y-173990000D02*
X112395000Y-173990000D01*
X112395000Y-173990000D02*
X113030000Y-174625000D01*
X110490000Y-174625000D02*
X111125000Y-173990000D01*
X112395000Y-176530000D02*
X113030000Y-175895000D01*
X111125000Y-176530000D02*
X112395000Y-176530000D01*
X110490000Y-175895000D02*
X111125000Y-176530000D01*
X114935000Y-173990000D02*
X115570000Y-174625000D01*
X113665000Y-173990000D02*
X114935000Y-173990000D01*
X113030000Y-174625000D02*
X113665000Y-173990000D01*
X113665000Y-176530000D02*
X113030000Y-175895000D01*
X114935000Y-176530000D02*
X113665000Y-176530000D01*
X115570000Y-175895000D02*
X114935000Y-176530000D01*
X106045000Y-173990000D02*
X107315000Y-173990000D01*
X107315000Y-173990000D02*
X107950000Y-174625000D01*
X105410000Y-174625000D02*
X106045000Y-173990000D01*
X107315000Y-176530000D02*
X107950000Y-175895000D01*
X106045000Y-176530000D02*
X107315000Y-176530000D01*
X105410000Y-175895000D02*
X106045000Y-176530000D01*
X109855000Y-173990000D02*
X110490000Y-174625000D01*
X108585000Y-173990000D02*
X109855000Y-173990000D01*
X107950000Y-174625000D02*
X108585000Y-173990000D01*
X108585000Y-176530000D02*
X107950000Y-175895000D01*
X109855000Y-176530000D02*
X108585000Y-176530000D01*
X110490000Y-175895000D02*
X109855000Y-176530000D01*
X100965000Y-173990000D02*
X102235000Y-173990000D01*
X102235000Y-173990000D02*
X102870000Y-174625000D01*
X100330000Y-174625000D02*
X100965000Y-173990000D01*
X102235000Y-176530000D02*
X102870000Y-175895000D01*
X100965000Y-176530000D02*
X102235000Y-176530000D01*
X100330000Y-175895000D02*
X100965000Y-176530000D01*
X104775000Y-173990000D02*
X105410000Y-174625000D01*
X103505000Y-173990000D02*
X104775000Y-173990000D01*
X102870000Y-174625000D02*
X103505000Y-173990000D01*
X103505000Y-176530000D02*
X102870000Y-175895000D01*
X104775000Y-176530000D02*
X103505000Y-176530000D01*
X105410000Y-175895000D02*
X104775000Y-176530000D01*
X95885000Y-173990000D02*
X97155000Y-173990000D01*
X97155000Y-173990000D02*
X97790000Y-174625000D01*
X95250000Y-174625000D02*
X95885000Y-173990000D01*
X97155000Y-176530000D02*
X97790000Y-175895000D01*
X95885000Y-176530000D02*
X97155000Y-176530000D01*
X95250000Y-175895000D02*
X95885000Y-176530000D01*
X99695000Y-173990000D02*
X100330000Y-174625000D01*
X98425000Y-173990000D02*
X99695000Y-173990000D01*
X97790000Y-174625000D02*
X98425000Y-173990000D01*
X98425000Y-176530000D02*
X97790000Y-175895000D01*
X99695000Y-176530000D02*
X98425000Y-176530000D01*
X100330000Y-175895000D02*
X99695000Y-176530000D01*
X175895000Y-176530000D02*
X176530000Y-175895000D01*
X174625000Y-176530000D02*
X175895000Y-176530000D01*
X173990000Y-175895000D02*
X174625000Y-176530000D01*
X174625000Y-173990000D02*
X175895000Y-173990000D01*
X175895000Y-173990000D02*
X176530000Y-174625000D01*
X173990000Y-174625000D02*
X174625000Y-173990000D01*
X93345000Y-176530000D02*
X92710000Y-175895000D01*
X94615000Y-176530000D02*
X93345000Y-176530000D01*
X95250000Y-175895000D02*
X94615000Y-176530000D01*
X94615000Y-173990000D02*
X95250000Y-174625000D01*
X93345000Y-173990000D02*
X94615000Y-173990000D01*
X92710000Y-174625000D02*
X93345000Y-173990000D01*
X92075000Y-176530000D02*
X92710000Y-175895000D01*
X90805000Y-176530000D02*
X92075000Y-176530000D01*
X90170000Y-175895000D02*
X90805000Y-176530000D01*
X90805000Y-173990000D02*
X92075000Y-173990000D01*
X92075000Y-173990000D02*
X92710000Y-174625000D01*
X90170000Y-174625000D02*
X90805000Y-173990000D01*
X80010000Y-173990000D02*
X80010000Y-176530000D01*
X87630000Y-174625000D02*
X88265000Y-173990000D01*
X88265000Y-173990000D02*
X89535000Y-173990000D01*
X89535000Y-173990000D02*
X90170000Y-174625000D01*
X176530000Y-174625000D02*
X176530000Y-175895000D01*
X90170000Y-175895000D02*
X89535000Y-176530000D01*
X89535000Y-176530000D02*
X88265000Y-176530000D01*
X88265000Y-176530000D02*
X87630000Y-175895000D01*
X77470000Y-176530000D02*
X77470000Y-173990000D01*
X77470000Y-173990000D02*
X80010000Y-173990000D01*
X80010000Y-174625000D02*
X80645000Y-173990000D01*
X80645000Y-173990000D02*
X81915000Y-173990000D01*
X81915000Y-173990000D02*
X82550000Y-174625000D01*
X82550000Y-174625000D02*
X83185000Y-173990000D01*
X83185000Y-173990000D02*
X84455000Y-173990000D01*
X84455000Y-173990000D02*
X85090000Y-174625000D01*
X85090000Y-174625000D02*
X85725000Y-173990000D01*
X85725000Y-173990000D02*
X86995000Y-173990000D01*
X86995000Y-173990000D02*
X87630000Y-174625000D01*
X87630000Y-175895000D02*
X86995000Y-176530000D01*
X86995000Y-176530000D02*
X85725000Y-176530000D01*
X85725000Y-176530000D02*
X85090000Y-175895000D01*
X85090000Y-175895000D02*
X84455000Y-176530000D01*
X84455000Y-176530000D02*
X83185000Y-176530000D01*
X83185000Y-176530000D02*
X82550000Y-175895000D01*
X82550000Y-175895000D02*
X81915000Y-176530000D01*
X81915000Y-176530000D02*
X80645000Y-176530000D01*
X80645000Y-176530000D02*
X80010000Y-175895000D01*
X80010000Y-176530000D02*
X77470000Y-176530000D01*
X135890000Y-140970000D02*
X135890000Y-138430000D01*
X135890000Y-138430000D02*
X148590000Y-138430000D01*
X148590000Y-138430000D02*
X148590000Y-140970000D01*
X148590000Y-140970000D02*
X135890000Y-140970000D01*
X138430000Y-140970000D02*
X138430000Y-138430000D01*
X135890000Y-128270000D02*
X135890000Y-125730000D01*
X135890000Y-125730000D02*
X148590000Y-125730000D01*
X148590000Y-125730000D02*
X148590000Y-128270000D01*
X148590000Y-128270000D02*
X135890000Y-128270000D01*
X138430000Y-128270000D02*
X138430000Y-125730000D01*
X164388800Y-170180000D02*
X164388800Y-167640000D01*
D14*
X161643136Y-167934473D02*
G75*
G03X161290000Y-168910000I1170864J-975527D01*
G01*
X161291889Y-168910469D02*
G75*
G03X161676080Y-169920920I1522111J469D01*
G01*
X164336147Y-168909966D02*
G75*
G03X163969700Y-167919400I-1522147J-34D01*
G01*
X163984864Y-169885527D02*
G75*
G03X164338000Y-168910000I-1170864J975527D01*
G01*
X164053166Y-168022845D02*
G75*
G03X162814000Y-167386000I-1239166J-887155D01*
G01*
X162813199Y-167386000D02*
G75*
G03X161594800Y-167995600I801J-1524000D01*
G01*
X162814442Y-170432206D02*
G75*
G03X164015420Y-169844720I-442J1522206D01*
G01*
X161611436Y-169846171D02*
G75*
G03X162814000Y-170434000I1202564J936171D01*
G01*
X162814000Y-168275000D02*
G75*
G03X162179000Y-168910000I0J-635000D01*
G01*
X162814000Y-167894000D02*
G75*
G03X161798000Y-168910000I0J-1016000D01*
G01*
X162814000Y-169545000D02*
G75*
G03X163449000Y-168910000I0J635000D01*
G01*
X162814000Y-169926000D02*
G75*
G03X163830000Y-168910000I0J1016000D01*
G01*
D13*
X164372880Y-167606574D02*
G75*
G03X162814000Y-166878000I-1558880J-1303426D01*
G01*
X162813025Y-166880540D02*
G75*
G03X161023300Y-167954960I975J-2029460D01*
G01*
X162816552Y-170939386D02*
G75*
G03X164363400Y-170220640I-2552J2029386D01*
G01*
X161050701Y-169919851D02*
G75*
G03X162814000Y-170942000I1763299J1009851D01*
G01*
X161024870Y-167946653D02*
G75*
G03X160782000Y-168910000I1789130J-963347D01*
G01*
X160783077Y-168910100D02*
G75*
G03X161084260Y-169974260I2030923J100D01*
G01*
X161544000Y-153670000D02*
X161544000Y-148590000D01*
X163322000Y-153924000D02*
X161798000Y-153924000D01*
X163576000Y-148590000D02*
X163576000Y-153670000D01*
X161798000Y-148336000D02*
X163322000Y-148336000D01*
X161544000Y-153670000D02*
G75*
G03X161798000Y-153924000I254000J0D01*
G01*
X163322000Y-153924000D02*
G75*
G03X163576000Y-153670000I0J254000D01*
G01*
X161798000Y-148336000D02*
G75*
G03X161544000Y-148590000I0J-254000D01*
G01*
X163576000Y-148590000D02*
G75*
G03X163322000Y-148336000I-254000J0D01*
G01*
X162560000Y-153924000D02*
X162560000Y-154940000D01*
X162560000Y-147320000D02*
X162560000Y-148336000D01*
X118110000Y-171450000D02*
X118110000Y-168910000D01*
X118110000Y-168910000D02*
X130810000Y-168910000D01*
X130810000Y-168910000D02*
X130810000Y-171450000D01*
X130810000Y-171450000D02*
X118110000Y-171450000D01*
X120650000Y-171450000D02*
X120650000Y-168910000D01*
X163576000Y-138430000D02*
X163576000Y-143510000D01*
X161798000Y-138176000D02*
X163322000Y-138176000D01*
X161544000Y-143510000D02*
X161544000Y-138430000D01*
X163322000Y-143764000D02*
X161798000Y-143764000D01*
X163576000Y-138430000D02*
G75*
G03X163322000Y-138176000I-254000J0D01*
G01*
X161798000Y-138176000D02*
G75*
G03X161544000Y-138430000I0J-254000D01*
G01*
X163322000Y-143764000D02*
G75*
G03X163576000Y-143510000I0J254000D01*
G01*
X161544000Y-143510000D02*
G75*
G03X161798000Y-143764000I254000J0D01*
G01*
X162560000Y-138176000D02*
X162560000Y-137160000D01*
X162560000Y-144780000D02*
X162560000Y-143764000D01*
X136906000Y-107950000D02*
X136906000Y-113030000D01*
X135128000Y-107696000D02*
X136652000Y-107696000D01*
X134874000Y-113030000D02*
X134874000Y-107950000D01*
X136652000Y-113284000D02*
X135128000Y-113284000D01*
X136906000Y-107950000D02*
G75*
G03X136652000Y-107696000I-254000J0D01*
G01*
X135128000Y-107696000D02*
G75*
G03X134874000Y-107950000I0J-254000D01*
G01*
X136652000Y-113284000D02*
G75*
G03X136906000Y-113030000I0J254000D01*
G01*
X134874000Y-113030000D02*
G75*
G03X135128000Y-113284000I254000J0D01*
G01*
X135890000Y-107696000D02*
X135890000Y-106680000D01*
X135890000Y-114300000D02*
X135890000Y-113284000D01*
D12*
X162221333Y-172163619D02*
X162221333Y-172889333D01*
X162172953Y-173034476D01*
X162076191Y-173131238D01*
X161931048Y-173179619D01*
X161834286Y-173179619D01*
X162608381Y-172163619D02*
X163285714Y-172163619D01*
X162850286Y-173179619D01*
X78183619Y-96341595D02*
X79006095Y-96341595D01*
X79102857Y-96293214D01*
X79151238Y-96244833D01*
X79199619Y-96148071D01*
X79199619Y-95954548D01*
X79151238Y-95857786D01*
X79102857Y-95809405D01*
X79006095Y-95761024D01*
X78183619Y-95761024D01*
X78183619Y-95373976D02*
X78183619Y-94745024D01*
X78570667Y-95083690D01*
X78570667Y-94938548D01*
X78619048Y-94841786D01*
X78667429Y-94793405D01*
X78764190Y-94745024D01*
X79006095Y-94745024D01*
X79102857Y-94793405D01*
X79151238Y-94841786D01*
X79199619Y-94938548D01*
X79199619Y-95228833D01*
X79151238Y-95325595D01*
X79102857Y-95373976D01*
X79771119Y-97995315D02*
X79771119Y-97385715D01*
X80787119Y-98122315D01*
X80787119Y-97512715D01*
X80206548Y-96961173D02*
X80158167Y-97042211D01*
X80109786Y-97079707D01*
X80013024Y-97111154D01*
X79964643Y-97105107D01*
X79867881Y-97049469D01*
X79819500Y-96999878D01*
X79771119Y-96906744D01*
X79771119Y-96732573D01*
X79819500Y-96651535D01*
X79867881Y-96614040D01*
X79964643Y-96582592D01*
X80013024Y-96588639D01*
X80109786Y-96644278D01*
X80158167Y-96693868D01*
X80206548Y-96787002D01*
X80206548Y-96961173D01*
X80254929Y-97054307D01*
X80303310Y-97103897D01*
X80400071Y-97159535D01*
X80593595Y-97183726D01*
X80690357Y-97152278D01*
X80738738Y-97114783D01*
X80787119Y-97033744D01*
X80787119Y-96859573D01*
X80738738Y-96766440D01*
X80690357Y-96716849D01*
X80593595Y-96661211D01*
X80400071Y-96637020D01*
X80303310Y-96668468D01*
X80254929Y-96705964D01*
X80206548Y-96787002D01*
X80109786Y-95816964D02*
X80787119Y-95901630D01*
X79722738Y-95986297D02*
X80448452Y-96294726D01*
X80448452Y-95728668D01*
X80690357Y-94888049D02*
X80738738Y-94937640D01*
X80787119Y-95074316D01*
X80787119Y-95161402D01*
X80738738Y-95285983D01*
X80641976Y-95360973D01*
X80545214Y-95392421D01*
X80351690Y-95411774D01*
X80206548Y-95393631D01*
X80013024Y-95325897D01*
X79916262Y-95270259D01*
X79819500Y-95171078D01*
X79771119Y-95034402D01*
X79771119Y-94947316D01*
X79819500Y-94822735D01*
X79867881Y-94785240D01*
X80109786Y-94031707D02*
X80787119Y-94116373D01*
X79722738Y-94201040D02*
X80448452Y-94509469D01*
X80448452Y-93943411D01*
X79771119Y-93336230D02*
X79771119Y-93249145D01*
X79819500Y-93168107D01*
X79867881Y-93130612D01*
X79964643Y-93099164D01*
X80158167Y-93079811D01*
X80400071Y-93110049D01*
X80593595Y-93177783D01*
X80690357Y-93233421D01*
X80738738Y-93283012D01*
X80787119Y-93376145D01*
X80787119Y-93463230D01*
X80738738Y-93544269D01*
X80690357Y-93581764D01*
X80593595Y-93613212D01*
X80400071Y-93632564D01*
X80158167Y-93602326D01*
X79964643Y-93534593D01*
X79867881Y-93478955D01*
X79819500Y-93429364D01*
X79771119Y-93336230D01*
X78183619Y-167144095D02*
X79006095Y-167144095D01*
X79102857Y-167095714D01*
X79151238Y-167047333D01*
X79199619Y-166950571D01*
X79199619Y-166757048D01*
X79151238Y-166660286D01*
X79102857Y-166611905D01*
X79006095Y-166563524D01*
X78183619Y-166563524D01*
X79199619Y-165547524D02*
X79199619Y-166128095D01*
X79199619Y-165837809D02*
X78183619Y-165837809D01*
X78328762Y-165934571D01*
X78425524Y-166031333D01*
X78473905Y-166128095D01*
X79771119Y-169115315D02*
X79771119Y-168505715D01*
X80787119Y-169242315D01*
X80787119Y-168632715D01*
X80206548Y-168081173D02*
X80158167Y-168162211D01*
X80109786Y-168199707D01*
X80013024Y-168231154D01*
X79964643Y-168225107D01*
X79867881Y-168169469D01*
X79819500Y-168119878D01*
X79771119Y-168026744D01*
X79771119Y-167852573D01*
X79819500Y-167771535D01*
X79867881Y-167734040D01*
X79964643Y-167702592D01*
X80013024Y-167708639D01*
X80109786Y-167764278D01*
X80158167Y-167813868D01*
X80206548Y-167907002D01*
X80206548Y-168081173D01*
X80254929Y-168174307D01*
X80303310Y-168223897D01*
X80400071Y-168279535D01*
X80593595Y-168303726D01*
X80690357Y-168272278D01*
X80738738Y-168234783D01*
X80787119Y-168153744D01*
X80787119Y-167979573D01*
X80738738Y-167886440D01*
X80690357Y-167836849D01*
X80593595Y-167781211D01*
X80400071Y-167757020D01*
X80303310Y-167788468D01*
X80254929Y-167825964D01*
X80206548Y-167907002D01*
X80109786Y-166936964D02*
X80787119Y-167021630D01*
X79722738Y-167106297D02*
X80448452Y-167414726D01*
X80448452Y-166848668D01*
X80690357Y-166008049D02*
X80738738Y-166057640D01*
X80787119Y-166194316D01*
X80787119Y-166281402D01*
X80738738Y-166405983D01*
X80641976Y-166480973D01*
X80545214Y-166512421D01*
X80351690Y-166531774D01*
X80206548Y-166513631D01*
X80013024Y-166445897D01*
X79916262Y-166390259D01*
X79819500Y-166291078D01*
X79771119Y-166154402D01*
X79771119Y-166067316D01*
X79819500Y-165942735D01*
X79867881Y-165905240D01*
X79771119Y-165327087D02*
X79771119Y-165240002D01*
X79819500Y-165158964D01*
X79867881Y-165121469D01*
X79964643Y-165090021D01*
X80158167Y-165070668D01*
X80400071Y-165100906D01*
X80593595Y-165168640D01*
X80690357Y-165224278D01*
X80738738Y-165273869D01*
X80787119Y-165367002D01*
X80787119Y-165454087D01*
X80738738Y-165535126D01*
X80690357Y-165572621D01*
X80593595Y-165604069D01*
X80400071Y-165623421D01*
X80158167Y-165593183D01*
X79964643Y-165525450D01*
X79867881Y-165469812D01*
X79819500Y-165420221D01*
X79771119Y-165327087D01*
X79771119Y-164456230D02*
X79771119Y-164369145D01*
X79819500Y-164288107D01*
X79867881Y-164250612D01*
X79964643Y-164219164D01*
X80158167Y-164199811D01*
X80400071Y-164230049D01*
X80593595Y-164297783D01*
X80690357Y-164353421D01*
X80738738Y-164403012D01*
X80787119Y-164496145D01*
X80787119Y-164583230D01*
X80738738Y-164664269D01*
X80690357Y-164701764D01*
X80593595Y-164733212D01*
X80400071Y-164752564D01*
X80158167Y-164722326D01*
X79964643Y-164654593D01*
X79867881Y-164598955D01*
X79819500Y-164549364D01*
X79771119Y-164456230D01*
X78467857Y-160189333D02*
X78516238Y-160237714D01*
X78564619Y-160382857D01*
X78564619Y-160479619D01*
X78516238Y-160624761D01*
X78419476Y-160721523D01*
X78322714Y-160769904D01*
X78129190Y-160818285D01*
X77984048Y-160818285D01*
X77790524Y-160769904D01*
X77693762Y-160721523D01*
X77597000Y-160624761D01*
X77548619Y-160479619D01*
X77548619Y-160382857D01*
X77597000Y-160237714D01*
X77645381Y-160189333D01*
X78564619Y-159221714D02*
X78564619Y-159802285D01*
X78564619Y-159511999D02*
X77548619Y-159511999D01*
X77693762Y-159608761D01*
X77790524Y-159705523D01*
X77838905Y-159802285D01*
X80469619Y-161094358D02*
X80469619Y-161616873D01*
X80469619Y-161355615D02*
X79453619Y-161228615D01*
X79598762Y-161333844D01*
X79695524Y-161433025D01*
X79743905Y-161526159D01*
X79453619Y-160401301D02*
X79453619Y-160314216D01*
X79502000Y-160233178D01*
X79550381Y-160195683D01*
X79647143Y-160164235D01*
X79840667Y-160144882D01*
X80082571Y-160175120D01*
X80276095Y-160242854D01*
X80372857Y-160298492D01*
X80421238Y-160348083D01*
X80469619Y-160441216D01*
X80469619Y-160528301D01*
X80421238Y-160609340D01*
X80372857Y-160646835D01*
X80276095Y-160678283D01*
X80082571Y-160697635D01*
X79840667Y-160667397D01*
X79647143Y-160599664D01*
X79550381Y-160544026D01*
X79502000Y-160494435D01*
X79453619Y-160401301D01*
X79453619Y-159530444D02*
X79453619Y-159443359D01*
X79502000Y-159362321D01*
X79550381Y-159324826D01*
X79647143Y-159293378D01*
X79840667Y-159274025D01*
X80082571Y-159304263D01*
X80276095Y-159371997D01*
X80372857Y-159427635D01*
X80421238Y-159477226D01*
X80469619Y-159570359D01*
X80469619Y-159657444D01*
X80421238Y-159738483D01*
X80372857Y-159775978D01*
X80276095Y-159807426D01*
X80082571Y-159826778D01*
X79840667Y-159796540D01*
X79647143Y-159728807D01*
X79550381Y-159673169D01*
X79502000Y-159623578D01*
X79453619Y-159530444D01*
X79792286Y-158876093D02*
X80469619Y-158960759D01*
X79889048Y-158888188D02*
X79840667Y-158838597D01*
X79792286Y-158745464D01*
X79792286Y-158614836D01*
X79840667Y-158533797D01*
X79937429Y-158502350D01*
X80469619Y-158568873D01*
X78467857Y-106849333D02*
X78516238Y-106897714D01*
X78564619Y-107042857D01*
X78564619Y-107139619D01*
X78516238Y-107284761D01*
X78419476Y-107381523D01*
X78322714Y-107429904D01*
X78129190Y-107478285D01*
X77984048Y-107478285D01*
X77790524Y-107429904D01*
X77693762Y-107381523D01*
X77597000Y-107284761D01*
X77548619Y-107139619D01*
X77548619Y-107042857D01*
X77597000Y-106897714D01*
X77645381Y-106849333D01*
X77645381Y-106462285D02*
X77597000Y-106413904D01*
X77548619Y-106317142D01*
X77548619Y-106075238D01*
X77597000Y-105978476D01*
X77645381Y-105930095D01*
X77742143Y-105881714D01*
X77838905Y-105881714D01*
X77984048Y-105930095D01*
X78564619Y-106510666D01*
X78564619Y-105881714D01*
X80469619Y-107754358D02*
X80469619Y-108276873D01*
X80469619Y-108015615D02*
X79453619Y-107888615D01*
X79598762Y-107993844D01*
X79695524Y-108093025D01*
X79743905Y-108186159D01*
X79453619Y-107061301D02*
X79453619Y-106974216D01*
X79502000Y-106893178D01*
X79550381Y-106855683D01*
X79647143Y-106824235D01*
X79840667Y-106804882D01*
X80082571Y-106835120D01*
X80276095Y-106902854D01*
X80372857Y-106958492D01*
X80421238Y-107008083D01*
X80469619Y-107101216D01*
X80469619Y-107188301D01*
X80421238Y-107269340D01*
X80372857Y-107306835D01*
X80276095Y-107338283D01*
X80082571Y-107357635D01*
X79840667Y-107327397D01*
X79647143Y-107259664D01*
X79550381Y-107204026D01*
X79502000Y-107154435D01*
X79453619Y-107061301D01*
X79453619Y-106190444D02*
X79453619Y-106103359D01*
X79502000Y-106022321D01*
X79550381Y-105984826D01*
X79647143Y-105953378D01*
X79840667Y-105934025D01*
X80082571Y-105964263D01*
X80276095Y-106031997D01*
X80372857Y-106087635D01*
X80421238Y-106137226D01*
X80469619Y-106230359D01*
X80469619Y-106317444D01*
X80421238Y-106398483D01*
X80372857Y-106435978D01*
X80276095Y-106467426D01*
X80082571Y-106486778D01*
X79840667Y-106456540D01*
X79647143Y-106388807D01*
X79550381Y-106333169D01*
X79502000Y-106283578D01*
X79453619Y-106190444D01*
X79792286Y-105536093D02*
X80469619Y-105620759D01*
X79889048Y-105548188D02*
X79840667Y-105498597D01*
X79792286Y-105405464D01*
X79792286Y-105274836D01*
X79840667Y-105193797D01*
X79937429Y-105162350D01*
X80469619Y-105228873D01*
X78467857Y-89069333D02*
X78516238Y-89117714D01*
X78564619Y-89262857D01*
X78564619Y-89359619D01*
X78516238Y-89504761D01*
X78419476Y-89601523D01*
X78322714Y-89649904D01*
X78129190Y-89698285D01*
X77984048Y-89698285D01*
X77790524Y-89649904D01*
X77693762Y-89601523D01*
X77597000Y-89504761D01*
X77548619Y-89359619D01*
X77548619Y-89262857D01*
X77597000Y-89117714D01*
X77645381Y-89069333D01*
X77548619Y-88730666D02*
X77548619Y-88101714D01*
X77935667Y-88440380D01*
X77935667Y-88295238D01*
X77984048Y-88198476D01*
X78032429Y-88150095D01*
X78129190Y-88101714D01*
X78371095Y-88101714D01*
X78467857Y-88150095D01*
X78516238Y-88198476D01*
X78564619Y-88295238D01*
X78564619Y-88585523D01*
X78516238Y-88682285D01*
X78467857Y-88730666D01*
X80469619Y-89974358D02*
X80469619Y-90496873D01*
X80469619Y-90235615D02*
X79453619Y-90108615D01*
X79598762Y-90213844D01*
X79695524Y-90313025D01*
X79743905Y-90406159D01*
X79453619Y-89281301D02*
X79453619Y-89194216D01*
X79502000Y-89113178D01*
X79550381Y-89075683D01*
X79647143Y-89044235D01*
X79840667Y-89024882D01*
X80082571Y-89055120D01*
X80276095Y-89122854D01*
X80372857Y-89178492D01*
X80421238Y-89228083D01*
X80469619Y-89321216D01*
X80469619Y-89408301D01*
X80421238Y-89489340D01*
X80372857Y-89526835D01*
X80276095Y-89558283D01*
X80082571Y-89577635D01*
X79840667Y-89547397D01*
X79647143Y-89479664D01*
X79550381Y-89424026D01*
X79502000Y-89374435D01*
X79453619Y-89281301D01*
X79453619Y-88410444D02*
X79453619Y-88323359D01*
X79502000Y-88242321D01*
X79550381Y-88204826D01*
X79647143Y-88173378D01*
X79840667Y-88154025D01*
X80082571Y-88184263D01*
X80276095Y-88251997D01*
X80372857Y-88307635D01*
X80421238Y-88357226D01*
X80469619Y-88450359D01*
X80469619Y-88537444D01*
X80421238Y-88618483D01*
X80372857Y-88655978D01*
X80276095Y-88687426D01*
X80082571Y-88706778D01*
X79840667Y-88676540D01*
X79647143Y-88608807D01*
X79550381Y-88553169D01*
X79502000Y-88503578D01*
X79453619Y-88410444D01*
X79792286Y-87756093D02*
X80469619Y-87840759D01*
X79889048Y-87768188D02*
X79840667Y-87718597D01*
X79792286Y-87625464D01*
X79792286Y-87494836D01*
X79840667Y-87413797D01*
X79937429Y-87382350D01*
X80469619Y-87448873D01*
X78467857Y-142409333D02*
X78516238Y-142457714D01*
X78564619Y-142602857D01*
X78564619Y-142699619D01*
X78516238Y-142844761D01*
X78419476Y-142941523D01*
X78322714Y-142989904D01*
X78129190Y-143038285D01*
X77984048Y-143038285D01*
X77790524Y-142989904D01*
X77693762Y-142941523D01*
X77597000Y-142844761D01*
X77548619Y-142699619D01*
X77548619Y-142602857D01*
X77597000Y-142457714D01*
X77645381Y-142409333D01*
X77887286Y-141538476D02*
X78564619Y-141538476D01*
X77500238Y-141780380D02*
X78225952Y-142022285D01*
X78225952Y-141393333D01*
X80469619Y-143314358D02*
X80469619Y-143836873D01*
X80469619Y-143575615D02*
X79453619Y-143448615D01*
X79598762Y-143553844D01*
X79695524Y-143653025D01*
X79743905Y-143746159D01*
X79453619Y-142621301D02*
X79453619Y-142534216D01*
X79502000Y-142453178D01*
X79550381Y-142415683D01*
X79647143Y-142384235D01*
X79840667Y-142364882D01*
X80082571Y-142395120D01*
X80276095Y-142462854D01*
X80372857Y-142518492D01*
X80421238Y-142568083D01*
X80469619Y-142661216D01*
X80469619Y-142748301D01*
X80421238Y-142829340D01*
X80372857Y-142866835D01*
X80276095Y-142898283D01*
X80082571Y-142917635D01*
X79840667Y-142887397D01*
X79647143Y-142819664D01*
X79550381Y-142764026D01*
X79502000Y-142714435D01*
X79453619Y-142621301D01*
X79453619Y-141750444D02*
X79453619Y-141663359D01*
X79502000Y-141582321D01*
X79550381Y-141544826D01*
X79647143Y-141513378D01*
X79840667Y-141494025D01*
X80082571Y-141524263D01*
X80276095Y-141591997D01*
X80372857Y-141647635D01*
X80421238Y-141697226D01*
X80469619Y-141790359D01*
X80469619Y-141877444D01*
X80421238Y-141958483D01*
X80372857Y-141995978D01*
X80276095Y-142027426D01*
X80082571Y-142046778D01*
X79840667Y-142016540D01*
X79647143Y-141948807D01*
X79550381Y-141893169D01*
X79502000Y-141843578D01*
X79453619Y-141750444D01*
X79792286Y-141096093D02*
X80469619Y-141180759D01*
X79889048Y-141108188D02*
X79840667Y-141058597D01*
X79792286Y-140965464D01*
X79792286Y-140834836D01*
X79840667Y-140753797D01*
X79937429Y-140722350D01*
X80469619Y-140788873D01*
X78467857Y-124629333D02*
X78516238Y-124677714D01*
X78564619Y-124822857D01*
X78564619Y-124919619D01*
X78516238Y-125064761D01*
X78419476Y-125161523D01*
X78322714Y-125209904D01*
X78129190Y-125258285D01*
X77984048Y-125258285D01*
X77790524Y-125209904D01*
X77693762Y-125161523D01*
X77597000Y-125064761D01*
X77548619Y-124919619D01*
X77548619Y-124822857D01*
X77597000Y-124677714D01*
X77645381Y-124629333D01*
X77548619Y-123710095D02*
X77548619Y-124193904D01*
X78032429Y-124242285D01*
X77984048Y-124193904D01*
X77935667Y-124097142D01*
X77935667Y-123855238D01*
X77984048Y-123758476D01*
X78032429Y-123710095D01*
X78129190Y-123661714D01*
X78371095Y-123661714D01*
X78467857Y-123710095D01*
X78516238Y-123758476D01*
X78564619Y-123855238D01*
X78564619Y-124097142D01*
X78516238Y-124193904D01*
X78467857Y-124242285D01*
X80469619Y-125534358D02*
X80469619Y-126056873D01*
X80469619Y-125795615D02*
X79453619Y-125668615D01*
X79598762Y-125773844D01*
X79695524Y-125873025D01*
X79743905Y-125966159D01*
X79453619Y-124841301D02*
X79453619Y-124754216D01*
X79502000Y-124673178D01*
X79550381Y-124635683D01*
X79647143Y-124604235D01*
X79840667Y-124584882D01*
X80082571Y-124615120D01*
X80276095Y-124682854D01*
X80372857Y-124738492D01*
X80421238Y-124788083D01*
X80469619Y-124881216D01*
X80469619Y-124968301D01*
X80421238Y-125049340D01*
X80372857Y-125086835D01*
X80276095Y-125118283D01*
X80082571Y-125137635D01*
X79840667Y-125107397D01*
X79647143Y-125039664D01*
X79550381Y-124984026D01*
X79502000Y-124934435D01*
X79453619Y-124841301D01*
X79453619Y-123970444D02*
X79453619Y-123883359D01*
X79502000Y-123802321D01*
X79550381Y-123764826D01*
X79647143Y-123733378D01*
X79840667Y-123714025D01*
X80082571Y-123744263D01*
X80276095Y-123811997D01*
X80372857Y-123867635D01*
X80421238Y-123917226D01*
X80469619Y-124010359D01*
X80469619Y-124097444D01*
X80421238Y-124178483D01*
X80372857Y-124215978D01*
X80276095Y-124247426D01*
X80082571Y-124266778D01*
X79840667Y-124236540D01*
X79647143Y-124168807D01*
X79550381Y-124113169D01*
X79502000Y-124063578D01*
X79453619Y-123970444D01*
X79792286Y-123316093D02*
X80469619Y-123400759D01*
X79889048Y-123328188D02*
X79840667Y-123278597D01*
X79792286Y-123185464D01*
X79792286Y-123054836D01*
X79840667Y-122973797D01*
X79937429Y-122942350D01*
X80469619Y-123008873D01*
X151278167Y-159112857D02*
X151229786Y-159161238D01*
X151084643Y-159209619D01*
X150987881Y-159209619D01*
X150842739Y-159161238D01*
X150745977Y-159064476D01*
X150697596Y-158967714D01*
X150649215Y-158774190D01*
X150649215Y-158629048D01*
X150697596Y-158435524D01*
X150745977Y-158338762D01*
X150842739Y-158242000D01*
X150987881Y-158193619D01*
X151084643Y-158193619D01*
X151229786Y-158242000D01*
X151278167Y-158290381D01*
X152149024Y-158193619D02*
X151955501Y-158193619D01*
X151858739Y-158242000D01*
X151810358Y-158290381D01*
X151713596Y-158435524D01*
X151665215Y-158629048D01*
X151665215Y-159016095D01*
X151713596Y-159112857D01*
X151761977Y-159161238D01*
X151858739Y-159209619D01*
X152052262Y-159209619D01*
X152149024Y-159161238D01*
X152197405Y-159112857D01*
X152245786Y-159016095D01*
X152245786Y-158774190D01*
X152197405Y-158677429D01*
X152149024Y-158629048D01*
X152052262Y-158580667D01*
X151858739Y-158580667D01*
X151761977Y-158629048D01*
X151713596Y-158677429D01*
X151665215Y-158774190D01*
X155135642Y-159209619D02*
X154613127Y-159209619D01*
X154874385Y-159209619D02*
X155001385Y-158193619D01*
X154896156Y-158338762D01*
X154796975Y-158435524D01*
X154703841Y-158483905D01*
X155828699Y-158193619D02*
X155915784Y-158193619D01*
X155996822Y-158242000D01*
X156034317Y-158290381D01*
X156065765Y-158387143D01*
X156085118Y-158580667D01*
X156054880Y-158822571D01*
X155987146Y-159016095D01*
X155931508Y-159112857D01*
X155881917Y-159161238D01*
X155788784Y-159209619D01*
X155701699Y-159209619D01*
X155620660Y-159161238D01*
X155583165Y-159112857D01*
X155551717Y-159016095D01*
X155532365Y-158822571D01*
X155562603Y-158580667D01*
X155630336Y-158387143D01*
X155685974Y-158290381D01*
X155735565Y-158242000D01*
X155828699Y-158193619D01*
X156699556Y-158193619D02*
X156786641Y-158193619D01*
X156867679Y-158242000D01*
X156905174Y-158290381D01*
X156936622Y-158387143D01*
X156955975Y-158580667D01*
X156925737Y-158822571D01*
X156858003Y-159016095D01*
X156802365Y-159112857D01*
X156752774Y-159161238D01*
X156659641Y-159209619D01*
X156572556Y-159209619D01*
X156491517Y-159161238D01*
X156454022Y-159112857D01*
X156422574Y-159016095D01*
X156403222Y-158822571D01*
X156433460Y-158580667D01*
X156501193Y-158387143D01*
X156556831Y-158290381D01*
X156606422Y-158242000D01*
X156699556Y-158193619D01*
X157353907Y-158532286D02*
X157269241Y-159209619D01*
X157341812Y-158629048D02*
X157391403Y-158580667D01*
X157484536Y-158532286D01*
X157615164Y-158532286D01*
X157696203Y-158580667D01*
X157727650Y-158677429D01*
X157661127Y-159209619D01*
X135720667Y-102597857D02*
X135672286Y-102646238D01*
X135527143Y-102694619D01*
X135430381Y-102694619D01*
X135285239Y-102646238D01*
X135188477Y-102549476D01*
X135140096Y-102452714D01*
X135091715Y-102259190D01*
X135091715Y-102114048D01*
X135140096Y-101920524D01*
X135188477Y-101823762D01*
X135285239Y-101727000D01*
X135430381Y-101678619D01*
X135527143Y-101678619D01*
X135672286Y-101727000D01*
X135720667Y-101775381D01*
X136059334Y-101678619D02*
X136736667Y-101678619D01*
X136301239Y-102694619D01*
X136349619Y-98864358D02*
X136349619Y-99386873D01*
X136349619Y-99125615D02*
X135333619Y-98998615D01*
X135478762Y-99103844D01*
X135575524Y-99203025D01*
X135623905Y-99296159D01*
X135333619Y-98171301D02*
X135333619Y-98084216D01*
X135382000Y-98003178D01*
X135430381Y-97965683D01*
X135527143Y-97934235D01*
X135720667Y-97914882D01*
X135962571Y-97945120D01*
X136156095Y-98012854D01*
X136252857Y-98068492D01*
X136301238Y-98118083D01*
X136349619Y-98211216D01*
X136349619Y-98298301D01*
X136301238Y-98379340D01*
X136252857Y-98416835D01*
X136156095Y-98448283D01*
X135962571Y-98467635D01*
X135720667Y-98437397D01*
X135527143Y-98369664D01*
X135430381Y-98314026D01*
X135382000Y-98264435D01*
X135333619Y-98171301D01*
X135333619Y-97300444D02*
X135333619Y-97213359D01*
X135382000Y-97132321D01*
X135430381Y-97094826D01*
X135527143Y-97063378D01*
X135720667Y-97044025D01*
X135962571Y-97074263D01*
X136156095Y-97141997D01*
X136252857Y-97197635D01*
X136301238Y-97247226D01*
X136349619Y-97340359D01*
X136349619Y-97427444D01*
X136301238Y-97508483D01*
X136252857Y-97545978D01*
X136156095Y-97577426D01*
X135962571Y-97596778D01*
X135720667Y-97566540D01*
X135527143Y-97498807D01*
X135430381Y-97443169D01*
X135382000Y-97393578D01*
X135333619Y-97300444D01*
X135672286Y-96646093D02*
X136349619Y-96730759D01*
X135769048Y-96658188D02*
X135720667Y-96608597D01*
X135672286Y-96515464D01*
X135672286Y-96384836D01*
X135720667Y-96303797D01*
X135817429Y-96272350D01*
X136349619Y-96338873D01*
X135720667Y-89897857D02*
X135672286Y-89946238D01*
X135527143Y-89994619D01*
X135430381Y-89994619D01*
X135285239Y-89946238D01*
X135188477Y-89849476D01*
X135140096Y-89752714D01*
X135091715Y-89559190D01*
X135091715Y-89414048D01*
X135140096Y-89220524D01*
X135188477Y-89123762D01*
X135285239Y-89027000D01*
X135430381Y-88978619D01*
X135527143Y-88978619D01*
X135672286Y-89027000D01*
X135720667Y-89075381D01*
X136301239Y-89414048D02*
X136204477Y-89365667D01*
X136156096Y-89317286D01*
X136107715Y-89220524D01*
X136107715Y-89172143D01*
X136156096Y-89075381D01*
X136204477Y-89027000D01*
X136301239Y-88978619D01*
X136494762Y-88978619D01*
X136591524Y-89027000D01*
X136639905Y-89075381D01*
X136688286Y-89172143D01*
X136688286Y-89220524D01*
X136639905Y-89317286D01*
X136591524Y-89365667D01*
X136494762Y-89414048D01*
X136301239Y-89414048D01*
X136204477Y-89462429D01*
X136156096Y-89510810D01*
X136107715Y-89607571D01*
X136107715Y-89801095D01*
X136156096Y-89897857D01*
X136204477Y-89946238D01*
X136301239Y-89994619D01*
X136494762Y-89994619D01*
X136591524Y-89946238D01*
X136639905Y-89897857D01*
X136688286Y-89801095D01*
X136688286Y-89607571D01*
X136639905Y-89510810D01*
X136591524Y-89462429D01*
X136494762Y-89414048D01*
X136349619Y-86164358D02*
X136349619Y-86686873D01*
X136349619Y-86425615D02*
X135333619Y-86298615D01*
X135478762Y-86403844D01*
X135575524Y-86503025D01*
X135623905Y-86596159D01*
X135333619Y-85471301D02*
X135333619Y-85384216D01*
X135382000Y-85303178D01*
X135430381Y-85265683D01*
X135527143Y-85234235D01*
X135720667Y-85214882D01*
X135962571Y-85245120D01*
X136156095Y-85312854D01*
X136252857Y-85368492D01*
X136301238Y-85418083D01*
X136349619Y-85511216D01*
X136349619Y-85598301D01*
X136301238Y-85679340D01*
X136252857Y-85716835D01*
X136156095Y-85748283D01*
X135962571Y-85767635D01*
X135720667Y-85737397D01*
X135527143Y-85669664D01*
X135430381Y-85614026D01*
X135382000Y-85564435D01*
X135333619Y-85471301D01*
X135333619Y-84600444D02*
X135333619Y-84513359D01*
X135382000Y-84432321D01*
X135430381Y-84394826D01*
X135527143Y-84363378D01*
X135720667Y-84344025D01*
X135962571Y-84374263D01*
X136156095Y-84441997D01*
X136252857Y-84497635D01*
X136301238Y-84547226D01*
X136349619Y-84640359D01*
X136349619Y-84727444D01*
X136301238Y-84808483D01*
X136252857Y-84845978D01*
X136156095Y-84877426D01*
X135962571Y-84896778D01*
X135720667Y-84866540D01*
X135527143Y-84798807D01*
X135430381Y-84743169D01*
X135382000Y-84693578D01*
X135333619Y-84600444D01*
X135672286Y-83946093D02*
X136349619Y-84030759D01*
X135769048Y-83958188D02*
X135720667Y-83908597D01*
X135672286Y-83815464D01*
X135672286Y-83684836D01*
X135720667Y-83603797D01*
X135817429Y-83572350D01*
X136349619Y-83638873D01*
X125560667Y-125457857D02*
X125512286Y-125506238D01*
X125367143Y-125554619D01*
X125270381Y-125554619D01*
X125125239Y-125506238D01*
X125028477Y-125409476D01*
X124980096Y-125312714D01*
X124931715Y-125119190D01*
X124931715Y-124974048D01*
X124980096Y-124780524D01*
X125028477Y-124683762D01*
X125125239Y-124587000D01*
X125270381Y-124538619D01*
X125367143Y-124538619D01*
X125512286Y-124587000D01*
X125560667Y-124635381D01*
X126044477Y-125554619D02*
X126238001Y-125554619D01*
X126334762Y-125506238D01*
X126383143Y-125457857D01*
X126479905Y-125312714D01*
X126528286Y-125119190D01*
X126528286Y-124732143D01*
X126479905Y-124635381D01*
X126431524Y-124587000D01*
X126334762Y-124538619D01*
X126141239Y-124538619D01*
X126044477Y-124587000D01*
X125996096Y-124635381D01*
X125947715Y-124732143D01*
X125947715Y-124974048D01*
X125996096Y-125070810D01*
X126044477Y-125119190D01*
X126141239Y-125167571D01*
X126334762Y-125167571D01*
X126431524Y-125119190D01*
X126479905Y-125070810D01*
X126528286Y-124974048D01*
X126189619Y-121724358D02*
X126189619Y-122246873D01*
X126189619Y-121985615D02*
X125173619Y-121858615D01*
X125318762Y-121963844D01*
X125415524Y-122063025D01*
X125463905Y-122156159D01*
X125173619Y-121031301D02*
X125173619Y-120944216D01*
X125222000Y-120863178D01*
X125270381Y-120825683D01*
X125367143Y-120794235D01*
X125560667Y-120774882D01*
X125802571Y-120805120D01*
X125996095Y-120872854D01*
X126092857Y-120928492D01*
X126141238Y-120978083D01*
X126189619Y-121071216D01*
X126189619Y-121158301D01*
X126141238Y-121239340D01*
X126092857Y-121276835D01*
X125996095Y-121308283D01*
X125802571Y-121327635D01*
X125560667Y-121297397D01*
X125367143Y-121229664D01*
X125270381Y-121174026D01*
X125222000Y-121124435D01*
X125173619Y-121031301D01*
X125173619Y-120160444D02*
X125173619Y-120073359D01*
X125222000Y-119992321D01*
X125270381Y-119954826D01*
X125367143Y-119923378D01*
X125560667Y-119904025D01*
X125802571Y-119934263D01*
X125996095Y-120001997D01*
X126092857Y-120057635D01*
X126141238Y-120107226D01*
X126189619Y-120200359D01*
X126189619Y-120287444D01*
X126141238Y-120368483D01*
X126092857Y-120405978D01*
X125996095Y-120437426D01*
X125802571Y-120456778D01*
X125560667Y-120426540D01*
X125367143Y-120358807D01*
X125270381Y-120303169D01*
X125222000Y-120253578D01*
X125173619Y-120160444D01*
X125512286Y-119506093D02*
X126189619Y-119590759D01*
X125609048Y-119518188D02*
X125560667Y-119468597D01*
X125512286Y-119375464D01*
X125512286Y-119244836D01*
X125560667Y-119163797D01*
X125657429Y-119132350D01*
X126189619Y-119198873D01*
X125076857Y-150857857D02*
X125028476Y-150906238D01*
X124883333Y-150954619D01*
X124786571Y-150954619D01*
X124641429Y-150906238D01*
X124544667Y-150809476D01*
X124496286Y-150712714D01*
X124447905Y-150519190D01*
X124447905Y-150374048D01*
X124496286Y-150180524D01*
X124544667Y-150083762D01*
X124641429Y-149987000D01*
X124786571Y-149938619D01*
X124883333Y-149938619D01*
X125028476Y-149987000D01*
X125076857Y-150035381D01*
X126044476Y-150954619D02*
X125463905Y-150954619D01*
X125754191Y-150954619D02*
X125754191Y-149938619D01*
X125657429Y-150083762D01*
X125560667Y-150180524D01*
X125463905Y-150228905D01*
X126673429Y-149938619D02*
X126770190Y-149938619D01*
X126866952Y-149987000D01*
X126915333Y-150035381D01*
X126963714Y-150132143D01*
X127012095Y-150325667D01*
X127012095Y-150567571D01*
X126963714Y-150761095D01*
X126915333Y-150857857D01*
X126866952Y-150906238D01*
X126770190Y-150954619D01*
X126673429Y-150954619D01*
X126576667Y-150906238D01*
X126528286Y-150857857D01*
X126479905Y-150761095D01*
X126431524Y-150567571D01*
X126431524Y-150325667D01*
X126479905Y-150132143D01*
X126528286Y-150035381D01*
X126576667Y-149987000D01*
X126673429Y-149938619D01*
X126189619Y-147124358D02*
X126189619Y-147646873D01*
X126189619Y-147385615D02*
X125173619Y-147258615D01*
X125318762Y-147363844D01*
X125415524Y-147463025D01*
X125463905Y-147556159D01*
X125173619Y-146431301D02*
X125173619Y-146344216D01*
X125222000Y-146263178D01*
X125270381Y-146225683D01*
X125367143Y-146194235D01*
X125560667Y-146174882D01*
X125802571Y-146205120D01*
X125996095Y-146272854D01*
X126092857Y-146328492D01*
X126141238Y-146378083D01*
X126189619Y-146471216D01*
X126189619Y-146558301D01*
X126141238Y-146639340D01*
X126092857Y-146676835D01*
X125996095Y-146708283D01*
X125802571Y-146727635D01*
X125560667Y-146697397D01*
X125367143Y-146629664D01*
X125270381Y-146574026D01*
X125222000Y-146524435D01*
X125173619Y-146431301D01*
X125173619Y-145560444D02*
X125173619Y-145473359D01*
X125222000Y-145392321D01*
X125270381Y-145354826D01*
X125367143Y-145323378D01*
X125560667Y-145304025D01*
X125802571Y-145334263D01*
X125996095Y-145401997D01*
X126092857Y-145457635D01*
X126141238Y-145507226D01*
X126189619Y-145600359D01*
X126189619Y-145687444D01*
X126141238Y-145768483D01*
X126092857Y-145805978D01*
X125996095Y-145837426D01*
X125802571Y-145856778D01*
X125560667Y-145826540D01*
X125367143Y-145758807D01*
X125270381Y-145703169D01*
X125222000Y-145653578D01*
X125173619Y-145560444D01*
X125512286Y-144906093D02*
X126189619Y-144990759D01*
X125609048Y-144918188D02*
X125560667Y-144868597D01*
X125512286Y-144775464D01*
X125512286Y-144644836D01*
X125560667Y-144563797D01*
X125657429Y-144532350D01*
X126189619Y-144598873D01*
X125076857Y-138157857D02*
X125028476Y-138206238D01*
X124883333Y-138254619D01*
X124786571Y-138254619D01*
X124641429Y-138206238D01*
X124544667Y-138109476D01*
X124496286Y-138012714D01*
X124447905Y-137819190D01*
X124447905Y-137674048D01*
X124496286Y-137480524D01*
X124544667Y-137383762D01*
X124641429Y-137287000D01*
X124786571Y-137238619D01*
X124883333Y-137238619D01*
X125028476Y-137287000D01*
X125076857Y-137335381D01*
X126044476Y-138254619D02*
X125463905Y-138254619D01*
X125754191Y-138254619D02*
X125754191Y-137238619D01*
X125657429Y-137383762D01*
X125560667Y-137480524D01*
X125463905Y-137528905D01*
X127012095Y-138254619D02*
X126431524Y-138254619D01*
X126721810Y-138254619D02*
X126721810Y-137238619D01*
X126625048Y-137383762D01*
X126528286Y-137480524D01*
X126431524Y-137528905D01*
X126189619Y-134424358D02*
X126189619Y-134946873D01*
X126189619Y-134685615D02*
X125173619Y-134558615D01*
X125318762Y-134663844D01*
X125415524Y-134763025D01*
X125463905Y-134856159D01*
X125173619Y-133731301D02*
X125173619Y-133644216D01*
X125222000Y-133563178D01*
X125270381Y-133525683D01*
X125367143Y-133494235D01*
X125560667Y-133474882D01*
X125802571Y-133505120D01*
X125996095Y-133572854D01*
X126092857Y-133628492D01*
X126141238Y-133678083D01*
X126189619Y-133771216D01*
X126189619Y-133858301D01*
X126141238Y-133939340D01*
X126092857Y-133976835D01*
X125996095Y-134008283D01*
X125802571Y-134027635D01*
X125560667Y-133997397D01*
X125367143Y-133929664D01*
X125270381Y-133874026D01*
X125222000Y-133824435D01*
X125173619Y-133731301D01*
X125173619Y-132860444D02*
X125173619Y-132773359D01*
X125222000Y-132692321D01*
X125270381Y-132654826D01*
X125367143Y-132623378D01*
X125560667Y-132604025D01*
X125802571Y-132634263D01*
X125996095Y-132701997D01*
X126092857Y-132757635D01*
X126141238Y-132807226D01*
X126189619Y-132900359D01*
X126189619Y-132987444D01*
X126141238Y-133068483D01*
X126092857Y-133105978D01*
X125996095Y-133137426D01*
X125802571Y-133156778D01*
X125560667Y-133126540D01*
X125367143Y-133058807D01*
X125270381Y-133003169D01*
X125222000Y-132953578D01*
X125173619Y-132860444D01*
X125512286Y-132206093D02*
X126189619Y-132290759D01*
X125609048Y-132218188D02*
X125560667Y-132168597D01*
X125512286Y-132075464D01*
X125512286Y-131944836D01*
X125560667Y-131863797D01*
X125657429Y-131832350D01*
X126189619Y-131898873D01*
X138411857Y-115297857D02*
X138363476Y-115346238D01*
X138218333Y-115394619D01*
X138121571Y-115394619D01*
X137976429Y-115346238D01*
X137879667Y-115249476D01*
X137831286Y-115152714D01*
X137782905Y-114959190D01*
X137782905Y-114814048D01*
X137831286Y-114620524D01*
X137879667Y-114523762D01*
X137976429Y-114427000D01*
X138121571Y-114378619D01*
X138218333Y-114378619D01*
X138363476Y-114427000D01*
X138411857Y-114475381D01*
X139379476Y-115394619D02*
X138798905Y-115394619D01*
X139089191Y-115394619D02*
X139089191Y-114378619D01*
X138992429Y-114523762D01*
X138895667Y-114620524D01*
X138798905Y-114668905D01*
X139766524Y-114475381D02*
X139814905Y-114427000D01*
X139911667Y-114378619D01*
X140153571Y-114378619D01*
X140250333Y-114427000D01*
X140298714Y-114475381D01*
X140347095Y-114572143D01*
X140347095Y-114668905D01*
X140298714Y-114814048D01*
X139718143Y-115394619D01*
X140347095Y-115394619D01*
X138889619Y-111564358D02*
X138889619Y-112086873D01*
X138889619Y-111825615D02*
X137873619Y-111698615D01*
X138018762Y-111803844D01*
X138115524Y-111903025D01*
X138163905Y-111996159D01*
X137873619Y-110871301D02*
X137873619Y-110784216D01*
X137922000Y-110703178D01*
X137970381Y-110665683D01*
X138067143Y-110634235D01*
X138260667Y-110614882D01*
X138502571Y-110645120D01*
X138696095Y-110712854D01*
X138792857Y-110768492D01*
X138841238Y-110818083D01*
X138889619Y-110911216D01*
X138889619Y-110998301D01*
X138841238Y-111079340D01*
X138792857Y-111116835D01*
X138696095Y-111148283D01*
X138502571Y-111167635D01*
X138260667Y-111137397D01*
X138067143Y-111069664D01*
X137970381Y-111014026D01*
X137922000Y-110964435D01*
X137873619Y-110871301D01*
X137873619Y-110000444D02*
X137873619Y-109913359D01*
X137922000Y-109832321D01*
X137970381Y-109794826D01*
X138067143Y-109763378D01*
X138260667Y-109744025D01*
X138502571Y-109774263D01*
X138696095Y-109841997D01*
X138792857Y-109897635D01*
X138841238Y-109947226D01*
X138889619Y-110040359D01*
X138889619Y-110127444D01*
X138841238Y-110208483D01*
X138792857Y-110245978D01*
X138696095Y-110277426D01*
X138502571Y-110296778D01*
X138260667Y-110266540D01*
X138067143Y-110198807D01*
X137970381Y-110143169D01*
X137922000Y-110093578D01*
X137873619Y-110000444D01*
X138212286Y-109346093D02*
X138889619Y-109430759D01*
X138309048Y-109358188D02*
X138260667Y-109308597D01*
X138212286Y-109215464D01*
X138212286Y-109084836D01*
X138260667Y-109003797D01*
X138357429Y-108972350D01*
X138889619Y-109038873D01*
X135871857Y-152762857D02*
X135823476Y-152811238D01*
X135678333Y-152859619D01*
X135581571Y-152859619D01*
X135436429Y-152811238D01*
X135339667Y-152714476D01*
X135291286Y-152617714D01*
X135242905Y-152424190D01*
X135242905Y-152279048D01*
X135291286Y-152085524D01*
X135339667Y-151988762D01*
X135436429Y-151892000D01*
X135581571Y-151843619D01*
X135678333Y-151843619D01*
X135823476Y-151892000D01*
X135871857Y-151940381D01*
X136839476Y-152859619D02*
X136258905Y-152859619D01*
X136549191Y-152859619D02*
X136549191Y-151843619D01*
X136452429Y-151988762D01*
X136355667Y-152085524D01*
X136258905Y-152133905D01*
X137178143Y-151843619D02*
X137807095Y-151843619D01*
X137468429Y-152230667D01*
X137613571Y-152230667D01*
X137710333Y-152279048D01*
X137758714Y-152327429D01*
X137807095Y-152424190D01*
X137807095Y-152666095D01*
X137758714Y-152762857D01*
X137710333Y-152811238D01*
X137613571Y-152859619D01*
X137323286Y-152859619D01*
X137226524Y-152811238D01*
X137178143Y-152762857D01*
X141165642Y-152859619D02*
X140643127Y-152859619D01*
X140904385Y-152859619D02*
X141031385Y-151843619D01*
X140926156Y-151988762D01*
X140826975Y-152085524D01*
X140733841Y-152133905D01*
X141858699Y-151843619D02*
X141945784Y-151843619D01*
X142026822Y-151892000D01*
X142064317Y-151940381D01*
X142095765Y-152037143D01*
X142115118Y-152230667D01*
X142084880Y-152472571D01*
X142017146Y-152666095D01*
X141961508Y-152762857D01*
X141911917Y-152811238D01*
X141818784Y-152859619D01*
X141731699Y-152859619D01*
X141650660Y-152811238D01*
X141613165Y-152762857D01*
X141581717Y-152666095D01*
X141562365Y-152472571D01*
X141592603Y-152230667D01*
X141660336Y-152037143D01*
X141715974Y-151940381D01*
X141765565Y-151892000D01*
X141858699Y-151843619D01*
X142729556Y-151843619D02*
X142816641Y-151843619D01*
X142897679Y-151892000D01*
X142935174Y-151940381D01*
X142966622Y-152037143D01*
X142985975Y-152230667D01*
X142955737Y-152472571D01*
X142888003Y-152666095D01*
X142832365Y-152762857D01*
X142782774Y-152811238D01*
X142689641Y-152859619D01*
X142602556Y-152859619D01*
X142521517Y-152811238D01*
X142484022Y-152762857D01*
X142452574Y-152666095D01*
X142433222Y-152472571D01*
X142463460Y-152230667D01*
X142531193Y-152037143D01*
X142586831Y-151940381D01*
X142636422Y-151892000D01*
X142729556Y-151843619D01*
X143383907Y-152182286D02*
X143299241Y-152859619D01*
X143371812Y-152279048D02*
X143421403Y-152230667D01*
X143514536Y-152182286D01*
X143645164Y-152182286D01*
X143726203Y-152230667D01*
X143757650Y-152327429D01*
X143691127Y-152859619D01*
X120949357Y-99422857D02*
X120900976Y-99471238D01*
X120755833Y-99519619D01*
X120659071Y-99519619D01*
X120513929Y-99471238D01*
X120417167Y-99374476D01*
X120368786Y-99277714D01*
X120320405Y-99084190D01*
X120320405Y-98939048D01*
X120368786Y-98745524D01*
X120417167Y-98648762D01*
X120513929Y-98552000D01*
X120659071Y-98503619D01*
X120755833Y-98503619D01*
X120900976Y-98552000D01*
X120949357Y-98600381D01*
X121916976Y-99519619D02*
X121336405Y-99519619D01*
X121626691Y-99519619D02*
X121626691Y-98503619D01*
X121529929Y-98648762D01*
X121433167Y-98745524D01*
X121336405Y-98793905D01*
X122787833Y-98842286D02*
X122787833Y-99519619D01*
X122545929Y-98455238D02*
X122304024Y-99180952D01*
X122932976Y-99180952D01*
X125925642Y-99519619D02*
X125403127Y-99519619D01*
X125664385Y-99519619D02*
X125791385Y-98503619D01*
X125686156Y-98648762D01*
X125586975Y-98745524D01*
X125493841Y-98793905D01*
X126618699Y-98503619D02*
X126705784Y-98503619D01*
X126786822Y-98552000D01*
X126824317Y-98600381D01*
X126855765Y-98697143D01*
X126875118Y-98890667D01*
X126844880Y-99132571D01*
X126777146Y-99326095D01*
X126721508Y-99422857D01*
X126671917Y-99471238D01*
X126578784Y-99519619D01*
X126491699Y-99519619D01*
X126410660Y-99471238D01*
X126373165Y-99422857D01*
X126341717Y-99326095D01*
X126322365Y-99132571D01*
X126352603Y-98890667D01*
X126420336Y-98697143D01*
X126475974Y-98600381D01*
X126525565Y-98552000D01*
X126618699Y-98503619D01*
X127489556Y-98503619D02*
X127576641Y-98503619D01*
X127657679Y-98552000D01*
X127695174Y-98600381D01*
X127726622Y-98697143D01*
X127745975Y-98890667D01*
X127715737Y-99132571D01*
X127648003Y-99326095D01*
X127592365Y-99422857D01*
X127542774Y-99471238D01*
X127449641Y-99519619D01*
X127362556Y-99519619D01*
X127281517Y-99471238D01*
X127244022Y-99422857D01*
X127212574Y-99326095D01*
X127193222Y-99132571D01*
X127223460Y-98890667D01*
X127291193Y-98697143D01*
X127346831Y-98600381D01*
X127396422Y-98552000D01*
X127489556Y-98503619D01*
X128143907Y-98842286D02*
X128059241Y-99519619D01*
X128131812Y-98939048D02*
X128181403Y-98890667D01*
X128274536Y-98842286D01*
X128405164Y-98842286D01*
X128486203Y-98890667D01*
X128517650Y-98987429D01*
X128451127Y-99519619D01*
X166986857Y-169907857D02*
X166938476Y-169956238D01*
X166793333Y-170004619D01*
X166696571Y-170004619D01*
X166551429Y-169956238D01*
X166454667Y-169859476D01*
X166406286Y-169762714D01*
X166357905Y-169569190D01*
X166357905Y-169424048D01*
X166406286Y-169230524D01*
X166454667Y-169133762D01*
X166551429Y-169037000D01*
X166696571Y-168988619D01*
X166793333Y-168988619D01*
X166938476Y-169037000D01*
X166986857Y-169085381D01*
X167954476Y-170004619D02*
X167373905Y-170004619D01*
X167664191Y-170004619D02*
X167664191Y-168988619D01*
X167567429Y-169133762D01*
X167470667Y-169230524D01*
X167373905Y-169278905D01*
X168873714Y-168988619D02*
X168389905Y-168988619D01*
X168341524Y-169472429D01*
X168389905Y-169424048D01*
X168486667Y-169375667D01*
X168728571Y-169375667D01*
X168825333Y-169424048D01*
X168873714Y-169472429D01*
X168922095Y-169569190D01*
X168922095Y-169811095D01*
X168873714Y-169907857D01*
X168825333Y-169956238D01*
X168728571Y-170004619D01*
X168486667Y-170004619D01*
X168389905Y-169956238D01*
X168341524Y-169907857D01*
X168099619Y-166174358D02*
X168099619Y-166696873D01*
X168099619Y-166435615D02*
X167083619Y-166308615D01*
X167228762Y-166413844D01*
X167325524Y-166513025D01*
X167373905Y-166606159D01*
X167083619Y-165481301D02*
X167083619Y-165394216D01*
X167132000Y-165313178D01*
X167180381Y-165275683D01*
X167277143Y-165244235D01*
X167470667Y-165224882D01*
X167712571Y-165255120D01*
X167906095Y-165322854D01*
X168002857Y-165378492D01*
X168051238Y-165428083D01*
X168099619Y-165521216D01*
X168099619Y-165608301D01*
X168051238Y-165689340D01*
X168002857Y-165726835D01*
X167906095Y-165758283D01*
X167712571Y-165777635D01*
X167470667Y-165747397D01*
X167277143Y-165679664D01*
X167180381Y-165624026D01*
X167132000Y-165574435D01*
X167083619Y-165481301D01*
X167083619Y-164610444D02*
X167083619Y-164523359D01*
X167132000Y-164442321D01*
X167180381Y-164404826D01*
X167277143Y-164373378D01*
X167470667Y-164354025D01*
X167712571Y-164384263D01*
X167906095Y-164451997D01*
X168002857Y-164507635D01*
X168051238Y-164557226D01*
X168099619Y-164650359D01*
X168099619Y-164737444D01*
X168051238Y-164818483D01*
X168002857Y-164855978D01*
X167906095Y-164887426D01*
X167712571Y-164906778D01*
X167470667Y-164876540D01*
X167277143Y-164808807D01*
X167180381Y-164753169D01*
X167132000Y-164703578D01*
X167083619Y-164610444D01*
X167422286Y-163956093D02*
X168099619Y-164040759D01*
X167519048Y-163968188D02*
X167470667Y-163918597D01*
X167422286Y-163825464D01*
X167422286Y-163694836D01*
X167470667Y-163613797D01*
X167567429Y-163582350D01*
X168099619Y-163648873D01*
X136252857Y-104983643D02*
X136301238Y-105032024D01*
X136349619Y-105177167D01*
X136349619Y-105273929D01*
X136301238Y-105419071D01*
X136204476Y-105515833D01*
X136107714Y-105564214D01*
X135914190Y-105612595D01*
X135769048Y-105612595D01*
X135575524Y-105564214D01*
X135478762Y-105515833D01*
X135382000Y-105419071D01*
X135333619Y-105273929D01*
X135333619Y-105177167D01*
X135382000Y-105032024D01*
X135430381Y-104983643D01*
X136349619Y-104016024D02*
X136349619Y-104596595D01*
X136349619Y-104306309D02*
X135333619Y-104306309D01*
X135478762Y-104403071D01*
X135575524Y-104499833D01*
X135623905Y-104596595D01*
X135333619Y-103145167D02*
X135333619Y-103338690D01*
X135382000Y-103435452D01*
X135430381Y-103483833D01*
X135575524Y-103580595D01*
X135769048Y-103628976D01*
X136156095Y-103628976D01*
X136252857Y-103580595D01*
X136301238Y-103532214D01*
X136349619Y-103435452D01*
X136349619Y-103241929D01*
X136301238Y-103145167D01*
X136252857Y-103096786D01*
X136156095Y-103048405D01*
X135914190Y-103048405D01*
X135817429Y-103096786D01*
X135769048Y-103145167D01*
X135720667Y-103241929D01*
X135720667Y-103435452D01*
X135769048Y-103532214D01*
X135817429Y-103580595D01*
X135914190Y-103628976D01*
X141165642Y-104599619D02*
X140643127Y-104599619D01*
X140904385Y-104599619D02*
X141031385Y-103583619D01*
X140926156Y-103728762D01*
X140826975Y-103825524D01*
X140733841Y-103873905D01*
X141858699Y-103583619D02*
X141945784Y-103583619D01*
X142026822Y-103632000D01*
X142064317Y-103680381D01*
X142095765Y-103777143D01*
X142115118Y-103970667D01*
X142084880Y-104212571D01*
X142017146Y-104406095D01*
X141961508Y-104502857D01*
X141911917Y-104551238D01*
X141818784Y-104599619D01*
X141731699Y-104599619D01*
X141650660Y-104551238D01*
X141613165Y-104502857D01*
X141581717Y-104406095D01*
X141562365Y-104212571D01*
X141592603Y-103970667D01*
X141660336Y-103777143D01*
X141715974Y-103680381D01*
X141765565Y-103632000D01*
X141858699Y-103583619D01*
X142729556Y-103583619D02*
X142816641Y-103583619D01*
X142897679Y-103632000D01*
X142935174Y-103680381D01*
X142966622Y-103777143D01*
X142985975Y-103970667D01*
X142955737Y-104212571D01*
X142888003Y-104406095D01*
X142832365Y-104502857D01*
X142782774Y-104551238D01*
X142689641Y-104599619D01*
X142602556Y-104599619D01*
X142521517Y-104551238D01*
X142484022Y-104502857D01*
X142452574Y-104406095D01*
X142433222Y-104212571D01*
X142463460Y-103970667D01*
X142531193Y-103777143D01*
X142586831Y-103680381D01*
X142636422Y-103632000D01*
X142729556Y-103583619D01*
X143383907Y-103922286D02*
X143299241Y-104599619D01*
X143371812Y-104019048D02*
X143421403Y-103970667D01*
X143514536Y-103922286D01*
X143645164Y-103922286D01*
X143726203Y-103970667D01*
X143757650Y-104067429D01*
X143691127Y-104599619D01*
X137776857Y-102597857D02*
X137728476Y-102646238D01*
X137583333Y-102694619D01*
X137486571Y-102694619D01*
X137341429Y-102646238D01*
X137244667Y-102549476D01*
X137196286Y-102452714D01*
X137147905Y-102259190D01*
X137147905Y-102114048D01*
X137196286Y-101920524D01*
X137244667Y-101823762D01*
X137341429Y-101727000D01*
X137486571Y-101678619D01*
X137583333Y-101678619D01*
X137728476Y-101727000D01*
X137776857Y-101775381D01*
X138744476Y-102694619D02*
X138163905Y-102694619D01*
X138454191Y-102694619D02*
X138454191Y-101678619D01*
X138357429Y-101823762D01*
X138260667Y-101920524D01*
X138163905Y-101968905D01*
X139083143Y-101678619D02*
X139760476Y-101678619D01*
X139325048Y-102694619D01*
X138889619Y-98864358D02*
X138889619Y-99386873D01*
X138889619Y-99125615D02*
X137873619Y-98998615D01*
X138018762Y-99103844D01*
X138115524Y-99203025D01*
X138163905Y-99296159D01*
X137873619Y-98171301D02*
X137873619Y-98084216D01*
X137922000Y-98003178D01*
X137970381Y-97965683D01*
X138067143Y-97934235D01*
X138260667Y-97914882D01*
X138502571Y-97945120D01*
X138696095Y-98012854D01*
X138792857Y-98068492D01*
X138841238Y-98118083D01*
X138889619Y-98211216D01*
X138889619Y-98298301D01*
X138841238Y-98379340D01*
X138792857Y-98416835D01*
X138696095Y-98448283D01*
X138502571Y-98467635D01*
X138260667Y-98437397D01*
X138067143Y-98369664D01*
X137970381Y-98314026D01*
X137922000Y-98264435D01*
X137873619Y-98171301D01*
X137873619Y-97300444D02*
X137873619Y-97213359D01*
X137922000Y-97132321D01*
X137970381Y-97094826D01*
X138067143Y-97063378D01*
X138260667Y-97044025D01*
X138502571Y-97074263D01*
X138696095Y-97141997D01*
X138792857Y-97197635D01*
X138841238Y-97247226D01*
X138889619Y-97340359D01*
X138889619Y-97427444D01*
X138841238Y-97508483D01*
X138792857Y-97545978D01*
X138696095Y-97577426D01*
X138502571Y-97596778D01*
X138260667Y-97566540D01*
X138067143Y-97498807D01*
X137970381Y-97443169D01*
X137922000Y-97393578D01*
X137873619Y-97300444D01*
X138212286Y-96646093D02*
X138889619Y-96730759D01*
X138309048Y-96658188D02*
X138260667Y-96608597D01*
X138212286Y-96515464D01*
X138212286Y-96384836D01*
X138260667Y-96303797D01*
X138357429Y-96272350D01*
X138889619Y-96338873D01*
X137840357Y-105047143D02*
X137888738Y-105095524D01*
X137937119Y-105240667D01*
X137937119Y-105337429D01*
X137888738Y-105482571D01*
X137791976Y-105579333D01*
X137695214Y-105627714D01*
X137501690Y-105676095D01*
X137356548Y-105676095D01*
X137163024Y-105627714D01*
X137066262Y-105579333D01*
X136969500Y-105482571D01*
X136921119Y-105337429D01*
X136921119Y-105240667D01*
X136969500Y-105095524D01*
X137017881Y-105047143D01*
X137937119Y-104079524D02*
X137937119Y-104660095D01*
X137937119Y-104369809D02*
X136921119Y-104369809D01*
X137066262Y-104466571D01*
X137163024Y-104563333D01*
X137211405Y-104660095D01*
X137356548Y-103498952D02*
X137308167Y-103595714D01*
X137259786Y-103644095D01*
X137163024Y-103692476D01*
X137114643Y-103692476D01*
X137017881Y-103644095D01*
X136969500Y-103595714D01*
X136921119Y-103498952D01*
X136921119Y-103305429D01*
X136969500Y-103208667D01*
X137017881Y-103160286D01*
X137114643Y-103111905D01*
X137163024Y-103111905D01*
X137259786Y-103160286D01*
X137308167Y-103208667D01*
X137356548Y-103305429D01*
X137356548Y-103498952D01*
X137404929Y-103595714D01*
X137453310Y-103644095D01*
X137550071Y-103692476D01*
X137743595Y-103692476D01*
X137840357Y-103644095D01*
X137888738Y-103595714D01*
X137937119Y-103498952D01*
X137937119Y-103305429D01*
X137888738Y-103208667D01*
X137840357Y-103160286D01*
X137743595Y-103111905D01*
X137550071Y-103111905D01*
X137453310Y-103160286D01*
X137404929Y-103208667D01*
X137356548Y-103305429D01*
X148785642Y-104599619D02*
X148263127Y-104599619D01*
X148524385Y-104599619D02*
X148651385Y-103583619D01*
X148546156Y-103728762D01*
X148446975Y-103825524D01*
X148353841Y-103873905D01*
X149478699Y-103583619D02*
X149565784Y-103583619D01*
X149646822Y-103632000D01*
X149684317Y-103680381D01*
X149715765Y-103777143D01*
X149735118Y-103970667D01*
X149704880Y-104212571D01*
X149637146Y-104406095D01*
X149581508Y-104502857D01*
X149531917Y-104551238D01*
X149438784Y-104599619D01*
X149351699Y-104599619D01*
X149270660Y-104551238D01*
X149233165Y-104502857D01*
X149201717Y-104406095D01*
X149182365Y-104212571D01*
X149212603Y-103970667D01*
X149280336Y-103777143D01*
X149335974Y-103680381D01*
X149385565Y-103632000D01*
X149478699Y-103583619D01*
X150349556Y-103583619D02*
X150436641Y-103583619D01*
X150517679Y-103632000D01*
X150555174Y-103680381D01*
X150586622Y-103777143D01*
X150605975Y-103970667D01*
X150575737Y-104212571D01*
X150508003Y-104406095D01*
X150452365Y-104502857D01*
X150402774Y-104551238D01*
X150309641Y-104599619D01*
X150222556Y-104599619D01*
X150141517Y-104551238D01*
X150104022Y-104502857D01*
X150072574Y-104406095D01*
X150053222Y-104212571D01*
X150083460Y-103970667D01*
X150151193Y-103777143D01*
X150206831Y-103680381D01*
X150256422Y-103632000D01*
X150349556Y-103583619D01*
X151003907Y-103922286D02*
X150919241Y-104599619D01*
X150991812Y-104019048D02*
X151041403Y-103970667D01*
X151134536Y-103922286D01*
X151265164Y-103922286D01*
X151346203Y-103970667D01*
X151377650Y-104067429D01*
X151311127Y-104599619D01*
X162605357Y-104793143D02*
X162653738Y-104841524D01*
X162702119Y-104986667D01*
X162702119Y-105083429D01*
X162653738Y-105228571D01*
X162556976Y-105325333D01*
X162460214Y-105373714D01*
X162266690Y-105422095D01*
X162121548Y-105422095D01*
X161928024Y-105373714D01*
X161831262Y-105325333D01*
X161734500Y-105228571D01*
X161686119Y-105083429D01*
X161686119Y-104986667D01*
X161734500Y-104841524D01*
X161782881Y-104793143D01*
X162702119Y-103825524D02*
X162702119Y-104406095D01*
X162702119Y-104115809D02*
X161686119Y-104115809D01*
X161831262Y-104212571D01*
X161928024Y-104309333D01*
X161976405Y-104406095D01*
X162702119Y-103341714D02*
X162702119Y-103148190D01*
X162653738Y-103051429D01*
X162605357Y-103003048D01*
X162460214Y-102906286D01*
X162266690Y-102857905D01*
X161879643Y-102857905D01*
X161782881Y-102906286D01*
X161734500Y-102954667D01*
X161686119Y-103051429D01*
X161686119Y-103244952D01*
X161734500Y-103341714D01*
X161782881Y-103390095D01*
X161879643Y-103438476D01*
X162121548Y-103438476D01*
X162218310Y-103390095D01*
X162266690Y-103341714D01*
X162315071Y-103244952D01*
X162315071Y-103051429D01*
X162266690Y-102954667D01*
X162218310Y-102906286D01*
X162121548Y-102857905D01*
X156405642Y-104599619D02*
X155883127Y-104599619D01*
X156144385Y-104599619D02*
X156271385Y-103583619D01*
X156166156Y-103728762D01*
X156066975Y-103825524D01*
X155973841Y-103873905D01*
X157098699Y-103583619D02*
X157185784Y-103583619D01*
X157266822Y-103632000D01*
X157304317Y-103680381D01*
X157335765Y-103777143D01*
X157355118Y-103970667D01*
X157324880Y-104212571D01*
X157257146Y-104406095D01*
X157201508Y-104502857D01*
X157151917Y-104551238D01*
X157058784Y-104599619D01*
X156971699Y-104599619D01*
X156890660Y-104551238D01*
X156853165Y-104502857D01*
X156821717Y-104406095D01*
X156802365Y-104212571D01*
X156832603Y-103970667D01*
X156900336Y-103777143D01*
X156955974Y-103680381D01*
X157005565Y-103632000D01*
X157098699Y-103583619D01*
X157969556Y-103583619D02*
X158056641Y-103583619D01*
X158137679Y-103632000D01*
X158175174Y-103680381D01*
X158206622Y-103777143D01*
X158225975Y-103970667D01*
X158195737Y-104212571D01*
X158128003Y-104406095D01*
X158072365Y-104502857D01*
X158022774Y-104551238D01*
X157929641Y-104599619D01*
X157842556Y-104599619D01*
X157761517Y-104551238D01*
X157724022Y-104502857D01*
X157692574Y-104406095D01*
X157673222Y-104212571D01*
X157703460Y-103970667D01*
X157771193Y-103777143D01*
X157826831Y-103680381D01*
X157876422Y-103632000D01*
X157969556Y-103583619D01*
X158623907Y-103922286D02*
X158539241Y-104599619D01*
X158611812Y-104019048D02*
X158661403Y-103970667D01*
X158754536Y-103922286D01*
X158885164Y-103922286D01*
X158966203Y-103970667D01*
X158997650Y-104067429D01*
X158931127Y-104599619D01*
X136252857Y-92728143D02*
X136301238Y-92776524D01*
X136349619Y-92921667D01*
X136349619Y-93018429D01*
X136301238Y-93163571D01*
X136204476Y-93260333D01*
X136107714Y-93308714D01*
X135914190Y-93357095D01*
X135769048Y-93357095D01*
X135575524Y-93308714D01*
X135478762Y-93260333D01*
X135382000Y-93163571D01*
X135333619Y-93018429D01*
X135333619Y-92921667D01*
X135382000Y-92776524D01*
X135430381Y-92728143D01*
X135430381Y-92341095D02*
X135382000Y-92292714D01*
X135333619Y-92195952D01*
X135333619Y-91954048D01*
X135382000Y-91857286D01*
X135430381Y-91808905D01*
X135527143Y-91760524D01*
X135623905Y-91760524D01*
X135769048Y-91808905D01*
X136349619Y-92389476D01*
X136349619Y-91760524D01*
X135333619Y-91131571D02*
X135333619Y-91034810D01*
X135382000Y-90938048D01*
X135430381Y-90889667D01*
X135527143Y-90841286D01*
X135720667Y-90792905D01*
X135962571Y-90792905D01*
X136156095Y-90841286D01*
X136252857Y-90889667D01*
X136301238Y-90938048D01*
X136349619Y-91034810D01*
X136349619Y-91131571D01*
X136301238Y-91228333D01*
X136252857Y-91276714D01*
X136156095Y-91325095D01*
X135962571Y-91373476D01*
X135720667Y-91373476D01*
X135527143Y-91325095D01*
X135430381Y-91276714D01*
X135382000Y-91228333D01*
X135333619Y-91131571D01*
X141165642Y-91899619D02*
X140643127Y-91899619D01*
X140904385Y-91899619D02*
X141031385Y-90883619D01*
X140926156Y-91028762D01*
X140826975Y-91125524D01*
X140733841Y-91173905D01*
X141858699Y-90883619D02*
X141945784Y-90883619D01*
X142026822Y-90932000D01*
X142064317Y-90980381D01*
X142095765Y-91077143D01*
X142115118Y-91270667D01*
X142084880Y-91512571D01*
X142017146Y-91706095D01*
X141961508Y-91802857D01*
X141911917Y-91851238D01*
X141818784Y-91899619D01*
X141731699Y-91899619D01*
X141650660Y-91851238D01*
X141613165Y-91802857D01*
X141581717Y-91706095D01*
X141562365Y-91512571D01*
X141592603Y-91270667D01*
X141660336Y-91077143D01*
X141715974Y-90980381D01*
X141765565Y-90932000D01*
X141858699Y-90883619D01*
X142729556Y-90883619D02*
X142816641Y-90883619D01*
X142897679Y-90932000D01*
X142935174Y-90980381D01*
X142966622Y-91077143D01*
X142985975Y-91270667D01*
X142955737Y-91512571D01*
X142888003Y-91706095D01*
X142832365Y-91802857D01*
X142782774Y-91851238D01*
X142689641Y-91899619D01*
X142602556Y-91899619D01*
X142521517Y-91851238D01*
X142484022Y-91802857D01*
X142452574Y-91706095D01*
X142433222Y-91512571D01*
X142463460Y-91270667D01*
X142531193Y-91077143D01*
X142586831Y-90980381D01*
X142636422Y-90932000D01*
X142729556Y-90883619D01*
X143383907Y-91222286D02*
X143299241Y-91899619D01*
X143371812Y-91319048D02*
X143421403Y-91270667D01*
X143514536Y-91222286D01*
X143645164Y-91222286D01*
X143726203Y-91270667D01*
X143757650Y-91367429D01*
X143691127Y-91899619D01*
X137776857Y-89897857D02*
X137728476Y-89946238D01*
X137583333Y-89994619D01*
X137486571Y-89994619D01*
X137341429Y-89946238D01*
X137244667Y-89849476D01*
X137196286Y-89752714D01*
X137147905Y-89559190D01*
X137147905Y-89414048D01*
X137196286Y-89220524D01*
X137244667Y-89123762D01*
X137341429Y-89027000D01*
X137486571Y-88978619D01*
X137583333Y-88978619D01*
X137728476Y-89027000D01*
X137776857Y-89075381D01*
X138163905Y-89075381D02*
X138212286Y-89027000D01*
X138309048Y-88978619D01*
X138550952Y-88978619D01*
X138647714Y-89027000D01*
X138696095Y-89075381D01*
X138744476Y-89172143D01*
X138744476Y-89268905D01*
X138696095Y-89414048D01*
X138115524Y-89994619D01*
X138744476Y-89994619D01*
X139712095Y-89994619D02*
X139131524Y-89994619D01*
X139421810Y-89994619D02*
X139421810Y-88978619D01*
X139325048Y-89123762D01*
X139228286Y-89220524D01*
X139131524Y-89268905D01*
X138889619Y-86164358D02*
X138889619Y-86686873D01*
X138889619Y-86425615D02*
X137873619Y-86298615D01*
X138018762Y-86403844D01*
X138115524Y-86503025D01*
X138163905Y-86596159D01*
X137873619Y-85471301D02*
X137873619Y-85384216D01*
X137922000Y-85303178D01*
X137970381Y-85265683D01*
X138067143Y-85234235D01*
X138260667Y-85214882D01*
X138502571Y-85245120D01*
X138696095Y-85312854D01*
X138792857Y-85368492D01*
X138841238Y-85418083D01*
X138889619Y-85511216D01*
X138889619Y-85598301D01*
X138841238Y-85679340D01*
X138792857Y-85716835D01*
X138696095Y-85748283D01*
X138502571Y-85767635D01*
X138260667Y-85737397D01*
X138067143Y-85669664D01*
X137970381Y-85614026D01*
X137922000Y-85564435D01*
X137873619Y-85471301D01*
X137873619Y-84600444D02*
X137873619Y-84513359D01*
X137922000Y-84432321D01*
X137970381Y-84394826D01*
X138067143Y-84363378D01*
X138260667Y-84344025D01*
X138502571Y-84374263D01*
X138696095Y-84441997D01*
X138792857Y-84497635D01*
X138841238Y-84547226D01*
X138889619Y-84640359D01*
X138889619Y-84727444D01*
X138841238Y-84808483D01*
X138792857Y-84845978D01*
X138696095Y-84877426D01*
X138502571Y-84896778D01*
X138260667Y-84866540D01*
X138067143Y-84798807D01*
X137970381Y-84743169D01*
X137922000Y-84693578D01*
X137873619Y-84600444D01*
X138212286Y-83946093D02*
X138889619Y-84030759D01*
X138309048Y-83958188D02*
X138260667Y-83908597D01*
X138212286Y-83815464D01*
X138212286Y-83684836D01*
X138260667Y-83603797D01*
X138357429Y-83572350D01*
X138889619Y-83638873D01*
X137840357Y-92728143D02*
X137888738Y-92776524D01*
X137937119Y-92921667D01*
X137937119Y-93018429D01*
X137888738Y-93163571D01*
X137791976Y-93260333D01*
X137695214Y-93308714D01*
X137501690Y-93357095D01*
X137356548Y-93357095D01*
X137163024Y-93308714D01*
X137066262Y-93260333D01*
X136969500Y-93163571D01*
X136921119Y-93018429D01*
X136921119Y-92921667D01*
X136969500Y-92776524D01*
X137017881Y-92728143D01*
X137017881Y-92341095D02*
X136969500Y-92292714D01*
X136921119Y-92195952D01*
X136921119Y-91954048D01*
X136969500Y-91857286D01*
X137017881Y-91808905D01*
X137114643Y-91760524D01*
X137211405Y-91760524D01*
X137356548Y-91808905D01*
X137937119Y-92389476D01*
X137937119Y-91760524D01*
X137017881Y-91373476D02*
X136969500Y-91325095D01*
X136921119Y-91228333D01*
X136921119Y-90986429D01*
X136969500Y-90889667D01*
X137017881Y-90841286D01*
X137114643Y-90792905D01*
X137211405Y-90792905D01*
X137356548Y-90841286D01*
X137937119Y-91421857D01*
X137937119Y-90792905D01*
X148785642Y-91899619D02*
X148263127Y-91899619D01*
X148524385Y-91899619D02*
X148651385Y-90883619D01*
X148546156Y-91028762D01*
X148446975Y-91125524D01*
X148353841Y-91173905D01*
X149478699Y-90883619D02*
X149565784Y-90883619D01*
X149646822Y-90932000D01*
X149684317Y-90980381D01*
X149715765Y-91077143D01*
X149735118Y-91270667D01*
X149704880Y-91512571D01*
X149637146Y-91706095D01*
X149581508Y-91802857D01*
X149531917Y-91851238D01*
X149438784Y-91899619D01*
X149351699Y-91899619D01*
X149270660Y-91851238D01*
X149233165Y-91802857D01*
X149201717Y-91706095D01*
X149182365Y-91512571D01*
X149212603Y-91270667D01*
X149280336Y-91077143D01*
X149335974Y-90980381D01*
X149385565Y-90932000D01*
X149478699Y-90883619D01*
X150349556Y-90883619D02*
X150436641Y-90883619D01*
X150517679Y-90932000D01*
X150555174Y-90980381D01*
X150586622Y-91077143D01*
X150605975Y-91270667D01*
X150575737Y-91512571D01*
X150508003Y-91706095D01*
X150452365Y-91802857D01*
X150402774Y-91851238D01*
X150309641Y-91899619D01*
X150222556Y-91899619D01*
X150141517Y-91851238D01*
X150104022Y-91802857D01*
X150072574Y-91706095D01*
X150053222Y-91512571D01*
X150083460Y-91270667D01*
X150151193Y-91077143D01*
X150206831Y-90980381D01*
X150256422Y-90932000D01*
X150349556Y-90883619D01*
X151003907Y-91222286D02*
X150919241Y-91899619D01*
X150991812Y-91319048D02*
X151041403Y-91270667D01*
X151134536Y-91222286D01*
X151265164Y-91222286D01*
X151346203Y-91270667D01*
X151377650Y-91367429D01*
X151311127Y-91899619D01*
X162605357Y-92093143D02*
X162653738Y-92141524D01*
X162702119Y-92286667D01*
X162702119Y-92383429D01*
X162653738Y-92528571D01*
X162556976Y-92625333D01*
X162460214Y-92673714D01*
X162266690Y-92722095D01*
X162121548Y-92722095D01*
X161928024Y-92673714D01*
X161831262Y-92625333D01*
X161734500Y-92528571D01*
X161686119Y-92383429D01*
X161686119Y-92286667D01*
X161734500Y-92141524D01*
X161782881Y-92093143D01*
X161782881Y-91706095D02*
X161734500Y-91657714D01*
X161686119Y-91560952D01*
X161686119Y-91319048D01*
X161734500Y-91222286D01*
X161782881Y-91173905D01*
X161879643Y-91125524D01*
X161976405Y-91125524D01*
X162121548Y-91173905D01*
X162702119Y-91754476D01*
X162702119Y-91125524D01*
X161686119Y-90786857D02*
X161686119Y-90157905D01*
X162073167Y-90496571D01*
X162073167Y-90351429D01*
X162121548Y-90254667D01*
X162169929Y-90206286D01*
X162266690Y-90157905D01*
X162508595Y-90157905D01*
X162605357Y-90206286D01*
X162653738Y-90254667D01*
X162702119Y-90351429D01*
X162702119Y-90641714D01*
X162653738Y-90738476D01*
X162605357Y-90786857D01*
X156723142Y-91899619D02*
X156200627Y-91899619D01*
X156461885Y-91899619D02*
X156588885Y-90883619D01*
X156483656Y-91028762D01*
X156384475Y-91125524D01*
X156291341Y-91173905D01*
X157416199Y-90883619D02*
X157503284Y-90883619D01*
X157584322Y-90932000D01*
X157621817Y-90980381D01*
X157653265Y-91077143D01*
X157672618Y-91270667D01*
X157642380Y-91512571D01*
X157574646Y-91706095D01*
X157519008Y-91802857D01*
X157469417Y-91851238D01*
X157376284Y-91899619D01*
X157289199Y-91899619D01*
X157208160Y-91851238D01*
X157170665Y-91802857D01*
X157139217Y-91706095D01*
X157119865Y-91512571D01*
X157150103Y-91270667D01*
X157217836Y-91077143D01*
X157273474Y-90980381D01*
X157323065Y-90932000D01*
X157416199Y-90883619D01*
X158287056Y-90883619D02*
X158374141Y-90883619D01*
X158455179Y-90932000D01*
X158492674Y-90980381D01*
X158524122Y-91077143D01*
X158543475Y-91270667D01*
X158513237Y-91512571D01*
X158445503Y-91706095D01*
X158389865Y-91802857D01*
X158340274Y-91851238D01*
X158247141Y-91899619D01*
X158160056Y-91899619D01*
X158079017Y-91851238D01*
X158041522Y-91802857D01*
X158010074Y-91706095D01*
X157990722Y-91512571D01*
X158020960Y-91270667D01*
X158088693Y-91077143D01*
X158144331Y-90980381D01*
X158193922Y-90932000D01*
X158287056Y-90883619D01*
X158941407Y-91222286D02*
X158856741Y-91899619D01*
X158929312Y-91319048D02*
X158978903Y-91270667D01*
X159072036Y-91222286D01*
X159202664Y-91222286D01*
X159283703Y-91270667D01*
X159315150Y-91367429D01*
X159248627Y-91899619D01*
X161906857Y-157207857D02*
X161858476Y-157256238D01*
X161713333Y-157304619D01*
X161616571Y-157304619D01*
X161471429Y-157256238D01*
X161374667Y-157159476D01*
X161326286Y-157062714D01*
X161277905Y-156869190D01*
X161277905Y-156724048D01*
X161326286Y-156530524D01*
X161374667Y-156433762D01*
X161471429Y-156337000D01*
X161616571Y-156288619D01*
X161713333Y-156288619D01*
X161858476Y-156337000D01*
X161906857Y-156385381D01*
X162293905Y-156385381D02*
X162342286Y-156337000D01*
X162439048Y-156288619D01*
X162680952Y-156288619D01*
X162777714Y-156337000D01*
X162826095Y-156385381D01*
X162874476Y-156482143D01*
X162874476Y-156578905D01*
X162826095Y-156724048D01*
X162245524Y-157304619D01*
X162874476Y-157304619D01*
X163745333Y-156627286D02*
X163745333Y-157304619D01*
X163503429Y-156240238D02*
X163261524Y-156965952D01*
X163890476Y-156965952D01*
X161918650Y-158214786D02*
X161833984Y-158892119D01*
X161749317Y-157827738D02*
X161440888Y-158553452D01*
X162006946Y-158553452D01*
X162352870Y-157876119D02*
X162962470Y-157876119D01*
X162443584Y-158892119D01*
X163660364Y-158214786D02*
X163575698Y-158892119D01*
X163268478Y-158214786D02*
X163201955Y-158746976D01*
X163233402Y-158843738D01*
X163314441Y-158892119D01*
X163445069Y-158892119D01*
X163538202Y-158843738D01*
X163587793Y-158795357D01*
X158362953Y-162632571D02*
X159137048Y-162632571D01*
X158750000Y-163019619D02*
X158750000Y-162245524D01*
X116501333Y-172163619D02*
X116501333Y-172889333D01*
X116452953Y-173034476D01*
X116356191Y-173131238D01*
X116211048Y-173179619D01*
X116114286Y-173179619D01*
X117420571Y-172163619D02*
X117227048Y-172163619D01*
X117130286Y-172212000D01*
X117081905Y-172260381D01*
X116985143Y-172405524D01*
X116936762Y-172599048D01*
X116936762Y-172986095D01*
X116985143Y-173082857D01*
X117033524Y-173131238D01*
X117130286Y-173179619D01*
X117323809Y-173179619D01*
X117420571Y-173131238D01*
X117468952Y-173082857D01*
X117517333Y-172986095D01*
X117517333Y-172744190D01*
X117468952Y-172647429D01*
X117420571Y-172599048D01*
X117323809Y-172550667D01*
X117130286Y-172550667D01*
X117033524Y-172599048D01*
X116985143Y-172647429D01*
X116936762Y-172744190D01*
X167301333Y-145493619D02*
X167301333Y-146219333D01*
X167252953Y-146364476D01*
X167156191Y-146461238D01*
X167011048Y-146509619D01*
X166914286Y-146509619D01*
X167736762Y-145590381D02*
X167785143Y-145542000D01*
X167881905Y-145493619D01*
X168123809Y-145493619D01*
X168220571Y-145542000D01*
X168268952Y-145590381D01*
X168317333Y-145687143D01*
X168317333Y-145783905D01*
X168268952Y-145929048D01*
X167688381Y-146509619D01*
X168317333Y-146509619D01*
X170140388Y-146461238D02*
X170264970Y-146509619D01*
X170482684Y-146509619D01*
X170575817Y-146461238D01*
X170625408Y-146412857D01*
X170681046Y-146316095D01*
X170693141Y-146219333D01*
X170661694Y-146122571D01*
X170624198Y-146074190D01*
X170543160Y-146025810D01*
X170375036Y-145977429D01*
X170293998Y-145929048D01*
X170256503Y-145880667D01*
X170225055Y-145783905D01*
X170237150Y-145687143D01*
X170292788Y-145590381D01*
X170342379Y-145542000D01*
X170435513Y-145493619D01*
X170653227Y-145493619D01*
X170777808Y-145542000D01*
X171115264Y-145977429D02*
X171420064Y-145977429D01*
X171484170Y-146509619D02*
X171048741Y-146509619D01*
X171175741Y-145493619D01*
X171611170Y-145493619D01*
X172398570Y-146509619D02*
X172154246Y-146025810D01*
X171876055Y-146509619D02*
X172003055Y-145493619D01*
X172351398Y-145493619D01*
X172432436Y-145542000D01*
X172469931Y-145590381D01*
X172501379Y-145687143D01*
X172483236Y-145832286D01*
X172427598Y-145929048D01*
X172378007Y-145977429D01*
X172284874Y-146025810D01*
X171936531Y-146025810D01*
X172790455Y-146509619D02*
X172917455Y-145493619D01*
X173218626Y-146219333D02*
X173654055Y-146219333D01*
X173095256Y-146509619D02*
X173527056Y-145493619D01*
X173704856Y-146509619D01*
X174445084Y-146509619D02*
X174009655Y-146509619D01*
X174136655Y-145493619D01*
X174520074Y-146606381D02*
X175216760Y-146606381D01*
X175439312Y-146219333D02*
X175874741Y-146219333D01*
X175315942Y-146509619D02*
X175747742Y-145493619D01*
X175925542Y-146509619D01*
X166983833Y-109933619D02*
X166983833Y-110659333D01*
X166935453Y-110804476D01*
X166838691Y-110901238D01*
X166693548Y-110949619D01*
X166596786Y-110949619D01*
X167370881Y-109933619D02*
X167999833Y-109933619D01*
X167661167Y-110320667D01*
X167806309Y-110320667D01*
X167903071Y-110369048D01*
X167951452Y-110417429D01*
X167999833Y-110514190D01*
X167999833Y-110756095D01*
X167951452Y-110852857D01*
X167903071Y-110901238D01*
X167806309Y-110949619D01*
X167516024Y-110949619D01*
X167419262Y-110901238D01*
X167370881Y-110852857D01*
X169757573Y-110901238D02*
X169882155Y-110949619D01*
X170099869Y-110949619D01*
X170193002Y-110901238D01*
X170242593Y-110852857D01*
X170298231Y-110756095D01*
X170310326Y-110659333D01*
X170278879Y-110562571D01*
X170241383Y-110514190D01*
X170160345Y-110465810D01*
X169992221Y-110417429D01*
X169911183Y-110369048D01*
X169873688Y-110320667D01*
X169842240Y-110223905D01*
X169854335Y-110127143D01*
X169909973Y-110030381D01*
X169959564Y-109982000D01*
X170052698Y-109933619D01*
X170270412Y-109933619D01*
X170394993Y-109982000D01*
X170732449Y-110417429D02*
X171037249Y-110417429D01*
X171101355Y-110949619D02*
X170665926Y-110949619D01*
X170792926Y-109933619D01*
X171228355Y-109933619D01*
X172015755Y-110949619D02*
X171771431Y-110465810D01*
X171493240Y-110949619D02*
X171620240Y-109933619D01*
X171968583Y-109933619D01*
X172049621Y-109982000D01*
X172087116Y-110030381D01*
X172118564Y-110127143D01*
X172100421Y-110272286D01*
X172044783Y-110369048D01*
X171995192Y-110417429D01*
X171902059Y-110465810D01*
X171553716Y-110465810D01*
X172407640Y-110949619D02*
X172534640Y-109933619D01*
X172835811Y-110659333D02*
X173271240Y-110659333D01*
X172712441Y-110949619D02*
X173144241Y-109933619D01*
X173322041Y-110949619D01*
X174062269Y-110949619D02*
X173626840Y-110949619D01*
X173753840Y-109933619D01*
X174137259Y-111046381D02*
X174833945Y-111046381D01*
X175435078Y-110417429D02*
X175559660Y-110465810D01*
X175597155Y-110514190D01*
X175628603Y-110610952D01*
X175610460Y-110756095D01*
X175554822Y-110852857D01*
X175505231Y-110901238D01*
X175412098Y-110949619D01*
X175063755Y-110949619D01*
X175190755Y-109933619D01*
X175495555Y-109933619D01*
X175576593Y-109982000D01*
X175614088Y-110030381D01*
X175645536Y-110127143D01*
X175633441Y-110223905D01*
X175577803Y-110320667D01*
X175528212Y-110369048D01*
X175435078Y-110417429D01*
X175130278Y-110417429D01*
X168571333Y-158511119D02*
X168571333Y-159236833D01*
X168522953Y-159381976D01*
X168426191Y-159478738D01*
X168281048Y-159527119D01*
X168184286Y-159527119D01*
X169587333Y-159527119D02*
X169006762Y-159527119D01*
X169297048Y-159527119D02*
X169297048Y-158511119D01*
X169200286Y-158656262D01*
X169103524Y-158753024D01*
X169006762Y-158801405D01*
X171827069Y-159527119D02*
X171954069Y-158511119D01*
X172302412Y-158511119D01*
X172383450Y-158559500D01*
X172420945Y-158607881D01*
X172452393Y-158704643D01*
X172434250Y-158849786D01*
X172378612Y-158946548D01*
X172329021Y-158994929D01*
X172235888Y-159043310D01*
X171887545Y-159043310D01*
X173042641Y-158511119D02*
X173216812Y-158511119D01*
X173297850Y-158559500D01*
X173372841Y-158656262D01*
X173392192Y-158849786D01*
X173349859Y-159188452D01*
X173282127Y-159381976D01*
X173182945Y-159478738D01*
X173089812Y-159527119D01*
X172915641Y-159527119D01*
X172834602Y-159478738D01*
X172759612Y-159381976D01*
X172740259Y-159188452D01*
X172782592Y-158849786D01*
X172850326Y-158656262D01*
X172949507Y-158559500D01*
X173042641Y-158511119D01*
X173739327Y-158511119D02*
X173830041Y-159527119D01*
X174094926Y-158801405D01*
X174178384Y-159527119D01*
X174523098Y-158511119D01*
X174810964Y-158994929D02*
X175115764Y-158994929D01*
X175179870Y-159527119D02*
X174744441Y-159527119D01*
X174871441Y-158511119D01*
X175306870Y-158511119D01*
X176094270Y-159527119D02*
X175849946Y-159043310D01*
X175571755Y-159527119D02*
X175698755Y-158511119D01*
X176047098Y-158511119D01*
X176128136Y-158559500D01*
X176165631Y-158607881D01*
X176197079Y-158704643D01*
X176178936Y-158849786D01*
X176123298Y-158946548D01*
X176073707Y-158994929D01*
X175980574Y-159043310D01*
X175632231Y-159043310D01*
X138142738Y-168196381D02*
X138045976Y-168148000D01*
X137949214Y-168051238D01*
X137804071Y-167906095D01*
X137707310Y-167857714D01*
X137610548Y-167857714D01*
X137658929Y-168099619D02*
X137562167Y-168051238D01*
X137465405Y-167954476D01*
X137417024Y-167760952D01*
X137417024Y-167422286D01*
X137465405Y-167228762D01*
X137562167Y-167132000D01*
X137658929Y-167083619D01*
X137852452Y-167083619D01*
X137949214Y-167132000D01*
X138045976Y-167228762D01*
X138094357Y-167422286D01*
X138094357Y-167760952D01*
X138045976Y-167954476D01*
X137949214Y-168051238D01*
X137852452Y-168099619D01*
X137658929Y-168099619D01*
X139061976Y-167132000D02*
X138965214Y-167083619D01*
X138820071Y-167083619D01*
X138674929Y-167132000D01*
X138578167Y-167228762D01*
X138529786Y-167325524D01*
X138481405Y-167519048D01*
X138481405Y-167664190D01*
X138529786Y-167857714D01*
X138578167Y-167954476D01*
X138674929Y-168051238D01*
X138820071Y-168099619D01*
X138916833Y-168099619D01*
X139061976Y-168051238D01*
X139110357Y-168002857D01*
X139110357Y-167664190D01*
X138916833Y-167664190D01*
X140077976Y-168099619D02*
X139497405Y-168099619D01*
X139787691Y-168099619D02*
X139787691Y-167083619D01*
X139690929Y-167228762D01*
X139594167Y-167325524D01*
X139497405Y-167373905D01*
X146040627Y-168099619D02*
X145518112Y-168099619D01*
X145779370Y-168099619D02*
X145906370Y-167083619D01*
X145801141Y-167228762D01*
X145701960Y-167325524D01*
X145608826Y-167373905D01*
X146733684Y-167083619D02*
X146820769Y-167083619D01*
X146901807Y-167132000D01*
X146939302Y-167180381D01*
X146970750Y-167277143D01*
X146990103Y-167470667D01*
X146959865Y-167712571D01*
X146892131Y-167906095D01*
X146836493Y-168002857D01*
X146786902Y-168051238D01*
X146693769Y-168099619D01*
X146606684Y-168099619D01*
X146525645Y-168051238D01*
X146488150Y-168002857D01*
X146456702Y-167906095D01*
X146437350Y-167712571D01*
X146467588Y-167470667D01*
X146535321Y-167277143D01*
X146590959Y-167180381D01*
X146640550Y-167132000D01*
X146733684Y-167083619D01*
X147303369Y-168099619D02*
X147430369Y-167083619D01*
X147644454Y-167809333D01*
X148039969Y-167083619D01*
X147912969Y-168099619D01*
X148348398Y-168099619D02*
X148475398Y-167083619D01*
X148414921Y-167567429D02*
X148937436Y-167567429D01*
X148870913Y-168099619D02*
X148997913Y-167083619D01*
X149303922Y-167422286D02*
X149782893Y-167422286D01*
X149219256Y-168099619D01*
X149698227Y-168099619D01*
X121632738Y-114856381D02*
X121535976Y-114808000D01*
X121439214Y-114711238D01*
X121294071Y-114566095D01*
X121197310Y-114517714D01*
X121100548Y-114517714D01*
X121148929Y-114759619D02*
X121052167Y-114711238D01*
X120955405Y-114614476D01*
X120907024Y-114420952D01*
X120907024Y-114082286D01*
X120955405Y-113888762D01*
X121052167Y-113792000D01*
X121148929Y-113743619D01*
X121342452Y-113743619D01*
X121439214Y-113792000D01*
X121535976Y-113888762D01*
X121584357Y-114082286D01*
X121584357Y-114420952D01*
X121535976Y-114614476D01*
X121439214Y-114711238D01*
X121342452Y-114759619D01*
X121148929Y-114759619D01*
X122551976Y-113792000D02*
X122455214Y-113743619D01*
X122310071Y-113743619D01*
X122164929Y-113792000D01*
X122068167Y-113888762D01*
X122019786Y-113985524D01*
X121971405Y-114179048D01*
X121971405Y-114324190D01*
X122019786Y-114517714D01*
X122068167Y-114614476D01*
X122164929Y-114711238D01*
X122310071Y-114759619D01*
X122406833Y-114759619D01*
X122551976Y-114711238D01*
X122600357Y-114662857D01*
X122600357Y-114324190D01*
X122406833Y-114324190D01*
X122987405Y-113840381D02*
X123035786Y-113792000D01*
X123132548Y-113743619D01*
X123374452Y-113743619D01*
X123471214Y-113792000D01*
X123519595Y-113840381D01*
X123567976Y-113937143D01*
X123567976Y-114033905D01*
X123519595Y-114179048D01*
X122939024Y-114759619D01*
X123567976Y-114759619D01*
X125118284Y-114759619D02*
X124595769Y-114759619D01*
X124857027Y-114759619D02*
X124984027Y-113743619D01*
X124878798Y-113888762D01*
X124779617Y-113985524D01*
X124686483Y-114033905D01*
X125522264Y-114662857D02*
X125559759Y-114711238D01*
X125510169Y-114759619D01*
X125472673Y-114711238D01*
X125522264Y-114662857D01*
X125510169Y-114759619D01*
X126148798Y-114179048D02*
X126067760Y-114130667D01*
X126030264Y-114082286D01*
X125998817Y-113985524D01*
X126004864Y-113937143D01*
X126060502Y-113840381D01*
X126110093Y-113792000D01*
X126203227Y-113743619D01*
X126377398Y-113743619D01*
X126458436Y-113792000D01*
X126495931Y-113840381D01*
X126527379Y-113937143D01*
X126521332Y-113985524D01*
X126465693Y-114082286D01*
X126416103Y-114130667D01*
X126322969Y-114179048D01*
X126148798Y-114179048D01*
X126055664Y-114227429D01*
X126006074Y-114275810D01*
X125950436Y-114372571D01*
X125926245Y-114566095D01*
X125957693Y-114662857D01*
X125995188Y-114711238D01*
X126076227Y-114759619D01*
X126250398Y-114759619D01*
X126343531Y-114711238D01*
X126393122Y-114662857D01*
X126448760Y-114566095D01*
X126472951Y-114372571D01*
X126441503Y-114275810D01*
X126404007Y-114227429D01*
X126322969Y-114179048D01*
X127293007Y-114082286D02*
X127208341Y-114759619D01*
X127123674Y-113695238D02*
X126815245Y-114420952D01*
X127381303Y-114420952D01*
X127727227Y-113743619D02*
X128293284Y-113743619D01*
X127940103Y-114130667D01*
X128070731Y-114130667D01*
X128151769Y-114179048D01*
X128189264Y-114227429D01*
X128220712Y-114324190D01*
X128190474Y-114566095D01*
X128134836Y-114662857D01*
X128085245Y-114711238D01*
X127992112Y-114759619D01*
X127730855Y-114759619D01*
X127649816Y-114711238D01*
X127612322Y-114662857D01*
X128629530Y-113840381D02*
X128679121Y-113792000D01*
X128772255Y-113743619D01*
X128989969Y-113743619D01*
X129071007Y-113792000D01*
X129108502Y-113840381D01*
X129139950Y-113937143D01*
X129127855Y-114033905D01*
X129066169Y-114179048D01*
X128471084Y-114759619D01*
X129037141Y-114759619D01*
X130125712Y-114759619D02*
X130252712Y-113743619D01*
X130466797Y-114469333D01*
X130862312Y-113743619D01*
X130735312Y-114759619D01*
X131170741Y-114759619D02*
X131297741Y-113743619D01*
X131237264Y-114227429D02*
X131759779Y-114227429D01*
X131693256Y-114759619D02*
X131820256Y-113743619D01*
X132126265Y-114082286D02*
X132605236Y-114082286D01*
X132041599Y-114759619D01*
X132520570Y-114759619D01*
X152224619Y-133319762D02*
X151740810Y-133658428D01*
X152224619Y-133900333D02*
X151208619Y-133900333D01*
X151208619Y-133513286D01*
X151257000Y-133416524D01*
X151305381Y-133368143D01*
X151402143Y-133319762D01*
X151547286Y-133319762D01*
X151644048Y-133368143D01*
X151692429Y-133416524D01*
X151740810Y-133513286D01*
X151740810Y-133900333D01*
X151208619Y-133029476D02*
X152224619Y-132690809D01*
X151208619Y-132352143D01*
X152224619Y-131481286D02*
X152224619Y-132061857D01*
X152224619Y-131771571D02*
X151208619Y-131771571D01*
X151353762Y-131868333D01*
X151450524Y-131965095D01*
X151498905Y-132061857D01*
X151305381Y-129472570D02*
X151257000Y-129422979D01*
X151208619Y-129329845D01*
X151208619Y-129112131D01*
X151257000Y-129031093D01*
X151305381Y-128993598D01*
X151402143Y-128962150D01*
X151498905Y-128974245D01*
X151644048Y-129035931D01*
X152224619Y-129631016D01*
X152224619Y-129064959D01*
X152224619Y-128673074D02*
X151208619Y-128546074D01*
X151837571Y-128537607D02*
X152224619Y-128324731D01*
X151547286Y-128240065D02*
X151934333Y-128636789D01*
X168190334Y-161066238D02*
X168335477Y-161114619D01*
X168577381Y-161114619D01*
X168674143Y-161066238D01*
X168722524Y-161017857D01*
X168770905Y-160921095D01*
X168770905Y-160824333D01*
X168722524Y-160727571D01*
X168674143Y-160679190D01*
X168577381Y-160630810D01*
X168383858Y-160582429D01*
X168287096Y-160534048D01*
X168238715Y-160485667D01*
X168190334Y-160388905D01*
X168190334Y-160292143D01*
X168238715Y-160195381D01*
X168287096Y-160147000D01*
X168383858Y-160098619D01*
X168625762Y-160098619D01*
X168770905Y-160147000D01*
X169109572Y-160098619D02*
X169351477Y-161114619D01*
X169545000Y-160388905D01*
X169738524Y-161114619D01*
X169980429Y-160098619D01*
X170899667Y-161114619D02*
X170319096Y-161114619D01*
X170609382Y-161114619D02*
X170609382Y-160098619D01*
X170512620Y-160243762D01*
X170415858Y-160340524D01*
X170319096Y-160388905D01*
X172610842Y-161114619D02*
X172366518Y-160630810D01*
X172088327Y-161114619D02*
X172215327Y-160098619D01*
X172563670Y-160098619D01*
X172644708Y-160147000D01*
X172682203Y-160195381D01*
X172713651Y-160292143D01*
X172695508Y-160437286D01*
X172639870Y-160534048D01*
X172590279Y-160582429D01*
X172497146Y-160630810D01*
X172148803Y-160630810D01*
X173069250Y-160582429D02*
X173374050Y-160582429D01*
X173438156Y-161114619D02*
X173002727Y-161114619D01*
X173129727Y-160098619D01*
X173565156Y-160098619D01*
X173792545Y-161066238D02*
X173917127Y-161114619D01*
X174134841Y-161114619D01*
X174227974Y-161066238D01*
X174277565Y-161017857D01*
X174333203Y-160921095D01*
X174345298Y-160824333D01*
X174313851Y-160727571D01*
X174276355Y-160679190D01*
X174195317Y-160630810D01*
X174027193Y-160582429D01*
X173946155Y-160534048D01*
X173908660Y-160485667D01*
X173877212Y-160388905D01*
X173889307Y-160292143D01*
X173944945Y-160195381D01*
X173994536Y-160147000D01*
X174087670Y-160098619D01*
X174305384Y-160098619D01*
X174429965Y-160147000D01*
X174767421Y-160582429D02*
X175072221Y-160582429D01*
X175136327Y-161114619D02*
X174700898Y-161114619D01*
X174827898Y-160098619D01*
X175263327Y-160098619D01*
X175524584Y-160098619D02*
X176047098Y-160098619D01*
X175658841Y-161114619D02*
X175785841Y-160098619D01*
X77548619Y-113804095D02*
X78371095Y-113804095D01*
X78467857Y-113755714D01*
X78516238Y-113707333D01*
X78564619Y-113610571D01*
X78564619Y-113417048D01*
X78516238Y-113320286D01*
X78467857Y-113271905D01*
X78371095Y-113223524D01*
X77548619Y-113223524D01*
X77645381Y-112788095D02*
X77597000Y-112739714D01*
X77548619Y-112642952D01*
X77548619Y-112401048D01*
X77597000Y-112304286D01*
X77645381Y-112255905D01*
X77742143Y-112207524D01*
X77838905Y-112207524D01*
X77984048Y-112255905D01*
X78564619Y-112836476D01*
X78564619Y-112207524D01*
X79136119Y-116092815D02*
X79136119Y-115483215D01*
X80152119Y-116219815D01*
X80152119Y-115610215D01*
X79571548Y-115058673D02*
X79523167Y-115139711D01*
X79474786Y-115177207D01*
X79378024Y-115208654D01*
X79329643Y-115202607D01*
X79232881Y-115146969D01*
X79184500Y-115097378D01*
X79136119Y-115004244D01*
X79136119Y-114830073D01*
X79184500Y-114749035D01*
X79232881Y-114711540D01*
X79329643Y-114680092D01*
X79378024Y-114686139D01*
X79474786Y-114741778D01*
X79523167Y-114791368D01*
X79571548Y-114884502D01*
X79571548Y-115058673D01*
X79619929Y-115151807D01*
X79668310Y-115201397D01*
X79765071Y-115257035D01*
X79958595Y-115281226D01*
X80055357Y-115249778D01*
X80103738Y-115212283D01*
X80152119Y-115131244D01*
X80152119Y-114957073D01*
X80103738Y-114863940D01*
X80055357Y-114814349D01*
X79958595Y-114758711D01*
X79765071Y-114734520D01*
X79668310Y-114765968D01*
X79619929Y-114803464D01*
X79571548Y-114884502D01*
X79474786Y-113914464D02*
X80152119Y-113999130D01*
X79087738Y-114083797D02*
X79813452Y-114392226D01*
X79813452Y-113826168D01*
X80055357Y-112985549D02*
X80103738Y-113035140D01*
X80152119Y-113171816D01*
X80152119Y-113258902D01*
X80103738Y-113383483D01*
X80006976Y-113458473D01*
X79910214Y-113489921D01*
X79716690Y-113509274D01*
X79571548Y-113491131D01*
X79378024Y-113423397D01*
X79281262Y-113367759D01*
X79184500Y-113268578D01*
X79136119Y-113131902D01*
X79136119Y-113044816D01*
X79184500Y-112920235D01*
X79232881Y-112882740D01*
X79136119Y-112565844D02*
X79136119Y-111999787D01*
X79523167Y-112352968D01*
X79523167Y-112222340D01*
X79571548Y-112141302D01*
X79619929Y-112103807D01*
X79716690Y-112072359D01*
X79958595Y-112102597D01*
X80055357Y-112158235D01*
X80103738Y-112207826D01*
X80152119Y-112300959D01*
X80152119Y-112562216D01*
X80103738Y-112643255D01*
X80055357Y-112680749D01*
X79136119Y-111433730D02*
X79136119Y-111346645D01*
X79184500Y-111265607D01*
X79232881Y-111228112D01*
X79329643Y-111196664D01*
X79523167Y-111177311D01*
X79765071Y-111207549D01*
X79958595Y-111275283D01*
X80055357Y-111330921D01*
X80103738Y-111380512D01*
X80152119Y-111473645D01*
X80152119Y-111560730D01*
X80103738Y-111641769D01*
X80055357Y-111679264D01*
X79958595Y-111710712D01*
X79765071Y-111730064D01*
X79523167Y-111699826D01*
X79329643Y-111632093D01*
X79232881Y-111576455D01*
X79184500Y-111526864D01*
X79136119Y-111433730D01*
X78183619Y-149364095D02*
X79006095Y-149364095D01*
X79102857Y-149315714D01*
X79151238Y-149267333D01*
X79199619Y-149170571D01*
X79199619Y-148977048D01*
X79151238Y-148880286D01*
X79102857Y-148831905D01*
X79006095Y-148783524D01*
X78183619Y-148783524D01*
X78522286Y-147864286D02*
X79199619Y-147864286D01*
X78135238Y-148106190D02*
X78860952Y-148348095D01*
X78860952Y-147719143D01*
X80496833Y-153162302D02*
X80496833Y-152726873D01*
X80787119Y-153285672D02*
X79771119Y-152853872D01*
X80787119Y-152676072D01*
X80738738Y-152408769D02*
X80787119Y-152284187D01*
X80787119Y-152066473D01*
X80738738Y-151973340D01*
X80690357Y-151923749D01*
X80593595Y-151868111D01*
X80496833Y-151856016D01*
X80400071Y-151887463D01*
X80351690Y-151924959D01*
X80303310Y-152005997D01*
X80254929Y-152174121D01*
X80206548Y-152255159D01*
X80158167Y-152292654D01*
X80061405Y-152324102D01*
X79964643Y-152312007D01*
X79867881Y-152256369D01*
X79819500Y-152206778D01*
X79771119Y-152113644D01*
X79771119Y-151895930D01*
X79819500Y-151771349D01*
X79771119Y-150981530D02*
X79771119Y-151155701D01*
X79819500Y-151248835D01*
X79867881Y-151298426D01*
X80013024Y-151403654D01*
X80206548Y-151471388D01*
X80593595Y-151519769D01*
X80690357Y-151488321D01*
X80738738Y-151450826D01*
X80787119Y-151369787D01*
X80787119Y-151195616D01*
X80738738Y-151102483D01*
X80690357Y-151052892D01*
X80593595Y-150997254D01*
X80351690Y-150967016D01*
X80254929Y-150998464D01*
X80206548Y-151035959D01*
X80158167Y-151116997D01*
X80158167Y-151291168D01*
X80206548Y-151384302D01*
X80254929Y-151433893D01*
X80351690Y-151489531D01*
X80690357Y-150094949D02*
X80738738Y-150144540D01*
X80787119Y-150281216D01*
X80787119Y-150368302D01*
X80738738Y-150492883D01*
X80641976Y-150567873D01*
X80545214Y-150599321D01*
X80351690Y-150618674D01*
X80206548Y-150600531D01*
X80013024Y-150532797D01*
X79916262Y-150477159D01*
X79819500Y-150377978D01*
X79771119Y-150241302D01*
X79771119Y-150154216D01*
X79819500Y-150029635D01*
X79867881Y-149992140D01*
X80109786Y-149238607D02*
X80787119Y-149323273D01*
X79722738Y-149407940D02*
X80448452Y-149716369D01*
X80448452Y-149150311D01*
X79771119Y-148543130D02*
X79771119Y-148456045D01*
X79819500Y-148375007D01*
X79867881Y-148337512D01*
X79964643Y-148306064D01*
X80158167Y-148286711D01*
X80400071Y-148316949D01*
X80593595Y-148384683D01*
X80690357Y-148440321D01*
X80738738Y-148489912D01*
X80787119Y-148583045D01*
X80787119Y-148670130D01*
X80738738Y-148751169D01*
X80690357Y-148788664D01*
X80593595Y-148820112D01*
X80400071Y-148839464D01*
X80158167Y-148809226D01*
X79964643Y-148741493D01*
X79867881Y-148685855D01*
X79819500Y-148636264D01*
X79771119Y-148543130D01*
X79771119Y-147672273D02*
X79771119Y-147585188D01*
X79819500Y-147504150D01*
X79867881Y-147466655D01*
X79964643Y-147435207D01*
X80158167Y-147415854D01*
X80400071Y-147446092D01*
X80593595Y-147513826D01*
X80690357Y-147569464D01*
X80738738Y-147619055D01*
X80787119Y-147712188D01*
X80787119Y-147799273D01*
X80738738Y-147880312D01*
X80690357Y-147917807D01*
X80593595Y-147949255D01*
X80400071Y-147968607D01*
X80158167Y-147938369D01*
X79964643Y-147870636D01*
X79867881Y-147814998D01*
X79819500Y-147765407D01*
X79771119Y-147672273D01*
X80206548Y-146899388D02*
X80158167Y-146980426D01*
X80109786Y-147017922D01*
X80013024Y-147049369D01*
X79964643Y-147043322D01*
X79867881Y-146987684D01*
X79819500Y-146938093D01*
X79771119Y-146844959D01*
X79771119Y-146670788D01*
X79819500Y-146589750D01*
X79867881Y-146552255D01*
X79964643Y-146520807D01*
X80013024Y-146526854D01*
X80109786Y-146582493D01*
X80158167Y-146632083D01*
X80206548Y-146725217D01*
X80206548Y-146899388D01*
X80254929Y-146992522D01*
X80303310Y-147042112D01*
X80400071Y-147097750D01*
X80593595Y-147121941D01*
X80690357Y-147090493D01*
X80738738Y-147052998D01*
X80787119Y-146971959D01*
X80787119Y-146797788D01*
X80738738Y-146704655D01*
X80690357Y-146655064D01*
X80593595Y-146599426D01*
X80400071Y-146575235D01*
X80303310Y-146606683D01*
X80254929Y-146644179D01*
X80206548Y-146725217D01*
X78183619Y-131584095D02*
X79006095Y-131584095D01*
X79102857Y-131535714D01*
X79151238Y-131487333D01*
X79199619Y-131390571D01*
X79199619Y-131197048D01*
X79151238Y-131100286D01*
X79102857Y-131051905D01*
X79006095Y-131003524D01*
X78183619Y-131003524D01*
X78183619Y-130035905D02*
X78183619Y-130519714D01*
X78667429Y-130568095D01*
X78619048Y-130519714D01*
X78570667Y-130422952D01*
X78570667Y-130181048D01*
X78619048Y-130084286D01*
X78667429Y-130035905D01*
X78764190Y-129987524D01*
X79006095Y-129987524D01*
X79102857Y-130035905D01*
X79151238Y-130084286D01*
X79199619Y-130181048D01*
X79199619Y-130422952D01*
X79151238Y-130519714D01*
X79102857Y-130568095D01*
X80738738Y-136809540D02*
X80787119Y-136684958D01*
X80787119Y-136467244D01*
X80738738Y-136374111D01*
X80690357Y-136324520D01*
X80593595Y-136268882D01*
X80496833Y-136256787D01*
X80400071Y-136288234D01*
X80351690Y-136325730D01*
X80303310Y-136406768D01*
X80254929Y-136574892D01*
X80206548Y-136655930D01*
X80158167Y-136693425D01*
X80061405Y-136724873D01*
X79964643Y-136712778D01*
X79867881Y-136657140D01*
X79819500Y-136607549D01*
X79771119Y-136514415D01*
X79771119Y-136296701D01*
X79819500Y-136172120D01*
X80738738Y-135938683D02*
X80787119Y-135814101D01*
X80787119Y-135596387D01*
X80738738Y-135503254D01*
X80690357Y-135453663D01*
X80593595Y-135398025D01*
X80496833Y-135385930D01*
X80400071Y-135417377D01*
X80351690Y-135454873D01*
X80303310Y-135535911D01*
X80254929Y-135704035D01*
X80206548Y-135785073D01*
X80158167Y-135822568D01*
X80061405Y-135854016D01*
X79964643Y-135841921D01*
X79867881Y-135786283D01*
X79819500Y-135736692D01*
X79771119Y-135643558D01*
X79771119Y-135425844D01*
X79819500Y-135301263D01*
X79771119Y-135033958D02*
X79771119Y-134511444D01*
X80787119Y-134899701D02*
X79771119Y-134772701D01*
X79771119Y-134293729D02*
X79771119Y-133727672D01*
X80158167Y-134080853D01*
X80158167Y-133950225D01*
X80206548Y-133869187D01*
X80254929Y-133831692D01*
X80351690Y-133800244D01*
X80593595Y-133830482D01*
X80690357Y-133886120D01*
X80738738Y-133935711D01*
X80787119Y-134028844D01*
X80787119Y-134290101D01*
X80738738Y-134371140D01*
X80690357Y-134408634D01*
X80787119Y-133419244D02*
X80787119Y-133245072D01*
X80738738Y-133151940D01*
X80690357Y-133102349D01*
X80545214Y-132997120D01*
X80351690Y-132929387D01*
X79964643Y-132881006D01*
X79867881Y-132912454D01*
X79819500Y-132949949D01*
X79771119Y-133030987D01*
X79771119Y-133205158D01*
X79819500Y-133298292D01*
X79867881Y-133347883D01*
X79964643Y-133403521D01*
X80206548Y-133433759D01*
X80303310Y-133402311D01*
X80351690Y-133364816D01*
X80400071Y-133283777D01*
X80400071Y-133109606D01*
X80351690Y-133016473D01*
X80303310Y-132966882D01*
X80206548Y-132911244D01*
X80738738Y-132629426D02*
X80787119Y-132504844D01*
X80787119Y-132287130D01*
X80738738Y-132193997D01*
X80690357Y-132144406D01*
X80593595Y-132088768D01*
X80496833Y-132076673D01*
X80400071Y-132108120D01*
X80351690Y-132145616D01*
X80303310Y-132226654D01*
X80254929Y-132394778D01*
X80206548Y-132475816D01*
X80158167Y-132513311D01*
X80061405Y-132544759D01*
X79964643Y-132532664D01*
X79867881Y-132477026D01*
X79819500Y-132427435D01*
X79771119Y-132334301D01*
X79771119Y-132116587D01*
X79819500Y-131992006D01*
X80254929Y-131349750D02*
X80254929Y-131654550D01*
X80787119Y-131721073D02*
X79771119Y-131594073D01*
X79771119Y-131158644D01*
X79771119Y-130636130D02*
X79771119Y-130549045D01*
X79819500Y-130468007D01*
X79867881Y-130430512D01*
X79964643Y-130399064D01*
X80158167Y-130379711D01*
X80400071Y-130409949D01*
X80593595Y-130477683D01*
X80690357Y-130533321D01*
X80738738Y-130582912D01*
X80787119Y-130676045D01*
X80787119Y-130763130D01*
X80738738Y-130844169D01*
X80690357Y-130881664D01*
X80593595Y-130913112D01*
X80400071Y-130932464D01*
X80158167Y-130902226D01*
X79964643Y-130834493D01*
X79867881Y-130778855D01*
X79819500Y-130729264D01*
X79771119Y-130636130D01*
X80109786Y-129589893D02*
X80787119Y-129674559D01*
X79722738Y-129759226D02*
X80448452Y-130067655D01*
X80448452Y-129501597D01*
X79771119Y-128894416D02*
X79771119Y-128807331D01*
X79819500Y-128726293D01*
X79867881Y-128688798D01*
X79964643Y-128657350D01*
X80158167Y-128637997D01*
X80400071Y-128668235D01*
X80593595Y-128735969D01*
X80690357Y-128791607D01*
X80738738Y-128841198D01*
X80787119Y-128934331D01*
X80787119Y-129021416D01*
X80738738Y-129102455D01*
X80690357Y-129139950D01*
X80593595Y-129171398D01*
X80400071Y-129190750D01*
X80158167Y-129160512D01*
X79964643Y-129092779D01*
X79867881Y-129037141D01*
X79819500Y-128987550D01*
X79771119Y-128894416D01*
X160733619Y-135711595D02*
X161556095Y-135711595D01*
X161652857Y-135663214D01*
X161701238Y-135614833D01*
X161749619Y-135518071D01*
X161749619Y-135324548D01*
X161701238Y-135227786D01*
X161652857Y-135179405D01*
X161556095Y-135131024D01*
X160733619Y-135131024D01*
X160733619Y-134211786D02*
X160733619Y-134405309D01*
X160782000Y-134502071D01*
X160830381Y-134550452D01*
X160975524Y-134647214D01*
X161169048Y-134695595D01*
X161556095Y-134695595D01*
X161652857Y-134647214D01*
X161701238Y-134598833D01*
X161749619Y-134502071D01*
X161749619Y-134308548D01*
X161701238Y-134211786D01*
X161652857Y-134163405D01*
X161556095Y-134115024D01*
X161314190Y-134115024D01*
X161217429Y-134163405D01*
X161169048Y-134211786D01*
X161120667Y-134308548D01*
X161120667Y-134502071D01*
X161169048Y-134598833D01*
X161217429Y-134647214D01*
X161314190Y-134695595D01*
X161749619Y-132982002D02*
X160733619Y-132855002D01*
X161459333Y-132640917D01*
X160733619Y-132245402D01*
X161749619Y-132372402D01*
X161459333Y-131944231D02*
X161459333Y-131508802D01*
X161749619Y-132067601D02*
X160733619Y-131635801D01*
X161749619Y-131458001D01*
X160733619Y-131113287D02*
X161749619Y-130630687D01*
X160733619Y-130503687D02*
X161749619Y-131240287D01*
X160733619Y-129763459D02*
X160733619Y-129937630D01*
X160782000Y-130030764D01*
X160830381Y-130080355D01*
X160975524Y-130185583D01*
X161169048Y-130253317D01*
X161556095Y-130301698D01*
X161652857Y-130270250D01*
X161701238Y-130232755D01*
X161749619Y-130151716D01*
X161749619Y-129977545D01*
X161701238Y-129884412D01*
X161652857Y-129834821D01*
X161556095Y-129779183D01*
X161314190Y-129748945D01*
X161217429Y-129780393D01*
X161169048Y-129817888D01*
X161120667Y-129898926D01*
X161120667Y-130073097D01*
X161169048Y-130166231D01*
X161217429Y-130215822D01*
X161314190Y-130271460D01*
X161749619Y-129367945D02*
X161749619Y-129193773D01*
X161701238Y-129100641D01*
X161652857Y-129051050D01*
X161507714Y-128945821D01*
X161314190Y-128878088D01*
X160927143Y-128829707D01*
X160830381Y-128861155D01*
X160782000Y-128898650D01*
X160733619Y-128979688D01*
X160733619Y-129153859D01*
X160782000Y-129246993D01*
X160830381Y-129296584D01*
X160927143Y-129352222D01*
X161169048Y-129382460D01*
X161265810Y-129351012D01*
X161314190Y-129313517D01*
X161362571Y-129232478D01*
X161362571Y-129058307D01*
X161314190Y-128965174D01*
X161265810Y-128915583D01*
X161169048Y-128859945D01*
X160733619Y-128500716D02*
X160733619Y-127934659D01*
X161120667Y-128287840D01*
X161120667Y-128157212D01*
X161169048Y-128076174D01*
X161217429Y-128038679D01*
X161314190Y-128007231D01*
X161556095Y-128037469D01*
X161652857Y-128093107D01*
X161701238Y-128142698D01*
X161749619Y-128235831D01*
X161749619Y-128497088D01*
X161701238Y-128578127D01*
X161652857Y-128615621D01*
X162321119Y-102056595D02*
X163143595Y-102056595D01*
X163240357Y-102008214D01*
X163288738Y-101959833D01*
X163337119Y-101863071D01*
X163337119Y-101669548D01*
X163288738Y-101572786D01*
X163240357Y-101524405D01*
X163143595Y-101476024D01*
X162321119Y-101476024D01*
X162321119Y-101088976D02*
X162321119Y-100411643D01*
X163337119Y-100847071D01*
X163337119Y-99401387D02*
X162321119Y-99274387D01*
X163046833Y-99060302D01*
X162321119Y-98664787D01*
X163337119Y-98791787D01*
X163046833Y-98363616D02*
X163046833Y-97928187D01*
X163337119Y-98486986D02*
X162321119Y-98055186D01*
X163337119Y-97877386D01*
X162321119Y-97532672D02*
X163337119Y-97050072D01*
X162321119Y-96923072D02*
X163337119Y-97659672D01*
X162417881Y-96630369D02*
X162369500Y-96580778D01*
X162321119Y-96487644D01*
X162321119Y-96269930D01*
X162369500Y-96188892D01*
X162417881Y-96151397D01*
X162514643Y-96119949D01*
X162611405Y-96132044D01*
X162756548Y-96193730D01*
X163337119Y-96788815D01*
X163337119Y-96222758D01*
X162321119Y-95790958D02*
X162321119Y-95224901D01*
X162708167Y-95578082D01*
X162708167Y-95447454D01*
X162756548Y-95366416D01*
X162804929Y-95328921D01*
X162901690Y-95297473D01*
X163143595Y-95327711D01*
X163240357Y-95383349D01*
X163288738Y-95432940D01*
X163337119Y-95526073D01*
X163337119Y-95787330D01*
X163288738Y-95868369D01*
X163240357Y-95905863D01*
X162417881Y-94888655D02*
X162369500Y-94839064D01*
X162321119Y-94745930D01*
X162321119Y-94528216D01*
X162369500Y-94447178D01*
X162417881Y-94409683D01*
X162514643Y-94378235D01*
X162611405Y-94390330D01*
X162756548Y-94452016D01*
X163337119Y-95047101D01*
X163337119Y-94481044D01*
X163046833Y-94096417D02*
X163046833Y-93660988D01*
X163337119Y-94219787D02*
X162321119Y-93787987D01*
X163337119Y-93610187D01*
X162321119Y-89356595D02*
X163143595Y-89356595D01*
X163240357Y-89308214D01*
X163288738Y-89259833D01*
X163337119Y-89163071D01*
X163337119Y-88969548D01*
X163288738Y-88872786D01*
X163240357Y-88824405D01*
X163143595Y-88776024D01*
X162321119Y-88776024D01*
X162756548Y-88147071D02*
X162708167Y-88243833D01*
X162659786Y-88292214D01*
X162563024Y-88340595D01*
X162514643Y-88340595D01*
X162417881Y-88292214D01*
X162369500Y-88243833D01*
X162321119Y-88147071D01*
X162321119Y-87953548D01*
X162369500Y-87856786D01*
X162417881Y-87808405D01*
X162514643Y-87760024D01*
X162563024Y-87760024D01*
X162659786Y-87808405D01*
X162708167Y-87856786D01*
X162756548Y-87953548D01*
X162756548Y-88147071D01*
X162804929Y-88243833D01*
X162853310Y-88292214D01*
X162950071Y-88340595D01*
X163143595Y-88340595D01*
X163240357Y-88292214D01*
X163288738Y-88243833D01*
X163337119Y-88147071D01*
X163337119Y-87953548D01*
X163288738Y-87856786D01*
X163240357Y-87808405D01*
X163143595Y-87760024D01*
X162950071Y-87760024D01*
X162853310Y-87808405D01*
X162804929Y-87856786D01*
X162756548Y-87953548D01*
X163337119Y-87018887D02*
X162321119Y-86891887D01*
X163046833Y-86677802D01*
X162321119Y-86282287D01*
X163337119Y-86409287D01*
X163046833Y-85981116D02*
X163046833Y-85545687D01*
X163337119Y-86104486D02*
X162321119Y-85672686D01*
X163337119Y-85494886D01*
X162321119Y-85150172D02*
X163337119Y-84667572D01*
X162321119Y-84540572D02*
X163337119Y-85277172D01*
X162417881Y-84247869D02*
X162369500Y-84198278D01*
X162321119Y-84105144D01*
X162321119Y-83887430D01*
X162369500Y-83806392D01*
X162417881Y-83768897D01*
X162514643Y-83737449D01*
X162611405Y-83749544D01*
X162756548Y-83811230D01*
X163337119Y-84406315D01*
X163337119Y-83840258D01*
X162321119Y-83408458D02*
X162321119Y-82842401D01*
X162708167Y-83195582D01*
X162708167Y-83064954D01*
X162756548Y-82983916D01*
X162804929Y-82946421D01*
X162901690Y-82914973D01*
X163143595Y-82945211D01*
X163240357Y-83000849D01*
X163288738Y-83050440D01*
X163337119Y-83143573D01*
X163337119Y-83404830D01*
X163288738Y-83485869D01*
X163240357Y-83523363D01*
X162417881Y-82506155D02*
X162369500Y-82456564D01*
X162321119Y-82363430D01*
X162321119Y-82145716D01*
X162369500Y-82064678D01*
X162417881Y-82027183D01*
X162514643Y-81995735D01*
X162611405Y-82007830D01*
X162756548Y-82069516D01*
X163337119Y-82664601D01*
X163337119Y-82098544D01*
X163046833Y-81713917D02*
X163046833Y-81278488D01*
X163337119Y-81837287D02*
X162321119Y-81405487D01*
X163337119Y-81227687D01*
X155018619Y-125234095D02*
X155841095Y-125234095D01*
X155937857Y-125185714D01*
X155986238Y-125137333D01*
X156034619Y-125040571D01*
X156034619Y-124847048D01*
X155986238Y-124750286D01*
X155937857Y-124701905D01*
X155841095Y-124653524D01*
X155018619Y-124653524D01*
X156034619Y-124121333D02*
X156034619Y-123927809D01*
X155986238Y-123831048D01*
X155937857Y-123782667D01*
X155792714Y-123685905D01*
X155599190Y-123637524D01*
X155212143Y-123637524D01*
X155115381Y-123685905D01*
X155067000Y-123734286D01*
X155018619Y-123831048D01*
X155018619Y-124024571D01*
X155067000Y-124121333D01*
X155115381Y-124169714D01*
X155212143Y-124218095D01*
X155454048Y-124218095D01*
X155550810Y-124169714D01*
X155599190Y-124121333D01*
X155647571Y-124024571D01*
X155647571Y-123831048D01*
X155599190Y-123734286D01*
X155550810Y-123685905D01*
X155454048Y-123637524D01*
X155744333Y-122508131D02*
X155744333Y-122072702D01*
X156034619Y-122631501D02*
X155018619Y-122199701D01*
X156034619Y-122021901D01*
X155018619Y-121720730D02*
X155018619Y-121198216D01*
X156034619Y-121586473D02*
X155018619Y-121459473D01*
X155502429Y-120649093D02*
X155502429Y-120953893D01*
X156034619Y-121020416D02*
X155018619Y-120893416D01*
X155018619Y-120457987D01*
X156034619Y-119757673D02*
X156034619Y-120280188D01*
X156034619Y-120018930D02*
X155018619Y-119891930D01*
X155163762Y-119997159D01*
X155260524Y-120096340D01*
X155308905Y-120189474D01*
X155018619Y-118846902D02*
X155018619Y-119021073D01*
X155067000Y-119114207D01*
X155115381Y-119163798D01*
X155260524Y-119269026D01*
X155454048Y-119336760D01*
X155841095Y-119385141D01*
X155937857Y-119353693D01*
X155986238Y-119316198D01*
X156034619Y-119235159D01*
X156034619Y-119060988D01*
X155986238Y-118967855D01*
X155937857Y-118918264D01*
X155841095Y-118862626D01*
X155599190Y-118832388D01*
X155502429Y-118863836D01*
X155454048Y-118901331D01*
X155405667Y-118982369D01*
X155405667Y-119156540D01*
X155454048Y-119249674D01*
X155502429Y-119299265D01*
X155599190Y-119354903D01*
X155018619Y-118498559D02*
X156034619Y-118320759D01*
X155018619Y-117888959D01*
X155454048Y-117507960D02*
X155405667Y-117588998D01*
X155357286Y-117626494D01*
X155260524Y-117657941D01*
X155212143Y-117651894D01*
X155115381Y-117596256D01*
X155067000Y-117546665D01*
X155018619Y-117453531D01*
X155018619Y-117279360D01*
X155067000Y-117198322D01*
X155115381Y-117160827D01*
X155212143Y-117129379D01*
X155260524Y-117135426D01*
X155357286Y-117191065D01*
X155405667Y-117240655D01*
X155454048Y-117333789D01*
X155454048Y-117507960D01*
X155502429Y-117601094D01*
X155550810Y-117650684D01*
X155647571Y-117706322D01*
X155841095Y-117730513D01*
X155937857Y-117699065D01*
X155986238Y-117661570D01*
X156034619Y-117580531D01*
X156034619Y-117406360D01*
X155986238Y-117313227D01*
X155937857Y-117263636D01*
X155841095Y-117207998D01*
X155647571Y-117183807D01*
X155550810Y-117215255D01*
X155502429Y-117252751D01*
X155454048Y-117333789D01*
X155502429Y-116468980D02*
X155550810Y-116344398D01*
X155599190Y-116306903D01*
X155695952Y-116275455D01*
X155841095Y-116293598D01*
X155937857Y-116349236D01*
X155986238Y-116398827D01*
X156034619Y-116491960D01*
X156034619Y-116840303D01*
X155018619Y-116713303D01*
X155018619Y-116408503D01*
X155067000Y-116327465D01*
X155115381Y-116289970D01*
X155212143Y-116258522D01*
X155308905Y-116270617D01*
X155405667Y-116326255D01*
X155454048Y-116375846D01*
X155502429Y-116468980D01*
X155502429Y-116773780D01*
X149621119Y-151117904D02*
X150443595Y-151117904D01*
X150540357Y-151069523D01*
X150588738Y-151021142D01*
X150637119Y-150924380D01*
X150637119Y-150730857D01*
X150588738Y-150634095D01*
X150540357Y-150585714D01*
X150443595Y-150537333D01*
X149621119Y-150537333D01*
X150637119Y-149521333D02*
X150637119Y-150101904D01*
X150637119Y-149811618D02*
X149621119Y-149811618D01*
X149766262Y-149908380D01*
X149863024Y-150005142D01*
X149911405Y-150101904D01*
X149621119Y-148892380D02*
X149621119Y-148795619D01*
X149669500Y-148698857D01*
X149717881Y-148650476D01*
X149814643Y-148602095D01*
X150008167Y-148553714D01*
X150250071Y-148553714D01*
X150443595Y-148602095D01*
X150540357Y-148650476D01*
X150588738Y-148698857D01*
X150637119Y-148795619D01*
X150637119Y-148892380D01*
X150588738Y-148989142D01*
X150540357Y-149037523D01*
X150443595Y-149085904D01*
X150250071Y-149134285D01*
X150008167Y-149134285D01*
X149814643Y-149085904D01*
X149717881Y-149037523D01*
X149669500Y-148989142D01*
X149621119Y-148892380D01*
X149621119Y-147717630D02*
X149621119Y-147108030D01*
X150637119Y-147626916D01*
X149959786Y-146410136D02*
X150637119Y-146494802D01*
X149572738Y-146579469D02*
X150298452Y-146887898D01*
X150298452Y-146321840D01*
X150637119Y-146015831D02*
X149621119Y-145888831D01*
X150104929Y-145949308D02*
X150104929Y-145426793D01*
X150637119Y-145493316D02*
X149621119Y-145366316D01*
X150540357Y-144523278D02*
X150588738Y-144572869D01*
X150637119Y-144709545D01*
X150637119Y-144796631D01*
X150588738Y-144921212D01*
X150491976Y-144996202D01*
X150395214Y-145027650D01*
X150201690Y-145047003D01*
X150056548Y-145028860D01*
X149863024Y-144961126D01*
X149766262Y-144905488D01*
X149669500Y-144806307D01*
X149621119Y-144669631D01*
X149621119Y-144582545D01*
X149669500Y-144457964D01*
X149717881Y-144420469D01*
X149621119Y-144147116D02*
X149621119Y-143624602D01*
X150637119Y-144012859D02*
X149621119Y-143885859D01*
X149621119Y-142927916D02*
X149621119Y-143102087D01*
X149669500Y-143195221D01*
X149717881Y-143244812D01*
X149863024Y-143350040D01*
X150056548Y-143417774D01*
X150443595Y-143466155D01*
X150540357Y-143434707D01*
X150588738Y-143397212D01*
X150637119Y-143316173D01*
X150637119Y-143142002D01*
X150588738Y-143048869D01*
X150540357Y-142999278D01*
X150443595Y-142943640D01*
X150201690Y-142913402D01*
X150104929Y-142944850D01*
X150056548Y-142982345D01*
X150008167Y-143063383D01*
X150008167Y-143237554D01*
X150056548Y-143330688D01*
X150104929Y-143380279D01*
X150201690Y-143435917D01*
X149621119Y-142536030D02*
X149621119Y-141926430D01*
X150637119Y-142445316D01*
X149621119Y-141403916D02*
X149621119Y-141316831D01*
X149669500Y-141235793D01*
X149717881Y-141198298D01*
X149814643Y-141166850D01*
X150008167Y-141147497D01*
X150250071Y-141177735D01*
X150443595Y-141245469D01*
X150540357Y-141301107D01*
X150588738Y-141350698D01*
X150637119Y-141443831D01*
X150637119Y-141530916D01*
X150588738Y-141611955D01*
X150540357Y-141649450D01*
X150443595Y-141680898D01*
X150250071Y-141700250D01*
X150008167Y-141670012D01*
X149814643Y-141602279D01*
X149717881Y-141546641D01*
X149669500Y-141497050D01*
X149621119Y-141403916D01*
X149621119Y-138417904D02*
X150443595Y-138417904D01*
X150540357Y-138369523D01*
X150588738Y-138321142D01*
X150637119Y-138224380D01*
X150637119Y-138030857D01*
X150588738Y-137934095D01*
X150540357Y-137885714D01*
X150443595Y-137837333D01*
X149621119Y-137837333D01*
X150637119Y-136821333D02*
X150637119Y-137401904D01*
X150637119Y-137111618D02*
X149621119Y-137111618D01*
X149766262Y-137208380D01*
X149863024Y-137305142D01*
X149911405Y-137401904D01*
X150637119Y-135853714D02*
X150637119Y-136434285D01*
X150637119Y-136143999D02*
X149621119Y-136143999D01*
X149766262Y-136240761D01*
X149863024Y-136337523D01*
X149911405Y-136434285D01*
X149621119Y-135017630D02*
X149621119Y-134408030D01*
X150637119Y-134926916D01*
X149959786Y-133710136D02*
X150637119Y-133794802D01*
X149572738Y-133879469D02*
X150298452Y-134187898D01*
X150298452Y-133621840D01*
X150637119Y-133315831D02*
X149621119Y-133188831D01*
X150104929Y-133249308D02*
X150104929Y-132726793D01*
X150637119Y-132793316D02*
X149621119Y-132666316D01*
X150540357Y-131823278D02*
X150588738Y-131872869D01*
X150637119Y-132009545D01*
X150637119Y-132096631D01*
X150588738Y-132221212D01*
X150491976Y-132296202D01*
X150395214Y-132327650D01*
X150201690Y-132347003D01*
X150056548Y-132328860D01*
X149863024Y-132261126D01*
X149766262Y-132205488D01*
X149669500Y-132106307D01*
X149621119Y-131969631D01*
X149621119Y-131882545D01*
X149669500Y-131757964D01*
X149717881Y-131720469D01*
X149621119Y-131447116D02*
X149621119Y-130924602D01*
X150637119Y-131312859D02*
X149621119Y-131185859D01*
X149621119Y-130227916D02*
X149621119Y-130402087D01*
X149669500Y-130495221D01*
X149717881Y-130544812D01*
X149863024Y-130650040D01*
X150056548Y-130717774D01*
X150443595Y-130766155D01*
X150540357Y-130734707D01*
X150588738Y-130697212D01*
X150637119Y-130616173D01*
X150637119Y-130442002D01*
X150588738Y-130348869D01*
X150540357Y-130299278D01*
X150443595Y-130243640D01*
X150201690Y-130213402D01*
X150104929Y-130244850D01*
X150056548Y-130282345D01*
X150008167Y-130363383D01*
X150008167Y-130537554D01*
X150056548Y-130630688D01*
X150104929Y-130680279D01*
X150201690Y-130735917D01*
X149621119Y-129836030D02*
X149621119Y-129226430D01*
X150637119Y-129745316D01*
X149621119Y-128703916D02*
X149621119Y-128616831D01*
X149669500Y-128535793D01*
X149717881Y-128498298D01*
X149814643Y-128466850D01*
X150008167Y-128447497D01*
X150250071Y-128477735D01*
X150443595Y-128545469D01*
X150540357Y-128601107D01*
X150588738Y-128650698D01*
X150637119Y-128743831D01*
X150637119Y-128830916D01*
X150588738Y-128911955D01*
X150540357Y-128949450D01*
X150443595Y-128980898D01*
X150250071Y-129000250D01*
X150008167Y-128970012D01*
X149814643Y-128902279D01*
X149717881Y-128846641D01*
X149669500Y-128797050D01*
X149621119Y-128703916D01*
X160416119Y-111747904D02*
X161238595Y-111747904D01*
X161335357Y-111699523D01*
X161383738Y-111651142D01*
X161432119Y-111554380D01*
X161432119Y-111360857D01*
X161383738Y-111264095D01*
X161335357Y-111215714D01*
X161238595Y-111167333D01*
X160416119Y-111167333D01*
X161432119Y-110151333D02*
X161432119Y-110731904D01*
X161432119Y-110441618D02*
X160416119Y-110441618D01*
X160561262Y-110538380D01*
X160658024Y-110635142D01*
X160706405Y-110731904D01*
X160512881Y-109764285D02*
X160464500Y-109715904D01*
X160416119Y-109619142D01*
X160416119Y-109377238D01*
X160464500Y-109280476D01*
X160512881Y-109232095D01*
X160609643Y-109183714D01*
X160706405Y-109183714D01*
X160851548Y-109232095D01*
X161432119Y-109812666D01*
X161432119Y-109183714D01*
X162003619Y-113309701D02*
X162003619Y-112700101D01*
X163019619Y-113218987D01*
X162342286Y-112002207D02*
X163019619Y-112086873D01*
X161955238Y-112171540D02*
X162680952Y-112479969D01*
X162680952Y-111913911D01*
X163019619Y-111607902D02*
X162003619Y-111480902D01*
X162487429Y-111541379D02*
X162487429Y-111018864D01*
X163019619Y-111085387D02*
X162003619Y-110958387D01*
X162922857Y-110115349D02*
X162971238Y-110164940D01*
X163019619Y-110301616D01*
X163019619Y-110388702D01*
X162971238Y-110513283D01*
X162874476Y-110588273D01*
X162777714Y-110619721D01*
X162584190Y-110639074D01*
X162439048Y-110620931D01*
X162245524Y-110553197D01*
X162148762Y-110497559D01*
X162052000Y-110398378D01*
X162003619Y-110261702D01*
X162003619Y-110174616D01*
X162052000Y-110050035D01*
X162100381Y-110012540D01*
X162003619Y-109739187D02*
X162003619Y-109216673D01*
X163019619Y-109604930D02*
X162003619Y-109477930D01*
X162003619Y-108998958D02*
X162003619Y-108389358D01*
X163019619Y-108908244D01*
X162342286Y-107691464D02*
X163019619Y-107776130D01*
X161955238Y-107860797D02*
X162680952Y-108169226D01*
X162680952Y-107603168D01*
X152696333Y-160416119D02*
X152696333Y-161141833D01*
X152647953Y-161286976D01*
X152551191Y-161383738D01*
X152406048Y-161432119D01*
X152309286Y-161432119D01*
X153615571Y-160754786D02*
X153615571Y-161432119D01*
X153373667Y-160367738D02*
X153131762Y-161093452D01*
X153760714Y-161093452D01*
X154783670Y-160416119D02*
X154961470Y-161432119D01*
X155393270Y-160416119D01*
X155942392Y-160899929D02*
X156066974Y-160948310D01*
X156104469Y-160996690D01*
X156135917Y-161093452D01*
X156117774Y-161238595D01*
X156062136Y-161335357D01*
X156012545Y-161383738D01*
X155919412Y-161432119D01*
X155571069Y-161432119D01*
X155698069Y-160416119D01*
X156002869Y-160416119D01*
X156083907Y-160464500D01*
X156121402Y-160512881D01*
X156152850Y-160609643D01*
X156140755Y-160706405D01*
X156085117Y-160803167D01*
X156035526Y-160851548D01*
X155942392Y-160899929D01*
X155637592Y-160899929D01*
X156478211Y-161141833D02*
X156913640Y-161141833D01*
X156354841Y-161432119D02*
X156786641Y-160416119D01*
X156964441Y-161432119D01*
X157265612Y-160416119D02*
X157788126Y-160416119D01*
X157399869Y-161432119D02*
X157526869Y-160416119D01*
X157939619Y-126534333D02*
X157455810Y-126872999D01*
X157939619Y-127114904D02*
X156923619Y-127114904D01*
X156923619Y-126727857D01*
X156972000Y-126631095D01*
X157020381Y-126582714D01*
X157117143Y-126534333D01*
X157262286Y-126534333D01*
X157359048Y-126582714D01*
X157407429Y-126631095D01*
X157455810Y-126727857D01*
X157455810Y-127114904D01*
X157262286Y-125663476D02*
X157939619Y-125663476D01*
X156875238Y-125905380D02*
X157600952Y-126147285D01*
X157600952Y-125518333D01*
X157939619Y-121245387D02*
X157939619Y-121767902D01*
X157939619Y-121506644D02*
X156923619Y-121379644D01*
X157068762Y-121484873D01*
X157165524Y-121584054D01*
X157213905Y-121677188D01*
X156923619Y-120552330D02*
X156923619Y-120465245D01*
X156972000Y-120384207D01*
X157020381Y-120346712D01*
X157117143Y-120315264D01*
X157310667Y-120295911D01*
X157552571Y-120326149D01*
X157746095Y-120393883D01*
X157842857Y-120449521D01*
X157891238Y-120499112D01*
X157939619Y-120592245D01*
X157939619Y-120679330D01*
X157891238Y-120760369D01*
X157842857Y-120797864D01*
X157746095Y-120829312D01*
X157552571Y-120848664D01*
X157310667Y-120818426D01*
X157117143Y-120750693D01*
X157020381Y-120695055D01*
X156972000Y-120645464D01*
X156923619Y-120552330D01*
X157939619Y-119982645D02*
X156923619Y-119855645D01*
X157552571Y-119847178D02*
X157939619Y-119634302D01*
X157262286Y-119549636D02*
X157649333Y-119946360D01*
X160479619Y-126534333D02*
X159995810Y-126872999D01*
X160479619Y-127114904D02*
X159463619Y-127114904D01*
X159463619Y-126727857D01*
X159512000Y-126631095D01*
X159560381Y-126582714D01*
X159657143Y-126534333D01*
X159802286Y-126534333D01*
X159899048Y-126582714D01*
X159947429Y-126631095D01*
X159995810Y-126727857D01*
X159995810Y-127114904D01*
X159463619Y-125615095D02*
X159463619Y-126098904D01*
X159947429Y-126147285D01*
X159899048Y-126098904D01*
X159850667Y-126002142D01*
X159850667Y-125760238D01*
X159899048Y-125663476D01*
X159947429Y-125615095D01*
X160044190Y-125566714D01*
X160286095Y-125566714D01*
X160382857Y-125615095D01*
X160431238Y-125663476D01*
X160479619Y-125760238D01*
X160479619Y-126002142D01*
X160431238Y-126098904D01*
X160382857Y-126147285D01*
X159560381Y-122306141D02*
X159512000Y-122256550D01*
X159463619Y-122163416D01*
X159463619Y-121945702D01*
X159512000Y-121864664D01*
X159560381Y-121827169D01*
X159657143Y-121795721D01*
X159753905Y-121807816D01*
X159899048Y-121869502D01*
X160479619Y-122464587D01*
X160479619Y-121898530D01*
X160479619Y-121463102D02*
X160479619Y-121288930D01*
X160431238Y-121195798D01*
X160382857Y-121146207D01*
X160237714Y-121040978D01*
X160044190Y-120973245D01*
X159657143Y-120924864D01*
X159560381Y-120956312D01*
X159512000Y-120993807D01*
X159463619Y-121074845D01*
X159463619Y-121249016D01*
X159512000Y-121342150D01*
X159560381Y-121391741D01*
X159657143Y-121447379D01*
X159899048Y-121477617D01*
X159995810Y-121446169D01*
X160044190Y-121408674D01*
X160092571Y-121327635D01*
X160092571Y-121153464D01*
X160044190Y-121060331D01*
X159995810Y-121010740D01*
X159899048Y-120955102D01*
X160382857Y-120623693D02*
X160431238Y-120586198D01*
X160479619Y-120635788D01*
X160431238Y-120673284D01*
X160382857Y-120623693D01*
X160479619Y-120635788D01*
X159802286Y-119723807D02*
X160479619Y-119808473D01*
X159415238Y-119893140D02*
X160140952Y-120201569D01*
X160140952Y-119635511D01*
X160479619Y-119329502D02*
X159463619Y-119202502D01*
X160092571Y-119194035D02*
X160479619Y-118981159D01*
X159802286Y-118896493D02*
X160189333Y-119293217D01*
X78401333Y-172481119D02*
X78401333Y-173206833D01*
X78352953Y-173351976D01*
X78256191Y-173448738D01*
X78111048Y-173497119D01*
X78014286Y-173497119D01*
X79368952Y-172481119D02*
X78885143Y-172481119D01*
X78836762Y-172964929D01*
X78885143Y-172916548D01*
X78981905Y-172868167D01*
X79223809Y-172868167D01*
X79320571Y-172916548D01*
X79368952Y-172964929D01*
X79417333Y-173061690D01*
X79417333Y-173303595D01*
X79368952Y-173400357D01*
X79320571Y-173448738D01*
X79223809Y-173497119D01*
X78981905Y-173497119D01*
X78885143Y-173448738D01*
X78836762Y-173400357D01*
X95373070Y-173497119D02*
X95128746Y-173013310D01*
X94850555Y-173497119D02*
X94977555Y-172481119D01*
X95325898Y-172481119D01*
X95406936Y-172529500D01*
X95444431Y-172577881D01*
X95475879Y-172674643D01*
X95457736Y-172819786D01*
X95402098Y-172916548D01*
X95352507Y-172964929D01*
X95259374Y-173013310D01*
X94911031Y-173013310D01*
X96299565Y-173400357D02*
X96249974Y-173448738D01*
X96113298Y-173497119D01*
X96026212Y-173497119D01*
X95901631Y-173448738D01*
X95826641Y-173351976D01*
X95795193Y-173255214D01*
X95775840Y-173061690D01*
X95793983Y-172916548D01*
X95861717Y-172723024D01*
X95917355Y-172626262D01*
X96016536Y-172529500D01*
X96153212Y-172481119D01*
X96240298Y-172481119D01*
X96364879Y-172529500D01*
X96402374Y-172577881D01*
X96750716Y-172577881D02*
X96800307Y-172529500D01*
X96893441Y-172481119D01*
X97111155Y-172481119D01*
X97192193Y-172529500D01*
X97229688Y-172577881D01*
X97261136Y-172674643D01*
X97249041Y-172771405D01*
X97187355Y-172916548D01*
X96592270Y-173497119D01*
X97158327Y-173497119D01*
X97851384Y-172481119D02*
X97938469Y-172481119D01*
X98019507Y-172529500D01*
X98057002Y-172577881D01*
X98088450Y-172674643D01*
X98107803Y-172868167D01*
X98077565Y-173110071D01*
X98009831Y-173303595D01*
X97954193Y-173400357D01*
X97904602Y-173448738D01*
X97811469Y-173497119D01*
X97724384Y-173497119D01*
X97643345Y-173448738D01*
X97605850Y-173400357D01*
X97574402Y-173303595D01*
X97555050Y-173110071D01*
X97585288Y-172868167D01*
X97653021Y-172674643D01*
X97708659Y-172577881D01*
X97758250Y-172529500D01*
X97851384Y-172481119D01*
X98900041Y-173497119D02*
X98377526Y-173497119D01*
X98638784Y-173497119D02*
X98765784Y-172481119D01*
X98660555Y-172626262D01*
X98561374Y-172723024D01*
X98468240Y-172771405D01*
X99768478Y-172819786D02*
X99683812Y-173497119D01*
X99599145Y-172432738D02*
X99290716Y-173158452D01*
X99856774Y-173158452D01*
X99932973Y-173593881D02*
X100629659Y-173593881D01*
X101230792Y-172964929D02*
X101355374Y-173013310D01*
X101392869Y-173061690D01*
X101424317Y-173158452D01*
X101406174Y-173303595D01*
X101350536Y-173400357D01*
X101300945Y-173448738D01*
X101207812Y-173497119D01*
X100859469Y-173497119D01*
X100986469Y-172481119D01*
X101291269Y-172481119D01*
X101372307Y-172529500D01*
X101409802Y-172577881D01*
X101441250Y-172674643D01*
X101429155Y-172771405D01*
X101373517Y-172868167D01*
X101323926Y-172916548D01*
X101230792Y-172964929D01*
X100925992Y-172964929D01*
X101900869Y-172481119D02*
X101798059Y-173303595D01*
X101829507Y-173400357D01*
X101867002Y-173448738D01*
X101948041Y-173497119D01*
X102122212Y-173497119D01*
X102215345Y-173448738D01*
X102264936Y-173400357D01*
X102320574Y-173303595D01*
X102423384Y-172481119D01*
X102694316Y-173448738D02*
X102818898Y-173497119D01*
X103036612Y-173497119D01*
X103129745Y-173448738D01*
X103179336Y-173400357D01*
X103234974Y-173303595D01*
X103247069Y-173206833D01*
X103215622Y-173110071D01*
X103178126Y-173061690D01*
X103097088Y-173013310D01*
X102928964Y-172964929D01*
X102847926Y-172916548D01*
X102810431Y-172868167D01*
X102778983Y-172771405D01*
X102791078Y-172674643D01*
X102846716Y-172577881D01*
X102896307Y-172529500D01*
X102989441Y-172481119D01*
X103207155Y-172481119D01*
X103331736Y-172529500D01*
X133307667Y-139524619D02*
X132969001Y-139040810D01*
X132727096Y-139524619D02*
X132727096Y-138508619D01*
X133114143Y-138508619D01*
X133210905Y-138557000D01*
X133259286Y-138605381D01*
X133307667Y-138702143D01*
X133307667Y-138847286D01*
X133259286Y-138944048D01*
X133210905Y-138992429D01*
X133114143Y-139040810D01*
X132727096Y-139040810D01*
X134323667Y-139524619D02*
X133985001Y-139040810D01*
X133743096Y-139524619D02*
X133743096Y-138508619D01*
X134130143Y-138508619D01*
X134226905Y-138557000D01*
X134275286Y-138605381D01*
X134323667Y-138702143D01*
X134323667Y-138847286D01*
X134275286Y-138944048D01*
X134226905Y-138992429D01*
X134130143Y-139040810D01*
X133743096Y-139040810D01*
X134710715Y-138605381D02*
X134759096Y-138557000D01*
X134855858Y-138508619D01*
X135097762Y-138508619D01*
X135194524Y-138557000D01*
X135242905Y-138605381D01*
X135291286Y-138702143D01*
X135291286Y-138798905D01*
X135242905Y-138944048D01*
X134662334Y-139524619D01*
X135291286Y-139524619D01*
X133169478Y-140434786D02*
X133084812Y-141112119D01*
X133000145Y-140047738D02*
X132691716Y-140773452D01*
X133257774Y-140773452D01*
X133575878Y-141015357D02*
X133613373Y-141063738D01*
X133563783Y-141112119D01*
X133526287Y-141063738D01*
X133575878Y-141015357D01*
X133563783Y-141112119D01*
X134039127Y-140096119D02*
X134648727Y-140096119D01*
X134129841Y-141112119D01*
X134870069Y-141112119D02*
X134997069Y-140096119D01*
X135005536Y-140725071D02*
X135218412Y-141112119D01*
X135303078Y-140434786D02*
X134906354Y-140821833D01*
X133307667Y-126824619D02*
X132969001Y-126340810D01*
X132727096Y-126824619D02*
X132727096Y-125808619D01*
X133114143Y-125808619D01*
X133210905Y-125857000D01*
X133259286Y-125905381D01*
X133307667Y-126002143D01*
X133307667Y-126147286D01*
X133259286Y-126244048D01*
X133210905Y-126292429D01*
X133114143Y-126340810D01*
X132727096Y-126340810D01*
X134323667Y-126824619D02*
X133985001Y-126340810D01*
X133743096Y-126824619D02*
X133743096Y-125808619D01*
X134130143Y-125808619D01*
X134226905Y-125857000D01*
X134275286Y-125905381D01*
X134323667Y-126002143D01*
X134323667Y-126147286D01*
X134275286Y-126244048D01*
X134226905Y-126292429D01*
X134130143Y-126340810D01*
X133743096Y-126340810D01*
X134662334Y-125808619D02*
X135291286Y-125808619D01*
X134952620Y-126195667D01*
X135097762Y-126195667D01*
X135194524Y-126244048D01*
X135242905Y-126292429D01*
X135291286Y-126389190D01*
X135291286Y-126631095D01*
X135242905Y-126727857D01*
X135194524Y-126776238D01*
X135097762Y-126824619D01*
X134807477Y-126824619D01*
X134710715Y-126776238D01*
X134662334Y-126727857D01*
X133169478Y-127734786D02*
X133084812Y-128412119D01*
X133000145Y-127347738D02*
X132691716Y-128073452D01*
X133257774Y-128073452D01*
X133575878Y-128315357D02*
X133613373Y-128363738D01*
X133563783Y-128412119D01*
X133526287Y-128363738D01*
X133575878Y-128315357D01*
X133563783Y-128412119D01*
X134039127Y-127396119D02*
X134648727Y-127396119D01*
X134129841Y-128412119D01*
X134870069Y-128412119D02*
X134997069Y-127396119D01*
X135005536Y-128025071D02*
X135218412Y-128412119D01*
X135303078Y-127734786D02*
X134906354Y-128121833D01*
X160162119Y-169659904D02*
X159146119Y-169659904D01*
X159146119Y-169417999D01*
X159194500Y-169272857D01*
X159291262Y-169176095D01*
X159388024Y-169127714D01*
X159581548Y-169079333D01*
X159726690Y-169079333D01*
X159920214Y-169127714D01*
X160016976Y-169176095D01*
X160113738Y-169272857D01*
X160162119Y-169417999D01*
X160162119Y-169659904D01*
X160162119Y-168111714D02*
X160162119Y-168692285D01*
X160162119Y-168401999D02*
X159146119Y-168401999D01*
X159291262Y-168498761D01*
X159388024Y-168595523D01*
X159436405Y-168692285D01*
X165877119Y-171072931D02*
X164861119Y-170945931D01*
X164861119Y-170597588D01*
X164909500Y-170516550D01*
X164957881Y-170479055D01*
X165054643Y-170447607D01*
X165199786Y-170465750D01*
X165296548Y-170521388D01*
X165344929Y-170570979D01*
X165393310Y-170664112D01*
X165393310Y-171012455D01*
X164861119Y-169857359D02*
X164861119Y-169683188D01*
X164909500Y-169602150D01*
X165006262Y-169527159D01*
X165199786Y-169507808D01*
X165538452Y-169550141D01*
X165731976Y-169617873D01*
X165828738Y-169717055D01*
X165877119Y-169810188D01*
X165877119Y-169984359D01*
X165828738Y-170065398D01*
X165731976Y-170140388D01*
X165538452Y-170159741D01*
X165199786Y-170117408D01*
X165006262Y-170049674D01*
X164909500Y-169950493D01*
X164861119Y-169857359D01*
X164861119Y-169160673D02*
X165877119Y-169069959D01*
X165151405Y-168805074D01*
X165877119Y-168721616D01*
X164861119Y-168376902D01*
X165344929Y-168089036D02*
X165344929Y-167784236D01*
X165877119Y-167720130D02*
X165877119Y-168155559D01*
X164861119Y-168028559D01*
X164861119Y-167593130D01*
X165877119Y-166805730D02*
X165393310Y-167050054D01*
X165877119Y-167328245D02*
X164861119Y-167201245D01*
X164861119Y-166852902D01*
X164909500Y-166771864D01*
X164957881Y-166734369D01*
X165054643Y-166702921D01*
X165199786Y-166721064D01*
X165296548Y-166776702D01*
X165344929Y-166826293D01*
X165393310Y-166919426D01*
X165393310Y-167267769D01*
X164924619Y-150981833D02*
X164440810Y-151320499D01*
X164924619Y-151562404D02*
X163908619Y-151562404D01*
X163908619Y-151175357D01*
X163957000Y-151078595D01*
X164005381Y-151030214D01*
X164102143Y-150981833D01*
X164247286Y-150981833D01*
X164344048Y-151030214D01*
X164392429Y-151078595D01*
X164440810Y-151175357D01*
X164440810Y-151562404D01*
X164924619Y-150014214D02*
X164924619Y-150594785D01*
X164924619Y-150304499D02*
X163908619Y-150304499D01*
X164053762Y-150401261D01*
X164150524Y-150498023D01*
X164198905Y-150594785D01*
X162342286Y-151793121D02*
X163019619Y-151877787D01*
X161955238Y-151962454D02*
X162680952Y-152270883D01*
X162680952Y-151704825D01*
X162003619Y-151358901D02*
X162003619Y-150749301D01*
X163019619Y-151268187D01*
X162003619Y-150226787D02*
X162003619Y-150139702D01*
X162052000Y-150058664D01*
X162100381Y-150021169D01*
X162197143Y-149989721D01*
X162390667Y-149970368D01*
X162632571Y-150000606D01*
X162826095Y-150068340D01*
X162922857Y-150123978D01*
X162971238Y-150173569D01*
X163019619Y-150266702D01*
X163019619Y-150353787D01*
X162971238Y-150434826D01*
X162922857Y-150472321D01*
X162826095Y-150503769D01*
X162632571Y-150523121D01*
X162390667Y-150492883D01*
X162197143Y-150425150D01*
X162100381Y-150369512D01*
X162052000Y-150319921D01*
X162003619Y-150226787D01*
X119972667Y-173179619D02*
X119634001Y-172695810D01*
X119392096Y-173179619D02*
X119392096Y-172163619D01*
X119779143Y-172163619D01*
X119875905Y-172212000D01*
X119924286Y-172260381D01*
X119972667Y-172357143D01*
X119972667Y-172502286D01*
X119924286Y-172599048D01*
X119875905Y-172647429D01*
X119779143Y-172695810D01*
X119392096Y-172695810D01*
X120988667Y-173179619D02*
X120650001Y-172695810D01*
X120408096Y-173179619D02*
X120408096Y-172163619D01*
X120795143Y-172163619D01*
X120891905Y-172212000D01*
X120940286Y-172260381D01*
X120988667Y-172357143D01*
X120988667Y-172502286D01*
X120940286Y-172599048D01*
X120891905Y-172647429D01*
X120795143Y-172695810D01*
X120408096Y-172695810D01*
X121956286Y-173179619D02*
X121375715Y-173179619D01*
X121666001Y-173179619D02*
X121666001Y-172163619D01*
X121569239Y-172308762D01*
X121472477Y-172405524D01*
X121375715Y-172453905D01*
X127454478Y-172502286D02*
X127369812Y-173179619D01*
X127285145Y-172115238D02*
X126976716Y-172840952D01*
X127542774Y-172840952D01*
X127860878Y-173082857D02*
X127898373Y-173131238D01*
X127848783Y-173179619D01*
X127811287Y-173131238D01*
X127860878Y-173082857D01*
X127848783Y-173179619D01*
X128324127Y-172163619D02*
X128933727Y-172163619D01*
X128414841Y-173179619D01*
X129155069Y-173179619D02*
X129282069Y-172163619D01*
X129290536Y-172792571D02*
X129503412Y-173179619D01*
X129588078Y-172502286D02*
X129191354Y-172889333D01*
X163337119Y-135106833D02*
X162853310Y-135445499D01*
X163337119Y-135687404D02*
X162321119Y-135687404D01*
X162321119Y-135300357D01*
X162369500Y-135203595D01*
X162417881Y-135155214D01*
X162514643Y-135106833D01*
X162659786Y-135106833D01*
X162756548Y-135155214D01*
X162804929Y-135203595D01*
X162853310Y-135300357D01*
X162853310Y-135687404D01*
X162417881Y-134719785D02*
X162369500Y-134671404D01*
X162321119Y-134574642D01*
X162321119Y-134332738D01*
X162369500Y-134235976D01*
X162417881Y-134187595D01*
X162514643Y-134139214D01*
X162611405Y-134139214D01*
X162756548Y-134187595D01*
X163337119Y-134768166D01*
X163337119Y-134139214D01*
X163019619Y-141565387D02*
X163019619Y-142087902D01*
X163019619Y-141826644D02*
X162003619Y-141699644D01*
X162148762Y-141804873D01*
X162245524Y-141904054D01*
X162293905Y-141997188D01*
X162003619Y-140872330D02*
X162003619Y-140785245D01*
X162052000Y-140704207D01*
X162100381Y-140666712D01*
X162197143Y-140635264D01*
X162390667Y-140615911D01*
X162632571Y-140646149D01*
X162826095Y-140713883D01*
X162922857Y-140769521D01*
X162971238Y-140819112D01*
X163019619Y-140912245D01*
X163019619Y-140999330D01*
X162971238Y-141080369D01*
X162922857Y-141117864D01*
X162826095Y-141149312D01*
X162632571Y-141168664D01*
X162390667Y-141138426D01*
X162197143Y-141070693D01*
X162100381Y-141015055D01*
X162052000Y-140965464D01*
X162003619Y-140872330D01*
X163019619Y-140302645D02*
X162003619Y-140175645D01*
X162632571Y-140167178D02*
X163019619Y-139954302D01*
X162342286Y-139869636D02*
X162729333Y-140266360D01*
X134444619Y-114469333D02*
X133960810Y-114807999D01*
X134444619Y-115049904D02*
X133428619Y-115049904D01*
X133428619Y-114662857D01*
X133477000Y-114566095D01*
X133525381Y-114517714D01*
X133622143Y-114469333D01*
X133767286Y-114469333D01*
X133864048Y-114517714D01*
X133912429Y-114566095D01*
X133960810Y-114662857D01*
X133960810Y-115049904D01*
X133428619Y-114130666D02*
X133428619Y-113501714D01*
X133815667Y-113840380D01*
X133815667Y-113695238D01*
X133864048Y-113598476D01*
X133912429Y-113550095D01*
X134009190Y-113501714D01*
X134251095Y-113501714D01*
X134347857Y-113550095D01*
X134396238Y-113598476D01*
X134444619Y-113695238D01*
X134444619Y-113985523D01*
X134396238Y-114082285D01*
X134347857Y-114130666D01*
X136349619Y-111085387D02*
X136349619Y-111607902D01*
X136349619Y-111346644D02*
X135333619Y-111219644D01*
X135478762Y-111324873D01*
X135575524Y-111424054D01*
X135623905Y-111517188D01*
X135333619Y-110392330D02*
X135333619Y-110305245D01*
X135382000Y-110224207D01*
X135430381Y-110186712D01*
X135527143Y-110155264D01*
X135720667Y-110135911D01*
X135962571Y-110166149D01*
X136156095Y-110233883D01*
X136252857Y-110289521D01*
X136301238Y-110339112D01*
X136349619Y-110432245D01*
X136349619Y-110519330D01*
X136301238Y-110600369D01*
X136252857Y-110637864D01*
X136156095Y-110669312D01*
X135962571Y-110688664D01*
X135720667Y-110658426D01*
X135527143Y-110590693D01*
X135430381Y-110535055D01*
X135382000Y-110485464D01*
X135333619Y-110392330D01*
X136349619Y-109822645D02*
X135333619Y-109695645D01*
X135962571Y-109687178D02*
X136349619Y-109474302D01*
X135672286Y-109389636D02*
X136059333Y-109786360D01*
M02*
