G04 #@! TF.FileFunction,Soldermask,Top*
%FSLAX46Y46*%
G04 Gerber Fmt 4.6, Leading zero omitted, Abs format (unit mm)*
G04 Created by KiCad (PCBNEW 4.0.7) date 02/07/19 14:19:16*
%MOMM*%
%LPD*%
G01*
G04 APERTURE LIST*
%ADD10C,0.100000*%
%ADD11R,1.924000X1.924000*%
%ADD12C,1.924000*%
%ADD13R,1.797000X1.797000*%
%ADD14C,1.797000*%
%ADD15R,1.890980X1.890980*%
%ADD16C,1.890980*%
%ADD17C,4.448760*%
%ADD18C,4.400000*%
%ADD19C,4.900000*%
%ADD20C,2.899360*%
%ADD21C,2.200860*%
G04 APERTURE END LIST*
D10*
D11*
X165100000Y-172720000D03*
D12*
X167640000Y-172720000D03*
X170180000Y-172720000D03*
X172720000Y-172720000D03*
X175260000Y-172720000D03*
D13*
X83820000Y-96520000D03*
D14*
X86360000Y-96520000D03*
X88900000Y-96520000D03*
X91440000Y-96520000D03*
X93980000Y-96520000D03*
X96520000Y-96520000D03*
X99060000Y-96520000D03*
X101600000Y-96520000D03*
X104140000Y-96520000D03*
X106680000Y-96520000D03*
X109220000Y-96520000D03*
X111760000Y-96520000D03*
X114300000Y-96520000D03*
X116840000Y-96520000D03*
X119380000Y-96520000D03*
X121920000Y-96520000D03*
X124460000Y-96520000D03*
X127000000Y-96520000D03*
X129540000Y-96520000D03*
X132080000Y-96520000D03*
X132080000Y-81280000D03*
X129540000Y-81280000D03*
X127000000Y-81280000D03*
X124460000Y-81280000D03*
X121920000Y-81280000D03*
X119380000Y-81280000D03*
X116840000Y-81280000D03*
X114300000Y-81280000D03*
X111760000Y-81280000D03*
X109220000Y-81280000D03*
X106680000Y-81280000D03*
X104140000Y-81280000D03*
X101600000Y-81280000D03*
X99060000Y-81280000D03*
X96520000Y-81280000D03*
X93980000Y-81280000D03*
X91440000Y-81280000D03*
X88900000Y-81280000D03*
X86360000Y-81280000D03*
X83820000Y-81280000D03*
D13*
X83820000Y-167640000D03*
D14*
X86360000Y-167640000D03*
X88900000Y-167640000D03*
X91440000Y-167640000D03*
X93980000Y-167640000D03*
X96520000Y-167640000D03*
X99060000Y-167640000D03*
X101600000Y-167640000D03*
X104140000Y-167640000D03*
X106680000Y-167640000D03*
X109220000Y-167640000D03*
X111760000Y-167640000D03*
X114300000Y-167640000D03*
X116840000Y-167640000D03*
X119380000Y-167640000D03*
X121920000Y-167640000D03*
X124460000Y-167640000D03*
X127000000Y-167640000D03*
X129540000Y-167640000D03*
X132080000Y-167640000D03*
X132080000Y-152400000D03*
X129540000Y-152400000D03*
X127000000Y-152400000D03*
X124460000Y-152400000D03*
X121920000Y-152400000D03*
X119380000Y-152400000D03*
X116840000Y-152400000D03*
X114300000Y-152400000D03*
X111760000Y-152400000D03*
X109220000Y-152400000D03*
X106680000Y-152400000D03*
X104140000Y-152400000D03*
X101600000Y-152400000D03*
X99060000Y-152400000D03*
X96520000Y-152400000D03*
X93980000Y-152400000D03*
X91440000Y-152400000D03*
X88900000Y-152400000D03*
X86360000Y-152400000D03*
X83820000Y-152400000D03*
X80010000Y-162560000D03*
X80010000Y-157480000D03*
X80010000Y-104140000D03*
X80010000Y-109220000D03*
X80010000Y-91440000D03*
X80010000Y-86360000D03*
X80010000Y-139700000D03*
X80010000Y-144780000D03*
X80010000Y-121920000D03*
X80010000Y-127000000D03*
X158750000Y-158750000D03*
X153670000Y-158750000D03*
X135890000Y-95250000D03*
X135890000Y-100330000D03*
X135890000Y-82550000D03*
X135890000Y-87630000D03*
X125730000Y-118110000D03*
X125730000Y-123190000D03*
X125730000Y-143510000D03*
X125730000Y-148590000D03*
X125730000Y-130810000D03*
X125730000Y-135890000D03*
X138430000Y-107950000D03*
X138430000Y-113030000D03*
X139700000Y-152400000D03*
X144780000Y-152400000D03*
X124460000Y-99060000D03*
X129540000Y-99060000D03*
X167640000Y-167640000D03*
X167640000Y-162560000D03*
X144780000Y-104140000D03*
X139700000Y-104140000D03*
X138430000Y-100330000D03*
X138430000Y-95250000D03*
X152400000Y-104140000D03*
X147320000Y-104140000D03*
X154940000Y-104140000D03*
X160020000Y-104140000D03*
X144780000Y-91440000D03*
X139700000Y-91440000D03*
X138430000Y-87630000D03*
X138430000Y-82550000D03*
X152400000Y-91440000D03*
X147320000Y-91440000D03*
X154940000Y-91440000D03*
X160020000Y-91440000D03*
D15*
X161310000Y-162560000D03*
D16*
X163810000Y-162560000D03*
D11*
X119380000Y-172720000D03*
D12*
X121920000Y-172720000D03*
X124460000Y-172720000D03*
X127000000Y-172720000D03*
X129540000Y-172720000D03*
X132080000Y-172720000D03*
X134620000Y-172720000D03*
X137160000Y-172720000D03*
X139700000Y-172720000D03*
X142240000Y-172720000D03*
D17*
X167322500Y-142034260D03*
X167322500Y-117045740D03*
D11*
X165900100Y-135026400D03*
D12*
X165900100Y-132283200D03*
X165900100Y-129540000D03*
X165900100Y-126796800D03*
X165900100Y-124053600D03*
X168744900Y-125425200D03*
X168744900Y-128168400D03*
X168744900Y-130937000D03*
X168744900Y-133654800D03*
D17*
X167322500Y-106474260D03*
X167322500Y-81485740D03*
D11*
X165900100Y-99466400D03*
D12*
X165900100Y-96723200D03*
X165900100Y-93980000D03*
X165900100Y-91236800D03*
X165900100Y-88493600D03*
X168744900Y-89865200D03*
X168744900Y-92608400D03*
X168744900Y-95377000D03*
X168744900Y-98094800D03*
D18*
X172720000Y-153670000D03*
D19*
X166519860Y-153670000D03*
D18*
X169720260Y-148869400D03*
D13*
X139700000Y-163830000D03*
D14*
X147320000Y-163830000D03*
X147320000Y-156210000D03*
X139700000Y-156210000D03*
D13*
X124460000Y-110490000D03*
D14*
X132080000Y-110490000D03*
X132080000Y-102870000D03*
X124460000Y-102870000D03*
X156210000Y-133350000D03*
X153670000Y-130810000D03*
X156210000Y-128270000D03*
D20*
X171767500Y-169872660D03*
X171767500Y-162872420D03*
D21*
X174266860Y-168622980D03*
X174266860Y-164122100D03*
D13*
X83820000Y-114300000D03*
D14*
X86360000Y-114300000D03*
X88900000Y-114300000D03*
X91440000Y-114300000D03*
X93980000Y-114300000D03*
X96520000Y-114300000D03*
X99060000Y-114300000D03*
X101600000Y-114300000D03*
X104140000Y-114300000D03*
X106680000Y-114300000D03*
X109220000Y-114300000D03*
X111760000Y-114300000D03*
X114300000Y-114300000D03*
X116840000Y-114300000D03*
X116840000Y-99060000D03*
X114300000Y-99060000D03*
X111760000Y-99060000D03*
X109220000Y-99060000D03*
X106680000Y-99060000D03*
X104140000Y-99060000D03*
X101600000Y-99060000D03*
X99060000Y-99060000D03*
X96520000Y-99060000D03*
X93980000Y-99060000D03*
X91440000Y-99060000D03*
X88900000Y-99060000D03*
X86360000Y-99060000D03*
X83820000Y-99060000D03*
D13*
X83820000Y-149860000D03*
D14*
X86360000Y-149860000D03*
X88900000Y-149860000D03*
X91440000Y-149860000D03*
X93980000Y-149860000D03*
X96520000Y-149860000D03*
X99060000Y-149860000D03*
X101600000Y-149860000D03*
X104140000Y-149860000D03*
X106680000Y-149860000D03*
X109220000Y-149860000D03*
X111760000Y-149860000D03*
X114300000Y-149860000D03*
X116840000Y-149860000D03*
X119380000Y-149860000D03*
X121920000Y-149860000D03*
X121920000Y-134620000D03*
X119380000Y-134620000D03*
X116840000Y-134620000D03*
X114300000Y-134620000D03*
X111760000Y-134620000D03*
X109220000Y-134620000D03*
X106680000Y-134620000D03*
X104140000Y-134620000D03*
X101600000Y-134620000D03*
X99060000Y-134620000D03*
X96520000Y-134620000D03*
X93980000Y-134620000D03*
X91440000Y-134620000D03*
X88900000Y-134620000D03*
X86360000Y-134620000D03*
X83820000Y-134620000D03*
D13*
X83820000Y-132080000D03*
D14*
X86360000Y-132080000D03*
X88900000Y-132080000D03*
X91440000Y-132080000D03*
X93980000Y-132080000D03*
X96520000Y-132080000D03*
X99060000Y-132080000D03*
X101600000Y-132080000D03*
X104140000Y-132080000D03*
X106680000Y-132080000D03*
X109220000Y-132080000D03*
X111760000Y-132080000D03*
X114300000Y-132080000D03*
X116840000Y-132080000D03*
X119380000Y-132080000D03*
X121920000Y-132080000D03*
X121920000Y-116840000D03*
X119380000Y-116840000D03*
X116840000Y-116840000D03*
X114300000Y-116840000D03*
X111760000Y-116840000D03*
X109220000Y-116840000D03*
X106680000Y-116840000D03*
X104140000Y-116840000D03*
X101600000Y-116840000D03*
X99060000Y-116840000D03*
X96520000Y-116840000D03*
X93980000Y-116840000D03*
X91440000Y-116840000D03*
X88900000Y-116840000D03*
X86360000Y-116840000D03*
X83820000Y-116840000D03*
D13*
X160020000Y-154940000D03*
D14*
X160020000Y-152400000D03*
X160020000Y-149860000D03*
X160020000Y-147320000D03*
X160020000Y-144780000D03*
X160020000Y-142240000D03*
X160020000Y-139700000D03*
X160020000Y-137160000D03*
X152400000Y-137160000D03*
X152400000Y-139700000D03*
X152400000Y-142240000D03*
X152400000Y-144780000D03*
X152400000Y-147320000D03*
X152400000Y-149860000D03*
X152400000Y-152400000D03*
X152400000Y-154940000D03*
D13*
X142240000Y-101600000D03*
D14*
X144780000Y-101600000D03*
X147320000Y-101600000D03*
X149860000Y-101600000D03*
X152400000Y-101600000D03*
X154940000Y-101600000D03*
X157480000Y-101600000D03*
X160020000Y-101600000D03*
X160020000Y-93980000D03*
X157480000Y-93980000D03*
X154940000Y-93980000D03*
X152400000Y-93980000D03*
X149860000Y-93980000D03*
X147320000Y-93980000D03*
X144780000Y-93980000D03*
X142240000Y-93980000D03*
D13*
X142240000Y-88900000D03*
D14*
X144780000Y-88900000D03*
X147320000Y-88900000D03*
X149860000Y-88900000D03*
X152400000Y-88900000D03*
X154940000Y-88900000D03*
X157480000Y-88900000D03*
X160020000Y-88900000D03*
X160020000Y-81280000D03*
X157480000Y-81280000D03*
X154940000Y-81280000D03*
X152400000Y-81280000D03*
X149860000Y-81280000D03*
X147320000Y-81280000D03*
X144780000Y-81280000D03*
X142240000Y-81280000D03*
D13*
X129540000Y-124460000D03*
D14*
X132080000Y-124460000D03*
X134620000Y-124460000D03*
X137160000Y-124460000D03*
X139700000Y-124460000D03*
X142240000Y-124460000D03*
X144780000Y-124460000D03*
X147320000Y-124460000D03*
X149860000Y-124460000D03*
X152400000Y-124460000D03*
X152400000Y-116840000D03*
X149860000Y-116840000D03*
X147320000Y-116840000D03*
X144780000Y-116840000D03*
X142240000Y-116840000D03*
X139700000Y-116840000D03*
X137160000Y-116840000D03*
X134620000Y-116840000D03*
X132080000Y-116840000D03*
X129540000Y-116840000D03*
D13*
X129540000Y-149860000D03*
D14*
X132080000Y-149860000D03*
X134620000Y-149860000D03*
X137160000Y-149860000D03*
X139700000Y-149860000D03*
X142240000Y-149860000D03*
X144780000Y-149860000D03*
X147320000Y-149860000D03*
X147320000Y-142240000D03*
X144780000Y-142240000D03*
X142240000Y-142240000D03*
X139700000Y-142240000D03*
X137160000Y-142240000D03*
X134620000Y-142240000D03*
X132080000Y-142240000D03*
X129540000Y-142240000D03*
D13*
X129540000Y-137160000D03*
D14*
X132080000Y-137160000D03*
X134620000Y-137160000D03*
X137160000Y-137160000D03*
X139700000Y-137160000D03*
X142240000Y-137160000D03*
X144780000Y-137160000D03*
X147320000Y-137160000D03*
X147320000Y-129540000D03*
X144780000Y-129540000D03*
X142240000Y-129540000D03*
X139700000Y-129540000D03*
X137160000Y-129540000D03*
X134620000Y-129540000D03*
X132080000Y-129540000D03*
X129540000Y-129540000D03*
D13*
X142240000Y-114300000D03*
D14*
X144780000Y-114300000D03*
X147320000Y-114300000D03*
X149860000Y-114300000D03*
X152400000Y-114300000D03*
X154940000Y-114300000D03*
X157480000Y-114300000D03*
X157480000Y-106680000D03*
X154940000Y-106680000D03*
X152400000Y-106680000D03*
X149860000Y-106680000D03*
X147320000Y-106680000D03*
X144780000Y-106680000D03*
X142240000Y-106680000D03*
D11*
X153670000Y-165100000D03*
D12*
X156210000Y-165100000D03*
D14*
X157480000Y-124460000D03*
X157480000Y-116840000D03*
X160020000Y-124460000D03*
X160020000Y-116840000D03*
D11*
X78740000Y-175260000D03*
D12*
X81280000Y-175260000D03*
X83820000Y-175260000D03*
X86360000Y-175260000D03*
X88900000Y-175260000D03*
X91440000Y-175260000D03*
X93980000Y-175260000D03*
X96520000Y-175260000D03*
X99060000Y-175260000D03*
X101600000Y-175260000D03*
X104140000Y-175260000D03*
X106680000Y-175260000D03*
X109220000Y-175260000D03*
X111760000Y-175260000D03*
X114300000Y-175260000D03*
X116840000Y-175260000D03*
X119380000Y-175260000D03*
X121920000Y-175260000D03*
X124460000Y-175260000D03*
X127000000Y-175260000D03*
X129540000Y-175260000D03*
X132080000Y-175260000D03*
X134620000Y-175260000D03*
X137160000Y-175260000D03*
X139700000Y-175260000D03*
X142240000Y-175260000D03*
X144780000Y-175260000D03*
X147320000Y-175260000D03*
X149860000Y-175260000D03*
X152400000Y-175260000D03*
X154940000Y-175260000D03*
X157480000Y-175260000D03*
X160020000Y-175260000D03*
X162560000Y-175260000D03*
X165100000Y-175260000D03*
X167640000Y-175260000D03*
X170180000Y-175260000D03*
X172720000Y-175260000D03*
X175260000Y-175260000D03*
D13*
X137160000Y-139700000D03*
D14*
X139700000Y-139700000D03*
X142240000Y-139700000D03*
X144780000Y-139700000D03*
X147320000Y-139700000D03*
D13*
X137160000Y-127000000D03*
D14*
X139700000Y-127000000D03*
X142240000Y-127000000D03*
X144780000Y-127000000D03*
X147320000Y-127000000D03*
D11*
X114300000Y-102870000D03*
D12*
X111760000Y-102870000D03*
X109220000Y-102870000D03*
D11*
X114300000Y-92710000D03*
D12*
X111760000Y-92710000D03*
X109220000Y-92710000D03*
D14*
X161290000Y-168910000D03*
X163830000Y-168910000D03*
X162560000Y-147320000D03*
X162560000Y-154940000D03*
D13*
X119380000Y-170180000D03*
D14*
X121920000Y-170180000D03*
X124460000Y-170180000D03*
X127000000Y-170180000D03*
X129540000Y-170180000D03*
X162560000Y-144780000D03*
X162560000Y-137160000D03*
X135890000Y-114300000D03*
X135890000Y-106680000D03*
M02*
